<svg xmlns="http://www.w3.org/2000/svg" width="863.535" height="746.533" viewBox="0 0 863.535 746.533">
  <g id="Gruppe_35" data-name="Gruppe 35" transform="translate(-735.465 -5604.862)">
    <g id="Gruppe_28" data-name="Gruppe 28" transform="translate(237 1309)">
      <path id="Pfad_37" data-name="Pfad 37" d="M16530.063,6916.33v21s2.844-14.351,7.35-14.351,6.65,14.351,6.65,14.351v-21Z" transform="translate(-15830 -1980)" fill="#f8f8f7" stroke="#000" stroke-width="1"/>
      <path id="Pfad_38" data-name="Pfad 38" d="M16530.063,6916.33v21s2.844-14.351,7.35-14.351,6.65,14.351,6.65,14.351v-21Z" transform="translate(-15724 -1980)" fill="none" stroke="#000" stroke-width="1"/>
      <path id="Pfad_36" data-name="Pfad 36" d="M16530.063,6916.33v21s2.844-14.351,7.35-14.351,6.65,14.351,6.65,14.351v-21Z" transform="translate(-15943 -1980)" fill="none" stroke="#000" stroke-width="1"/>
      <g id="Rechteck_25" data-name="Rechteck 25" transform="translate(581 4918)" fill="#f8f8f7" stroke="#000" stroke-width="1">
        <rect width="247" height="19" stroke="none"/>
        <rect x="0.5" y="0.5" width="246" height="18" fill="none"/>
      </g>
      <g id="Rechteck_26" data-name="Rechteck 26" transform="translate(588 4940)" fill="#f8f8f7" stroke="#000" stroke-width="1">
        <rect width="12" height="30" rx="6" stroke="none"/>
        <rect x="0.5" y="0.5" width="11" height="29" rx="5.5" fill="none"/>
      </g>
      <g id="Rechteck_27" data-name="Rechteck 27" transform="translate(701 4940)" fill="#f8f8f7" stroke="#000" stroke-width="1">
        <rect width="12" height="30" rx="6" stroke="none"/>
        <rect x="0.5" y="0.5" width="11" height="29" rx="5.5" fill="none"/>
      </g>
      <g id="Rechteck_28" data-name="Rechteck 28" transform="translate(807 4940)" fill="#f8f8f7" stroke="#000" stroke-width="1">
        <rect width="12" height="30" rx="6" stroke="none"/>
        <rect x="0.5" y="0.5" width="11" height="29" rx="5.5" fill="none"/>
      </g>
      <g id="Rechteck_30" data-name="Rechteck 30" transform="translate(701 4334)" fill="#f8f8f7" stroke="#000" stroke-width="1">
        <rect width="19" height="587" rx="3" stroke="none"/>
        <rect x="0.5" y="0.5" width="18" height="586" rx="2.5" fill="none"/>
      </g>
      <g id="Rechteck_29" data-name="Rechteck 29" transform="translate(696 4331)" fill="#f8f8f7" stroke="#000" stroke-width="1">
        <rect width="19" height="590" stroke="none"/>
        <rect x="0.5" y="0.5" width="18" height="589" fill="none"/>
      </g>
      <g id="Rechteck_32" data-name="Rechteck 32" transform="translate(874 4616)" fill="#f8f8f7" stroke="#000" stroke-width="1">
        <rect width="20" height="8" stroke="none"/>
        <rect x="0.5" y="0.5" width="19" height="7" fill="none"/>
      </g>
      <g id="Rechteck_33" data-name="Rechteck 33" transform="translate(863 4628)" fill="#f8f8f7" stroke="#000" stroke-width="1">
        <rect width="3" height="3" stroke="none"/>
        <rect x="0.5" y="0.5" width="2" height="2" fill="none"/>
      </g>
      <g id="Rechteck_34" data-name="Rechteck 34" transform="translate(860 4631)" fill="#f8f8f7" stroke="#000" stroke-width="1">
        <rect width="9" height="4" stroke="none"/>
        <rect x="0.5" y="0.5" width="8" height="3" fill="none"/>
      </g>
      <g id="Rechteck_35" data-name="Rechteck 35" transform="translate(854 4634)" fill="#f8f8f7" stroke="#000" stroke-width="1">
        <rect width="21" height="8" rx="4" stroke="none"/>
        <rect x="0.5" y="0.5" width="20" height="7" rx="3.5" fill="none"/>
      </g>
      <g id="Rechteck_36" data-name="Rechteck 36" transform="translate(855 4590)" fill="#f8f8f7" stroke="#000" stroke-width="1">
        <rect width="18" height="18" stroke="none"/>
        <rect x="0.5" y="0.5" width="17" height="17" fill="none"/>
      </g>
      <g id="Ellipse_1" data-name="Ellipse 1" transform="translate(856 4582)" fill="#f8f8f7" stroke="#000" stroke-width="1">
        <circle cx="8" cy="8" r="8" stroke="none"/>
        <circle cx="8" cy="8" r="7.5" fill="none"/>
      </g>
      <g id="Rechteck_37" data-name="Rechteck 37" transform="translate(853 4586)" fill="#f8f8f7" stroke="#000" stroke-width="1">
        <rect width="4" height="4" stroke="none"/>
        <rect x="0.5" y="0.5" width="3" height="3" fill="none"/>
      </g>
      <g id="Rechteck_38" data-name="Rechteck 38" transform="translate(850 4584)" fill="#f8f8f7" stroke="#000" stroke-width="1">
        <rect width="4" height="8" stroke="none"/>
        <rect x="0.5" y="0.5" width="3" height="7" fill="none"/>
      </g>
      <g id="Rechteck_39" data-name="Rechteck 39" transform="translate(848 4579)" fill="#f8f8f7" stroke="#000" stroke-width="1">
        <rect width="3" height="18" stroke="none"/>
        <rect x="0.5" y="0.5" width="2" height="17" fill="none"/>
      </g>
      <g id="Rechteck_40" data-name="Rechteck 40" transform="translate(846 4587)" fill="#f8f8f7" stroke="#000" stroke-width="1">
        <rect width="2" height="2" stroke="none"/>
        <rect x="0.5" y="0.5" width="1" height="1" fill="none"/>
      </g>
      <g id="Rechteck_41" data-name="Rechteck 41" transform="translate(673 4629)" fill="#f8f8f7" stroke="#000" stroke-width="1">
        <rect width="3" height="5" stroke="none"/>
        <rect x="0.5" y="0.5" width="2" height="4" fill="none"/>
      </g>
      <g id="Rechteck_42" data-name="Rechteck 42" transform="translate(671 4634)" fill="#f8f8f7" stroke="#000" stroke-width="1">
        <rect width="8" height="6" stroke="none"/>
        <rect x="0.5" y="0.5" width="7" height="5" fill="none"/>
      </g>
      <g id="Rechteck_43" data-name="Rechteck 43" transform="translate(630 4647)" fill="#f8f8f7" stroke="#000" stroke-width="1">
        <rect width="66" height="7" stroke="none"/>
        <rect x="0.5" y="0.5" width="65" height="6" fill="none"/>
      </g>
      <g id="Rechteck_44" data-name="Rechteck 44" transform="translate(629 4653)" fill="#f8f8f7" stroke="#000" stroke-width="1">
        <rect width="68" height="13" stroke="none"/>
        <rect x="0.5" y="0.5" width="67" height="12" fill="none"/>
      </g>
      <g id="Rechteck_45" data-name="Rechteck 45" transform="translate(632 4639)" fill="#f8f8f7" stroke="#000" stroke-width="1">
        <rect width="64" height="10" stroke="none"/>
        <rect x="0.5" y="0.5" width="63" height="9" fill="none"/>
      </g>
      <g id="Rechteck_47" data-name="Rechteck 47" transform="translate(841 4816)" fill="#f8f8f7" stroke="#000" stroke-width="1">
        <rect width="193" height="156" stroke="none"/>
        <rect x="0.5" y="0.5" width="192" height="155" fill="none"/>
      </g>
      <g id="Rechteck_48" data-name="Rechteck 48" transform="translate(1137 4832)" fill="#f8f8f7" stroke="#000" stroke-width="1">
        <rect width="19" height="142" stroke="none"/>
        <rect x="0.5" y="0.5" width="18" height="141" fill="none"/>
      </g>
      <g id="Rechteck_51" data-name="Rechteck 51" transform="translate(1310 4832)" fill="#f8f8f7" stroke="#000" stroke-width="1">
        <rect width="19" height="142" stroke="none"/>
        <rect x="0.5" y="0.5" width="18" height="141" fill="none"/>
      </g>
      <g id="Rechteck_49" data-name="Rechteck 49" transform="translate(1179 4832)" fill="#f8f8f7" stroke="#000" stroke-width="1">
        <rect width="17.192" height="128.484" stroke="none"/>
        <rect x="0.5" y="0.5" width="16.192" height="127.484" fill="none"/>
      </g>
      <g id="Rechteck_31" data-name="Rechteck 31" transform="translate(657 4607)" fill="#f8f8f7" stroke="#000" stroke-width="1">
        <rect width="224" height="23" rx="3" stroke="none"/>
        <rect x="0.5" y="0.5" width="223" height="22" rx="2.5" fill="none"/>
      </g>
      <g id="Rechteck_50" data-name="Rechteck 50" transform="translate(1340 4826.449)" fill="#f8f8f7" stroke="#000" stroke-width="1">
        <rect width="17.192" height="134.035" stroke="none"/>
        <rect x="0.5" y="0.5" width="16.192" height="133.035" fill="none"/>
      </g>
      <path id="Pfad_39" data-name="Pfad 39" d="M17103.762,6951.148l-5.232,2.38V6812.679h5.232Z" transform="translate(-15943 -1980)" fill="#f8f8f7" stroke="#000" stroke-width="1"/>
      <path id="Pfad_42" data-name="Pfad 42" d="M17103.762,6951.148l-5.232,2.38V6812.679h5.232Z" transform="translate(-15770 -1980)" fill="#f8f8f7" stroke="#000" stroke-width="1"/>
      <path id="Pfad_40" data-name="Pfad 40" d="M17103.264,6937.968l-4.734,2.154V6812.679h4.734Z" transform="translate(-15902.764 -1980.064)" fill="#f8f8f7" stroke="#000" stroke-width="1"/>
      <path id="Pfad_41" data-name="Pfad 41" d="M17103.264,6943.424l-4.734,2.248V6812.679h4.734Z" transform="translate(-15741.764 -1985.615)" fill="#f8f8f7" stroke="#000" stroke-width="1"/>
      <g id="Rechteck_52" data-name="Rechteck 52" transform="translate(1135 4815)" fill="#f8f8f7" stroke="#000" stroke-width="1">
        <rect width="194" height="19" stroke="none"/>
        <rect x="0.5" y="0.5" width="193" height="18" fill="none"/>
      </g>
      <path id="Pfad_43" data-name="Pfad 43" d="M17271.529,6794.938l32.971-4.172v16.088l-32.971,5.917Z" transform="translate(-15943 -1979.365)" fill="#f8f8f7" stroke="#000" stroke-width="1"/>
      <path id="Pfad_45" data-name="Pfad 45" d="M17304.5,6791.4h-193.064l-32.627,4.227H17271.7Z" transform="translate(-15943 -1980)" fill="#f8f8f7" stroke="#000" stroke-width="1"/>
      <path id="Pfad_46" data-name="Pfad 46" d="M16976.742,6796.5l-15.121-5.9h-174.73l-2.148,5.361Z" transform="translate(-15943 -1980)" fill="#f8f8f7" stroke="#000" stroke-width="1"/>
      <g id="Rechteck_46" data-name="Rechteck 46" transform="translate(910 4405)" fill="#f8f8f7" stroke="#000" stroke-width="1">
        <rect width="49" height="409" rx="3" stroke="none"/>
        <rect x="0.5" y="0.5" width="48" height="408" rx="2.5" fill="none"/>
      </g>
      <path id="Pfad_50" data-name="Pfad 50" d="M17195.678,6771.324v13.113a3.42,3.42,0,0,1-3.393,2.934c-2.979,0-92.689,1.749-26.99,2.494s77.635,0,77.635,0,29.777.166,0-.756-27.445,1.367-27.5-4.672,0-13.113,0-13.113Z" transform="translate(-15953 -1976)" fill="#f8f8f7" stroke="#000" stroke-width="1"/>
      <path id="Pfad_47" data-name="Pfad 47" d="M17092.473,6626.356l200.436-9.918-2.646,153.5-202.168-1.367Z" transform="translate(-15943 -1976)" fill="#f8f8f7" stroke="#000" stroke-width="1"/>
      <path id="Pfad_48" data-name="Pfad 48" d="M17092.193,6625.6l187.662-9.159-2.477,141.731-189.285-1.262Z" transform="translate(-15936.948 -1970.218)" fill="#f8f8f7" stroke="#000" stroke-width="1"/>
      <path id="Pfad_49" data-name="Pfad 49" d="M17088.094,6768.654l18.857,4.015,167.693,1.324,1.959-2.581,13.08-1.321Z" transform="translate(-15943 -1976)" fill="#f8f8f7" stroke="#000" stroke-width="1"/>
      <g id="Ellipse_2" data-name="Ellipse 2" transform="translate(917 4449)" fill="#f8f8f7" stroke="#000" stroke-width="1">
        <circle cx="3" cy="3" r="3" stroke="none"/>
        <circle cx="3" cy="3" r="2.5" fill="none"/>
      </g>
      <g id="Ellipse_3" data-name="Ellipse 3" transform="translate(945 4599)" fill="#f8f8f7" stroke="#000" stroke-width="1">
        <circle cx="3" cy="3" r="3" stroke="none"/>
        <circle cx="3" cy="3" r="2.5" fill="none"/>
      </g>
      <g id="Ellipse_8" data-name="Ellipse 8" transform="translate(935 4419)" fill="#f8f8f7" stroke="#000" stroke-width="1">
        <circle cx="3" cy="3" r="3" stroke="none"/>
        <circle cx="3" cy="3" r="2.5" fill="none"/>
      </g>
      <g id="Ellipse_9" data-name="Ellipse 9" transform="translate(926 4552)" fill="#f8f8f7" stroke="#000" stroke-width="1">
        <circle cx="3" cy="3" r="3" stroke="none"/>
        <circle cx="3" cy="3" r="2.5" fill="none"/>
      </g>
      <g id="Ellipse_4" data-name="Ellipse 4" transform="translate(929 4630)" fill="#f8f8f7" stroke="#000" stroke-width="1">
        <circle cx="3" cy="3" r="3" stroke="none"/>
        <circle cx="3" cy="3" r="2.5" fill="none"/>
      </g>
      <g id="Ellipse_5" data-name="Ellipse 5" transform="translate(939 4733)" fill="#f8f8f7" stroke="#000" stroke-width="1">
        <circle cx="3" cy="3" r="3" stroke="none"/>
        <circle cx="3" cy="3" r="2.5" fill="none"/>
      </g>
      <g id="Ellipse_6" data-name="Ellipse 6" transform="translate(923 4782)" fill="#f8f8f7" stroke="#000" stroke-width="1">
        <circle cx="3" cy="3" r="3" stroke="none"/>
        <circle cx="3" cy="3" r="2.5" fill="none"/>
      </g>
      <g id="Ellipse_7" data-name="Ellipse 7" transform="translate(942 4771)" fill="#f8f8f7" stroke="#000" stroke-width="1">
        <circle cx="3" cy="3" r="3" stroke="none"/>
        <circle cx="3" cy="3" r="2.5" fill="none"/>
      </g>
      <g id="Ellipse_10" data-name="Ellipse 10" transform="translate(923 4430)" fill="#f8f8f7" stroke="#000" stroke-width="1">
        <circle cx="1.5" cy="1.5" r="1.5" stroke="none"/>
        <circle cx="1.5" cy="1.5" r="1" fill="none"/>
      </g>
      <g id="Ellipse_11" data-name="Ellipse 11" transform="translate(944 4460)" fill="#f8f8f7" stroke="#000" stroke-width="1">
        <circle cx="1.5" cy="1.5" r="1.5" stroke="none"/>
        <circle cx="1.5" cy="1.5" r="1" fill="none"/>
      </g>
      <g id="Ellipse_12" data-name="Ellipse 12" transform="translate(925 4463)" fill="#f8f8f7" stroke="#000" stroke-width="1">
        <circle cx="1.5" cy="1.5" r="1.5" stroke="none"/>
        <circle cx="1.5" cy="1.5" r="1" fill="none"/>
      </g>
      <g id="Ellipse_13" data-name="Ellipse 13" transform="translate(953 4487)" fill="#f8f8f7" stroke="#000" stroke-width="1">
        <circle cx="1.5" cy="1.5" r="1.5" stroke="none"/>
        <circle cx="1.5" cy="1.5" r="1" fill="none"/>
      </g>
      <g id="Ellipse_14" data-name="Ellipse 14" transform="translate(910 4501)" fill="#f8f8f7" stroke="#000" stroke-width="1">
        <circle cx="1.5" cy="1.5" r="1.5" stroke="none"/>
        <circle cx="1.5" cy="1.5" r="1" fill="none"/>
      </g>
      <g id="Ellipse_15" data-name="Ellipse 15" transform="translate(926 4519)" fill="#f8f8f7" stroke="#000" stroke-width="1">
        <circle cx="1.5" cy="1.5" r="1.5" stroke="none"/>
        <circle cx="1.5" cy="1.5" r="1" fill="none"/>
      </g>
      <g id="Ellipse_16" data-name="Ellipse 16" transform="translate(932 4511)" fill="#f8f8f7" stroke="#000" stroke-width="1">
        <circle cx="1.5" cy="1.5" r="1.5" stroke="none"/>
        <circle cx="1.5" cy="1.5" r="1" fill="none"/>
      </g>
      <g id="Ellipse_17" data-name="Ellipse 17" transform="translate(948 4547)" fill="#f8f8f7" stroke="#000" stroke-width="1">
        <circle cx="1.5" cy="1.5" r="1.5" stroke="none"/>
        <circle cx="1.5" cy="1.5" r="1" fill="none"/>
      </g>
      <g id="Ellipse_19" data-name="Ellipse 19" transform="translate(920 4542)" fill="#f8f8f7" stroke="#000" stroke-width="1">
        <circle cx="1.5" cy="1.5" r="1.5" stroke="none"/>
        <circle cx="1.5" cy="1.5" r="1" fill="none"/>
      </g>
      <g id="Ellipse_20" data-name="Ellipse 20" transform="translate(922 4595)" fill="#f8f8f7" stroke="#000" stroke-width="1">
        <circle cx="1.5" cy="1.5" r="1.5" stroke="none"/>
        <circle cx="1.5" cy="1.5" r="1" fill="none"/>
      </g>
      <g id="Ellipse_21" data-name="Ellipse 21" transform="translate(941 4576)" fill="#f8f8f7" stroke="#000" stroke-width="1">
        <circle cx="1.5" cy="1.5" r="1.5" stroke="none"/>
        <circle cx="1.5" cy="1.5" r="1" fill="none"/>
      </g>
      <g id="Ellipse_22" data-name="Ellipse 22" transform="translate(929 4581)" fill="#f8f8f7" stroke="#000" stroke-width="1">
        <circle cx="1.5" cy="1.5" r="1.5" stroke="none"/>
        <circle cx="1.5" cy="1.5" r="1" fill="none"/>
      </g>
      <g id="Ellipse_23" data-name="Ellipse 23" transform="translate(933 4616)" fill="#f8f8f7" stroke="#000" stroke-width="1">
        <circle cx="1.5" cy="1.5" r="1.5" stroke="none"/>
        <circle cx="1.5" cy="1.5" r="1" fill="none"/>
      </g>
      <g id="Ellipse_24" data-name="Ellipse 24" transform="translate(952 4613)" fill="#f8f8f7" stroke="#000" stroke-width="1">
        <circle cx="1.5" cy="1.5" r="1.5" stroke="none"/>
        <circle cx="1.5" cy="1.5" r="1" fill="none"/>
      </g>
      <g id="Ellipse_25" data-name="Ellipse 25" transform="translate(913 4633)" fill="#f8f8f7" stroke="#000" stroke-width="1">
        <circle cx="1.5" cy="1.5" r="1.5" stroke="none"/>
        <circle cx="1.5" cy="1.5" r="1" fill="none"/>
      </g>
      <g id="Ellipse_26" data-name="Ellipse 26" transform="translate(925 4660)" fill="#f8f8f7" stroke="#000" stroke-width="1">
        <circle cx="1.5" cy="1.5" r="1.5" stroke="none"/>
        <circle cx="1.5" cy="1.5" r="1" fill="none"/>
      </g>
      <g id="Ellipse_27" data-name="Ellipse 27" transform="translate(938 4642)" fill="#f8f8f7" stroke="#000" stroke-width="1">
        <circle cx="1.5" cy="1.5" r="1.5" stroke="none"/>
        <circle cx="1.5" cy="1.5" r="1" fill="none"/>
      </g>
      <g id="Ellipse_28" data-name="Ellipse 28" transform="translate(940 4693)" fill="#f8f8f7" stroke="#000" stroke-width="1">
        <circle cx="1.5" cy="1.5" r="1.5" stroke="none"/>
        <circle cx="1.5" cy="1.5" r="1" fill="none"/>
      </g>
      <g id="Ellipse_29" data-name="Ellipse 29" transform="translate(920 4747)" fill="#f8f8f7" stroke="#000" stroke-width="1">
        <circle cx="1.5" cy="1.5" r="1.5" stroke="none"/>
        <circle cx="1.5" cy="1.5" r="1" fill="none"/>
      </g>
      <g id="Ellipse_30" data-name="Ellipse 30" transform="translate(954 4733)" fill="#f8f8f7" stroke="#000" stroke-width="1">
        <circle cx="1.5" cy="1.5" r="1.5" stroke="none"/>
        <circle cx="1.5" cy="1.5" r="1" fill="none"/>
      </g>
      <g id="Ellipse_31" data-name="Ellipse 31" transform="translate(944 4747)" fill="#f8f8f7" stroke="#000" stroke-width="1">
        <circle cx="1.5" cy="1.5" r="1.5" stroke="none"/>
        <circle cx="1.5" cy="1.5" r="1" fill="none"/>
      </g>
      <g id="Ellipse_32" data-name="Ellipse 32" transform="translate(932 4777)" fill="#f8f8f7" stroke="#000" stroke-width="1">
        <circle cx="1.5" cy="1.5" r="1.5" stroke="none"/>
        <circle cx="1.5" cy="1.5" r="1" fill="none"/>
      </g>
      <g id="Ellipse_33" data-name="Ellipse 33" transform="translate(922 4768)" fill="#f8f8f7" stroke="#000" stroke-width="1">
        <circle cx="1.5" cy="1.5" r="1.5" stroke="none"/>
        <circle cx="1.5" cy="1.5" r="1" fill="none"/>
      </g>
      <g id="Ellipse_34" data-name="Ellipse 34" transform="translate(919 4714)" fill="#f8f8f7" stroke="#000" stroke-width="1">
        <circle cx="1.5" cy="1.5" r="1.5" stroke="none"/>
        <circle cx="1.5" cy="1.5" r="1" fill="none"/>
      </g>
      <g id="Ellipse_35" data-name="Ellipse 35" transform="translate(917 4803)" fill="#f8f8f7" stroke="#000" stroke-width="1">
        <circle cx="1.5" cy="1.5" r="1.5" stroke="none"/>
        <circle cx="1.5" cy="1.5" r="1" fill="none"/>
      </g>
      <g id="Ellipse_36" data-name="Ellipse 36" transform="translate(937 4798)" fill="#f8f8f7" stroke="#000" stroke-width="1">
        <circle cx="1.5" cy="1.5" r="1.5" stroke="none"/>
        <circle cx="1.5" cy="1.5" r="1" fill="none"/>
      </g>
      <g id="Ellipse_37" data-name="Ellipse 37" transform="translate(944 4803)" fill="#f8f8f7" stroke="#000" stroke-width="1">
        <circle cx="1.5" cy="1.5" r="1.5" stroke="none"/>
        <circle cx="1.5" cy="1.5" r="1" fill="none"/>
      </g>
      <g id="Ellipse_18" data-name="Ellipse 18" transform="translate(942 4527)" fill="#f8f8f7" stroke="#000" stroke-width="1">
        <circle cx="1.5" cy="1.5" r="1.5" stroke="none"/>
        <circle cx="1.5" cy="1.5" r="1" fill="none"/>
      </g>
      <g id="Ellipse_38" data-name="Ellipse 38" transform="translate(950 4717)" fill="#f8f8f7" stroke="#000" stroke-width="1">
        <circle cx="2" cy="2" r="2" stroke="none"/>
        <circle cx="2" cy="2" r="1.5" fill="none"/>
      </g>
      <g id="Ellipse_40" data-name="Ellipse 40" transform="translate(913 4689)" fill="#f8f8f7" stroke="#000" stroke-width="1">
        <circle cx="2" cy="2" r="2" stroke="none"/>
        <circle cx="2" cy="2" r="1.5" fill="none"/>
      </g>
      <g id="Ellipse_41" data-name="Ellipse 41" transform="translate(944 4635)" fill="#f8f8f7" stroke="#000" stroke-width="1">
        <circle cx="2" cy="2" r="2" stroke="none"/>
        <circle cx="2" cy="2" r="1.5" fill="none"/>
      </g>
      <g id="Ellipse_42" data-name="Ellipse 42" transform="translate(940 4663)" fill="#f8f8f7" stroke="#000" stroke-width="1">
        <circle cx="2" cy="2" r="2" stroke="none"/>
        <circle cx="2" cy="2" r="1.5" fill="none"/>
      </g>
      <g id="Ellipse_43" data-name="Ellipse 43" transform="translate(949 4510)" fill="#f8f8f7" stroke="#000" stroke-width="1">
        <circle cx="2" cy="2" r="2" stroke="none"/>
        <circle cx="2" cy="2" r="1.5" fill="none"/>
      </g>
      <g id="Ellipse_44" data-name="Ellipse 44" transform="translate(921 4509)" fill="#f8f8f7" stroke="#000" stroke-width="1">
        <circle cx="2" cy="2" r="2" stroke="none"/>
        <circle cx="2" cy="2" r="1.5" fill="none"/>
      </g>
      <g id="Ellipse_45" data-name="Ellipse 45" transform="translate(924 4415)" fill="#f8f8f7" stroke="#000" stroke-width="1">
        <circle cx="2" cy="2" r="2" stroke="none"/>
        <circle cx="2" cy="2" r="1.5" fill="none"/>
      </g>
      <g id="Ellipse_46" data-name="Ellipse 46" transform="translate(952 4445)" fill="#f8f8f7" stroke="#000" stroke-width="1">
        <circle cx="2" cy="2" r="2" stroke="none"/>
        <circle cx="2" cy="2" r="1.5" fill="none"/>
      </g>
      <g id="Ellipse_47" data-name="Ellipse 47" transform="translate(913 4477)" fill="#f8f8f7" stroke="#000" stroke-width="1">
        <circle cx="2" cy="2" r="2" stroke="none"/>
        <circle cx="2" cy="2" r="1.5" fill="none"/>
      </g>
      <g id="Ellipse_39" data-name="Ellipse 39" transform="translate(936 4757)" fill="#f8f8f7" stroke="#000" stroke-width="1">
        <circle cx="2" cy="2" r="2" stroke="none"/>
        <circle cx="2" cy="2" r="1.5" fill="none"/>
      </g>
      <text id="_" data-name="↑↓" transform="translate(728 4623)" font-size="13" font-family="LucidaGrande, Lucida Grande"><tspan x="0" y="0">↑↓</tspan></text>
      <line id="Linie_55" data-name="Linie 55" y2="27" transform="translate(810.5 4941.5)" fill="none" stroke="#000" stroke-linecap="round" stroke-width="1"/>
      <line id="Linie_57" data-name="Linie 57" y2="27" transform="translate(704.5 4941.5)" fill="none" stroke="#000" stroke-linecap="round" stroke-width="1"/>
      <line id="Linie_59" data-name="Linie 59" y2="27" transform="translate(591.5 4941.5)" fill="none" stroke="#000" stroke-linecap="round" stroke-width="1"/>
      <line id="Linie_56" data-name="Linie 56" y2="27" transform="translate(815.5 4941.5)" fill="none" stroke="#000" stroke-linecap="round" stroke-width="1"/>
      <line id="Linie_58" data-name="Linie 58" y2="27" transform="translate(709.5 4941.5)" fill="none" stroke="#000" stroke-linecap="round" stroke-width="1"/>
      <line id="Linie_60" data-name="Linie 60" y2="27" transform="translate(596.5 4941.5)" fill="none" stroke="#000" stroke-linecap="round" stroke-width="1"/>
    </g>
    <path id="_2" data-name="2" d="M1.465-14.912H4.57a3.987,3.987,0,0,1,4.248-3.911,3.46,3.46,0,0,1,3.706,3.472c0,1.655-.645,2.739-3.428,5.581L1.641-2.256V0H16.1V-2.769H6.035v-.073l4.8-4.819c3.779-3.779,4.922-5.464,4.922-7.9,0-3.325-2.8-5.977-6.943-5.977C4.57-21.533,1.465-18.75,1.465-14.912Z" transform="translate(734 5948)"/>
    <path id="_5" data-name="5" d="M9.2.4c4.57,0,7.764-3,7.764-7.324A6.729,6.729,0,0,0,10-13.9a5.587,5.587,0,0,0-4.79,2.227H5.142l.645-6.694h9.946v-2.769H3.135L2.095-8.95H4.966a4.687,4.687,0,0,1,4.292-2.358,4.308,4.308,0,0,1,4.5,4.468,4.314,4.314,0,0,1-4.526,4.5,4.11,4.11,0,0,1-4.38-3.53H1.714C1.9-2.183,4.98.4,9.2.4Z" transform="translate(1341 5773)"/>
    <path id="_1" data-name="1" d="M6.987,0H10.2V-21.138H6.958L1.392-17.183v3.105l5.522-3.809h.073Z" transform="translate(1002 5626)"/>
    <path id="_4" data-name="4" d="M11.689,0h3.149V-4.2h2.915V-6.958H14.839v-14.18H10.093A149.867,149.867,0,0,0,1.113-7.061V-4.2H11.689ZM4.16-7C5.845-10,8-13.345,11.66-18.589h.059V-6.914H4.16Z" transform="translate(1472 5898)"/>
    <path id="_3" data-name="3" d="M6.226-9.624H8.789c2.827,0,4.57,1.348,4.556,3.765C13.33-3.809,11.6-2.344,9.023-2.344c-2.651,0-4.453-1.333-4.614-3.4H1.26C1.465-2.109,4.5.4,9.023.4c4.409,0,7.661-2.534,7.661-6.255,0-2.959-2.08-4.849-5.186-5.127v-.073c2.593-.542,4.453-2.314,4.453-4.966,0-3.149-2.651-5.508-6.958-5.508-4.131,0-7.017,2.358-7.28,6.05H4.79c.161-2.109,1.86-3.354,4.2-3.354,2.49,0,3.765,1.289,3.765,3.267s-1.641,3.4-4.058,3.4H6.226Z" transform="translate(1173 6351)"/>
    <path id="Linie_63" data-name="Linie 63" d="M0,0H125" transform="translate(757.5 5937.5)" fill="none" stroke="#707070" stroke-width="1"/>
    <path id="Linie_67" data-name="Linie 67" d="M0,0H125" transform="translate(1208.5 5762.5)" fill="none" stroke="#707070" stroke-width="1"/>
    <path id="Linie_64" data-name="Linie 64" d="M0,0V268" transform="translate(1010.5 5636.5)" fill="none" stroke="#707070" stroke-width="1"/>
    <path id="Linie_66" data-name="Linie 66" d="M0,0V37" transform="translate(1481.5 5908.5)" fill="none" stroke="#707070" stroke-width="1"/>
    <path id="Linie_65" data-name="Linie 65" d="M0,0V31" transform="translate(1181.5 6290.5)" fill="none" stroke="#707070" stroke-width="1"/>
  </g>
</svg>
