<svg xmlns="http://www.w3.org/2000/svg" xmlns:xlink="http://www.w3.org/1999/xlink" width="30" height="30" viewBox="0 0 30 30"><defs><style>.a{clip-path:url(#a);}.b{stroke:#000;}</style><clipPath id="a"><path d="M0,0H30V30H0Z"/></clipPath></defs><g transform="translate(-424 -537)"><g class="a" transform="translate(424 537)"><path class="b" d="M24.055-22.151a.129.129,0,0,0-.153-.017L18.445-19.55v-2.108a2.888,2.888,0,0,0-2.89-2.89H2.89A2.888,2.888,0,0,0,0-21.658v9.316a2.888,2.888,0,0,0,2.89,2.89H15.555a2.888,2.888,0,0,0,2.89-2.89v-2.125L23.9-11.832a.1.1,0,0,0,.068.017.13.13,0,0,0,.085-.034.151.151,0,0,0,.085-.136v-10.03A.151.151,0,0,0,24.055-22.151Zm-5.95,9.809a2.547,2.547,0,0,1-2.55,2.55H2.89a2.547,2.547,0,0,1-2.55-2.55v-9.316a2.547,2.547,0,0,1,2.55-2.55H15.555a2.547,2.547,0,0,1,2.55,2.55Zm5.695.085-5.355-2.584v-4.335L23.8-21.743Z" transform="translate(0.5 31.5)"/></g></g></svg>