<svg xmlns="http://www.w3.org/2000/svg" width="32.4" height="22.835" viewBox="0 0 32.4 22.835"><defs><style>.a{stroke:#000;stroke-width:0.4px;}</style></defs><g transform="translate(-24 -30.4)"><path class="a" d="M55.7,53.035a.239.239,0,0,0,.186-.058.469.469,0,0,0,.248-.231c0-.058.062-.116.062-.173V31.063a.2.2,0,0,0-.062-.173.469.469,0,0,0-.248-.231c-.062,0-.124-.058-.186-.058H24.7a.239.239,0,0,0-.186.058.469.469,0,0,0-.248.231c0,.058-.062.116-.062.173v21.51a.2.2,0,0,0,.062.173.469.469,0,0,0,.248.231c.062,0,.124.058.186.058ZM40.2,44.882,25.874,31.525H54.588Zm-.372.983a.548.548,0,0,0,.372.116.926.926,0,0,0,.372-.116l3.659-3.412L54.588,52.11H25.874l10.357-9.656Zm5.023-4.048,10.357-9.656V51.474Zm-9.3,0L25.192,51.474V32.161Z" transform="translate(0 0)"/></g></svg>