<svg xmlns="http://www.w3.org/2000/svg" width="128" height="132.462" viewBox="0 0 128 132.462"><g transform="translate(-17.29 -26.702)"><path d="M33.912,87.64a5.3,5.3,0,1,0-5.3,5.3A5.305,5.305,0,0,0,33.912,87.64Zm-5.3-3.733a3.694,3.694,0,0,1,2.36.865.78.78,0,0,0-.785.184l-.554.556-1.019,1.021L27.6,85.511l-.554-.556a.773.773,0,0,0-.785-.184A3.687,3.687,0,0,1,28.613,83.907Zm0,7.467a3.735,3.735,0,0,1-3.731-3.733,3.7,3.7,0,0,1,.865-2.36.78.78,0,0,0,.184.785l2.129,2.129a.784.784,0,0,0,1.107,0L31.3,86.065a.773.773,0,0,0,.184-.785,3.7,3.7,0,0,1,.865,2.36A3.736,3.736,0,0,1,28.613,91.373ZM144.59,157.6l-6.073-.652v-61h.722a.784.784,0,0,0,.783-.783V92.156a.784.784,0,0,0-.783-.783h-.722V87.64a.784.784,0,0,0-.783-.783h-1.473V74.1a.784.784,0,0,0-.783-.783h-3.009a.784.784,0,0,0-.783.783v.722H117.449V73.343a.784.784,0,0,0-.783-.783H86.558a.784.784,0,0,0-.783.783v1.475H57.994V74.1a.784.784,0,0,0-.783-.783H54.2a.784.784,0,0,0-.783.783V86.858H51.942a.784.784,0,0,0-.783.783v3.733h-.724a.784.784,0,0,0-.783.783v3.009a.784.784,0,0,0,.783.783h.724V140.7a8.193,8.193,0,0,0-11.227.667V45.5a.785.785,0,0,0-1.338-.554l-2.782,2.78h-1.9V39.475a.8.8,0,0,0-.041-.205c-.006-.023,0-.047-.008-.07L29.345,27.16a.817.817,0,0,0-1.467,0L23.362,39.2c-.008.023,0,.047-.008.07a.71.71,0,0,0-.041.2V47.72h-1.9l-2.78-2.78a.793.793,0,0,0-.855-.168.782.782,0,0,0-.483.722V158.381a.784.784,0,0,0,.783.783H144.508a.782.782,0,0,0,.082-1.559ZM133.251,86.136V74.877h1.442V86.856h-1.442Zm-15.806-9.752h14.237v1.442H117.447V76.384Zm13.517,7.463a2.228,2.228,0,0,0-.722.147v-.869a.722.722,0,0,1,1.444,0v.869A2.228,2.228,0,0,0,130.962,83.846Zm.722,2.289v.72H130.24v-.72a.722.722,0,1,1,1.444,0Zm-.722-5.3a2.228,2.228,0,0,0-.722.147V79.393h1.444v1.591A2.228,2.228,0,0,0,130.962,80.837Zm-3.011,3.009a2.217,2.217,0,0,0-.72.147v-.869a.721.721,0,0,1,1.442,0v.869A2.239,2.239,0,0,0,127.951,83.846Zm.722,2.289v.72h-1.442v-.72a.721.721,0,1,1,1.442,0Zm-.722-5.3a2.267,2.267,0,0,0-.72.145V79.391h1.442v1.591A2.29,2.29,0,0,0,127.951,80.837Zm-3.009,3.009a2.228,2.228,0,0,0-.722.147v-.869a.722.722,0,0,1,1.444,0v.869A2.239,2.239,0,0,0,124.941,83.846Zm.722,2.289v.72h-1.444v-.72a.722.722,0,0,1,1.444,0Zm-.722-5.3a2.228,2.228,0,0,0-.722.147V79.393h1.444v1.591A2.238,2.238,0,0,0,124.941,80.837Zm-3.011,3.009a2.228,2.228,0,0,0-.722.147v-.869a.721.721,0,0,1,1.442,0v.869A2.206,2.206,0,0,0,121.93,83.846Zm.722,2.289v.72h-1.444v-.72a.722.722,0,1,1,1.444,0Zm-.722-5.3a2.228,2.228,0,0,0-.722.147V79.393h1.442v1.591A2.206,2.206,0,0,0,121.93,80.837Zm-3.011,3.009a2.216,2.216,0,0,0-.72.147v-.869a.721.721,0,0,1,1.442,0v.869A2.218,2.218,0,0,0,118.919,83.846Zm.724,2.289v.72H118.2v-.72a.722.722,0,1,1,1.444,0Zm-.724-5.3a2.267,2.267,0,0,0-.72.145V79.391h1.444v1.591A2.291,2.291,0,0,0,118.919,80.837Zm-5.234-6.713h2.2v7.382h-2.2Zm2.947,12.043v.691h-1.444v-.691Zm-2.947-3.092h2.2V84.6h-2.2Zm-1.507,3.092h1.442v.691h-1.442ZM109.92,74.124h2.2v7.382h-2.2Zm0,8.952h2.2V84.6h-2.2Zm-.753,3.092h1.444v.691h-1.444v-.691Zm-3.009-7.559V74.124h2.2v7.382h-2.2Zm0,4.467h2.2V84.6h-2.2Zm0,3.092H107.6v.691h-1.442Zm-3.763-12.043h2.2v7.382h-2.2Zm0,8.952h2.2V84.6h-2.2Zm2.2,3.092v.691h-1.442v-.691ZM98.632,74.124h2.2v7.382h-2.2Zm2.949,12.043v.691h-1.444v-.691Zm-2.949-3.092h2.2V84.6h-2.2Zm-1.5,3.092H98.57v.691H97.128Zm-2.26-12.043h2.2v7.382h-2.2Zm0,8.952h2.2V84.6h-2.2Zm-.749,3.092H95.56v.691H94.118Zm-3.011-7.559V74.124h2.2v7.382h-2.2Zm0,4.467h2.2V84.6h-2.2Zm0,3.092h1.444v.691H91.107ZM87.344,74.124h2.2v7.382h-2.2Zm0,8.952h2.2V84.6h-2.2Zm2.2,3.092v.691H88.1v-.691Zm-3.755-.749a.777.777,0,0,0,.745.742v.7H85.086v-.72A.717.717,0,0,1,85.785,85.417Zm-.008-3.007v1.442a2.216,2.216,0,0,0-.693.141v-.869A.719.719,0,0,1,85.777,82.41Zm-.693-1.426V79.393h.693v1.45A2.273,2.273,0,0,0,85.084,80.984Zm-27.09-4.6H85.777v1.442H57.992V76.384Zm24.8,7.463a2.228,2.228,0,0,0-.722.147v-.869a.721.721,0,0,1,1.442,0v.869A2.206,2.206,0,0,0,82.8,83.846Zm.722,2.289v.72H82.075v-.72a.722.722,0,1,1,1.444,0Zm-.722-5.3a2.228,2.228,0,0,0-.722.147V79.393h1.442v1.591A2.206,2.206,0,0,0,82.8,80.837Zm-3.011,3.009a2.217,2.217,0,0,0-.72.147v-.869a.721.721,0,0,1,1.442,0v.869A2.218,2.218,0,0,0,79.786,83.846Zm.724,2.289v.72H79.066v-.72a.722.722,0,1,1,1.444,0Zm-.724-5.3a2.267,2.267,0,0,0-.72.145V79.391H80.51v1.591A2.291,2.291,0,0,0,79.786,80.837Zm-3.009,3.009a2.228,2.228,0,0,0-.722.147v-.869a.722.722,0,0,1,1.444,0v.869A2.218,2.218,0,0,0,76.776,83.846Zm.722,2.289v.72H76.054v-.72a.722.722,0,1,1,1.444,0Zm-.722-5.3a2.228,2.228,0,0,0-.722.147V79.393H77.5v1.591A2.217,2.217,0,0,0,76.776,80.837Zm-3.009,3.009a2.228,2.228,0,0,0-.722.147v-.869a.721.721,0,0,1,1.442,0v.869A2.206,2.206,0,0,0,73.767,83.846Zm.72,2.289v.72H73.045v-.72a.721.721,0,1,1,1.442,0Zm-.72-5.3a2.228,2.228,0,0,0-.722.147V79.393h1.442v1.591A2.206,2.206,0,0,0,73.767,80.837Zm-3.011,3.009a2.228,2.228,0,0,0-.722.147v-.869a.722.722,0,0,1,1.444,0v.869A2.218,2.218,0,0,0,70.756,83.846Zm.722,2.289v.72H70.034v-.72a.722.722,0,1,1,1.444,0Zm-.722-5.3a2.228,2.228,0,0,0-.722.147V79.393h1.444v1.591A2.217,2.217,0,0,0,70.756,80.837Zm-3.009,3.009a2.228,2.228,0,0,0-.722.147v-.869a.721.721,0,0,1,1.442,0v.869A2.206,2.206,0,0,0,67.746,83.846Zm.72,2.289v.72H67.024v-.72a.721.721,0,1,1,1.442,0Zm-.72-5.3a2.228,2.228,0,0,0-.722.147V79.393h1.442v1.591A2.206,2.206,0,0,0,67.746,80.837Zm-3.011,3.009a2.217,2.217,0,0,0-.72.147v-.869a.721.721,0,0,1,1.442,0v.869A2.218,2.218,0,0,0,64.735,83.846Zm.722,2.289v.72H64.015v-.72a.721.721,0,1,1,1.442,0Zm-.722-5.3a2.267,2.267,0,0,0-.72.145V79.391h1.442v1.591A2.268,2.268,0,0,0,64.735,80.837Zm-3.009,3.009a2.228,2.228,0,0,0-.722.147v-.869a.722.722,0,0,1,1.444,0v.869A2.228,2.228,0,0,0,61.726,83.846Zm.722,2.289v.72H61v-.72a.722.722,0,1,1,1.444,0Zm-.722-5.3a2.228,2.228,0,0,0-.722.147V79.393h1.444v1.591A2.228,2.228,0,0,0,61.726,80.837Zm-3.731-1.444h1.442v1.591a1.856,1.856,0,0,0-1.442,0Zm0,3.731a.721.721,0,0,1,1.442,0v.869a1.845,1.845,0,0,0-1.442,0Zm0,3.011a.721.721,0,1,1,1.442,0v.72H57.994ZM54.985,74.877h1.442V86.856H54.985Zm-2.26,13.546h2.2v.722a.784.784,0,0,0,.783.783H57.21a.784.784,0,0,0,.783-.783v-.722h1.442v.722a.784.784,0,0,0,.783.783h1.509a.784.784,0,0,0,.783-.783v-.722H63.95v.722a.784.784,0,0,0,.783.783H66.24a.784.784,0,0,0,.783-.783v-.722h1.442v.722a.784.784,0,0,0,.783.783h1.507a.784.784,0,0,0,.783-.783v-.722H72.98v.722a.784.784,0,0,0,.783.783h1.5a.784.784,0,0,0,.783-.783v-.722h1.444v.722a.784.784,0,0,0,.783.783h1.5a.784.784,0,0,0,.783-.783v-.722h1.45v.722a.784.784,0,0,0,.783.783h1.5a.784.784,0,0,0,.783-.783v-.722h1.444v.722a.784.784,0,0,0,.783.783h1.5a.784.784,0,0,0,.783-.783v-.722h1.444v.722a.784.784,0,0,0,.783.783h1.507a.784.784,0,0,0,.783-.783v-.722h1.442v.722a.784.784,0,0,0,.783.783h1.507a.784.784,0,0,0,.783-.783v-.722h1.448v.722a.784.784,0,0,0,.783.783h1.507a.784.784,0,0,0,.783-.783v-.722h1.442v.722a.784.784,0,0,0,.783.783h1.507a.784.784,0,0,0,.783-.783v-.722H109.1v.722a.784.784,0,0,0,.783.783h1.507a.784.784,0,0,0,.783-.783v-.722h1.442v.722a.784.784,0,0,0,.783.783h1.507a.784.784,0,0,0,.783-.783v-.722h1.442v.722a.784.784,0,0,0,.783.783h1.511a.784.784,0,0,0,.783-.783v-.722h1.442v.722a.784.784,0,0,0,.783.783h1.507a.784.784,0,0,0,.783-.783v-.722h1.442v.722a.784.784,0,0,0,.783.783h1.507a.784.784,0,0,0,.783-.783v-.722h1.444v.722a.784.784,0,0,0,.783.783h1.5a.784.784,0,0,0,.783-.783v-.722h2.2v2.951H52.725Zm-6.8,51.928a6.749,6.749,0,0,1,6.743,6.741,6.578,6.578,0,0,1-.067.655l-13.341-1.428A6.727,6.727,0,0,1,45.922,140.351Zm-9-91.519,1.444-1.446v3.35H36.921ZM28.613,29.664,32,38.692H25.226Zm-3.731,10.6h7.463V41.7H24.882Zm0,3.011h7.463v4.451H24.882ZM21.871,49.29H35.356v1.444H21.871Zm-3.009-1.9L20.3,48.83v1.9H18.861Zm0,4.915H38.367v1.442H18.861Zm0,3.009H38.367v4.455H18.859V55.31Zm19.5,6.021V71.807H36.921V61.331Zm-3.011,0V71.807H33.912V61.331Zm-3.009,0V71.807H30.9V61.331Zm-3.011,0V71.807H27.891V61.331Zm-3.009,0V71.807H24.882V61.331Zm-3.009,0V71.807H21.871V61.331Zm-4.453,0H20.3V71.807H18.861Zm0,12.043H38.367v1.442H18.859V73.374Zm19.5,3.009v67.3a8.237,8.237,0,0,0-.591,1.81,8.248,8.248,0,0,0-.853-1.045V76.384Zm-7.5,66.976a6.709,6.709,0,0,1,5.3,2.628l-9.607-1.029A6.68,6.68,0,0,1,30.869,143.36Zm-6.295,1.385-2.7-.29V76.384H35.356v66.746a8.2,8.2,0,0,0-10.781,1.616ZM18.861,76.384H20.3v67.9l-1.442-.155ZM129.426,157.6H18.857V145.708l111,11.891ZM62.855,147.123a4.86,4.86,0,0,1,4.037,2.156l-7.4-.792A4.835,4.835,0,0,1,62.855,147.123Zm-1.1-1.456v-.047h.475C62.072,145.636,61.912,145.639,61.757,145.667Zm8.236-.047h14.28v1.442H66.94a6.363,6.363,0,0,0-3.459-1.442h6.512Zm-2.3-1.567v-2.015l1.518-.675v2.69Zm6.046-7.6v1.826l-.4-.18h0a.764.764,0,0,0-.315-.068.778.778,0,0,0-.315.068h0l-1.912.849v-2.5h2.951Zm-2.949-1.567v-1.309h2.949v1.309Zm1.444,5.132v4.033H70.775v-3.387Zm1.567,4.035V140.02l1.442.642v3.393H73.8Zm4.451-9.167H75.3v-1.309H78.25Zm.076,7.146v2.021H76.808v-2.7Zm-.076-5.578v3.833L75.3,138.975v-2.522Zm1.644,7.6v-1.325l2.978,1.325Zm4.377,4.577v2.512l-15.5-1.659a6.417,6.417,0,0,0-.464-.853H84.27Zm-18.148-4.577H63.154l2.968-1.319v1.319ZM64.7,134.886H61.755v-1.309H64.7Zm0,1.567v4.588H61.755v-4.588Zm24.225,15.188h14.908v1.442h-.72a.772.772,0,0,0-.25.051Zm21.625-6.021H127.92v1.442H105.4V145.62Zm-3.749-1.567,2.966-1.319v1.319Zm7.568-7.6v2.524l-2.949,1.311v-3.833h2.949Zm-2.949-1.567v-1.309h2.949v1.309Zm1.432,6.477v2.69h-1.518v-2.015Zm1.567,2.69v-3.385l1.456-.648v4.033Zm4.465-7.6v2.495l-1.91-.849h0a.764.764,0,0,0-.315-.068.779.779,0,0,0-.315.068h0l-.405.18v-1.828h2.951Zm-2.949-1.567v-1.309h2.949v1.309Zm2.949,5.774v3.393h-1.442V140.02Zm1.567,3.393v-2.7l1.518.675v2.021Zm7.463-7.6v4.588h-2.949v-4.588Zm-2.949-1.567v-1.309h2.949v1.309Zm1.55,9.167h-2.978v-1.325Zm2.906,10.6v1.329l-12.407-1.329Zm-1.507-6.021v4.453H105.4v-4.453Zm9.03,8.155-5.958-.638v-2.281a.784.784,0,0,0-.783-.783h-.722v-1.442h7.463Zm0-6.711h-7.463v-4.455h.722a.782.782,0,0,0,.319-1.5l-3.4-1.512h6.1a.784.784,0,0,0,.783-.783v-9.032a.784.784,0,0,0-.783-.783h-9.034a.784.784,0,0,0-.783.783v8.163l-2.949-1.311v-6.852a.784.784,0,0,0-.783-.783h-9.03a.784.784,0,0,0-.783.783v8.191l-3.258,1.448a.77.77,0,0,0,.309-.609v-9.032a.784.784,0,0,0-.783-.783H97.1a.784.784,0,0,0-.783.783v9.032a.784.784,0,0,0,.783.783h9.032a.686.686,0,0,0,.143-.029l-3.469,1.542a.779.779,0,0,0-.448.877.787.787,0,0,0,.767.62h.72v4.455h-18v-4.455h.722a.782.782,0,0,0,.319-1.5l-3.469-1.542a.713.713,0,0,0,.143.029h9.032a.784.784,0,0,0,.783-.783v-9.032a.784.784,0,0,0-.783-.783H83.556a.784.784,0,0,0-.783.783v9.032a.773.773,0,0,0,.309.609l-3.26-1.45v-8.189a.784.784,0,0,0-.783-.783H70a.784.784,0,0,0-.783.783v6.852l-2.949,1.309v-8.163a.784.784,0,0,0-.783-.783H56.456a.784.784,0,0,0-.783.783v9.032a.784.784,0,0,0,.783.783h6.1l-3.4,1.512A.779.779,0,0,0,58.7,145a.787.787,0,0,0,.767.62h.722v.532a6.459,6.459,0,0,0-2.575,2.133l-3.467-.372a8.115,8.115,0,0,0,.082-.822,8.25,8.25,0,0,0-1.507-4.745V129.057h84.224Zm-4.514-13.62v4.588h-2.949v-4.588Zm-2.949-1.567v-1.309h2.949v1.309Zm-27.092,0v-1.309h2.949v1.309Zm2.949,1.567v4.588h-2.949v-4.588Zm-7.465-1.567v-1.309h2.949v1.309Zm2.949,1.567v4.588H97.879v-4.588Zm-13.546,0v4.588H84.333v-4.588Zm-2.947-1.567v-1.309h2.949v1.309Zm7.463,1.567v4.588H88.849v-4.588Zm-2.949-1.567v-1.309H91.8v1.309Zm-31.608,0v-1.309H60.19v1.309Zm2.949,1.567v4.588H57.241v-4.588Zm76.76-8.958H52.725v-1.442h84.226V127.5Zm-84.224-3.009V98.959h1.442v25.529H52.725Zm5.958-22.515v19.5H55.734v-19.5ZM55.734,100.4V98.959h2.949V100.4Zm2.949,22.637v1.444H55.734V123.04Zm1.567,1.446V98.959H64.7v25.529H60.25Zm8.969-22.515v19.5H66.271v-19.5ZM66.271,100.4V98.959H69.22V100.4ZM69.22,123.04v1.444H66.271V123.04Zm6.081-9.226V109.43H78.25v4.385Zm2.949,1.565v4.59H75.3v-4.59ZM75.3,107.862v-4.256H78.25v4.256Zm-.783-5.954H70.787V98.959H78.25v2.949H74.518Zm-.783,1.7v4.256H70.787v-4.256Zm0,5.821v4.385H70.787v-4.385Zm0,5.952v4.59H70.787v-4.59Zm.783,6.158H78.25v2.949H70.787v-2.949Zm8.249-19.567v19.5H79.817v-19.5ZM79.817,100.4V98.959h2.951V100.4Zm2.951,22.637v1.444H79.817V123.04Zm6.081-9.226V109.43H91.8v4.385ZM91.8,115.38v4.59H88.849v-4.59Zm-2.949-7.517v-4.256H91.8v4.256Zm-.783-5.954H84.335V98.959H91.8v2.949H88.066Zm-.785,1.7v4.256H84.333v-4.256Zm0,5.821v4.385H84.333v-4.385Zm0,5.952v4.59H84.333v-4.59Zm.785,6.158H91.8v2.949H84.335v-2.949Zm8.247-19.567v19.5H93.365v-19.5ZM93.365,100.4V98.959h2.949V100.4Zm2.949,22.637v1.444H93.365V123.04Zm6.081-9.226V109.43h2.949v4.385Zm2.949,1.565v4.59h-2.949v-4.59Zm-2.949-7.517v-4.256h2.949v4.256Zm-.783-5.954H97.881V98.959h7.463v2.949h-3.731Zm-.785,1.7v4.256H97.879v-4.256Zm0,5.821v4.385H97.879v-4.385Zm0,5.952v4.59H97.879v-4.59Zm.785,6.158h3.731v2.949H97.881v-2.949Zm8.247-19.567v19.5h-2.949v-19.5Zm-2.949-1.567V98.959h2.949V100.4Zm2.949,22.637v1.444h-2.949V123.04Zm6.081-9.226V109.43h2.949v4.385Zm2.949,1.565v4.59h-2.949v-4.59Zm-2.949-7.517v-4.256h2.949v4.256Zm-.783-5.954h-3.733V98.959h7.463v2.949h-3.729Zm-.785,1.7v4.256h-2.949v-4.256Zm0,5.821v4.385h-2.949v-4.385Zm0,5.952v4.59h-2.949v-4.59Zm.785,6.158h3.731v2.949h-7.465v-2.949Zm8.245-19.567v19.5h-2.949v-19.5Zm-2.947-1.567V98.959h2.949V100.4ZM123.4,123.04v1.444h-2.949V123.04Zm1.567,1.446V98.959h4.455v25.529h-4.455Zm8.969-22.515v19.5h-2.949v-19.5Zm-2.949-1.567V98.959h2.949V100.4Zm2.949,22.637v1.444h-2.949V123.04Zm3.009,1.446h-1.442V98.959h1.442Zm0-27.094H52.725V95.95h84.224Zm1.507-3.009H51.22V92.941h87.236v1.442Z" transform="translate(0 0)"/></g></svg>