<svg xmlns="http://www.w3.org/2000/svg" width="37.849" height="42.515" viewBox="0 0 37.849 42.515"><defs><style>.a{fill:#cbcbcb;}</style></defs><path class="a" d="M32,9.23a1.769,1.769,0,0,0-1.783,1.741v9.244a.752.752,0,0,1-1.5,0V6.577a1.783,1.783,0,0,0-3.566,0V17.291a.752.752,0,0,1-1.5,0V5.116a1.783,1.783,0,0,0-3.566,0V18.753a.752.752,0,0,1-1.5,0V8.039a1.783,1.783,0,0,0-3.566,0V26.484L12.664,24.49c-2.205-1.918-4.073-2.738-5.593-1.327-1.022,1,.583,2.611,2.264,4.5,1.622,1.817,5.915,7.765,9.573,9.911a6.6,6.6,0,0,0,3.43.963h4.833c3.9,0,6.624-3.2,6.624-7.875V10.971A1.782,1.782,0,0,0,32,9.23Z" transform="translate(7.507 -5.57) rotate(21)"/></svg>