<svg xmlns="http://www.w3.org/2000/svg" xmlns:xlink="http://www.w3.org/1999/xlink" width="1709" height="1733" viewBox="0 0 1709 1733"><defs><style>.a{clip-path:url(#b);}.b{fill:none;stroke:#000;stroke-linecap:round;stroke-width:2px;opacity:0.4;}.c{fill:#9b9b9b;}</style><clipPath id="b"><rect width="1709" height="1733"/></clipPath></defs><g id="a" class="a"><g transform="translate(8979 -9196)"><path d="M23.283,0V-19.729H18.43l-5.469,13.6h-.246L7.26-19.729H2.393V0H6.221V-13.357h.219L11.471-.971h2.748l5.018-12.387h.219V0Zm5.852-17.363a2.229,2.229,0,0,0,2.242-2.215,2.232,2.232,0,0,0-2.242-2.229,2.244,2.244,0,0,0-2.256,2.229A2.241,2.241,0,0,0,29.135-17.363ZM27.139,0h3.979V-15.053H27.139Zm7.438,0h3.979V-8.422A3.328,3.328,0,0,1,42.22-11.84a8.114,8.114,0,0,1,1.887.219v-3.5a6.192,6.192,0,0,0-1.559-.178,3.867,3.867,0,0,0-3.869,2.639h-.246v-2.393H34.577ZM46.336,0h3.979V-8.422a3.328,3.328,0,0,1,3.664-3.418,8.114,8.114,0,0,1,1.887.219v-3.5a6.192,6.192,0,0,0-1.559-.178,3.867,3.867,0,0,0-3.869,2.639h-.246v-2.393H46.336ZM64.3.314c4.635,0,7.424-2.926,7.424-7.848,0-4.881-2.83-7.848-7.424-7.848s-7.424,2.98-7.424,7.848C56.877-2.625,59.666.314,64.3.314Zm0-3.145c-2.133,0-3.336-1.723-3.336-4.7,0-2.953,1.217-4.689,3.336-4.689s3.336,1.736,3.336,4.689C67.637-4.553,66.42-2.83,64.3-2.83ZM74.405,0h3.979V-8.422a3.328,3.328,0,0,1,3.664-3.418,8.114,8.114,0,0,1,1.887.219v-3.5a6.192,6.192,0,0,0-1.559-.178,3.867,3.867,0,0,0-3.869,2.639h-.246v-2.393H74.405Z" transform="translate(-8979 9613)"/><path d="M19.537,0V-19.729H15.408v8.012H6.521v-8.012H2.393V0H6.521V-8.312h8.887V0ZM30.051.314c4.635,0,7.424-2.926,7.424-7.848,0-4.881-2.83-7.848-7.424-7.848s-7.424,2.98-7.424,7.848C22.628-2.625,25.417.314,30.051.314Zm0-3.145c-2.133,0-3.336-1.723-3.336-4.7,0-2.953,1.217-4.689,3.336-4.689s3.336,1.736,3.336,4.689C33.387-4.553,32.17-2.83,30.051-2.83ZM53.8-15.053H49.821v8.7c0,2.064-1.066,3.336-3.049,3.336C44.941-3.021,44-4.1,44-6.234v-8.818H40.019v9.8c0,3.5,2.023,5.564,5.277,5.564A4.289,4.289,0,0,0,49.7-2.42h.246V0H53.8Zm3.09,4.389c0,2.311,1.422,3.691,4.348,4.334l2.734.615c1.326.3,1.9.766,1.9,1.531,0,1-1.066,1.682-2.611,1.682-1.586,0-2.557-.615-2.857-1.654H56.521C56.795-1.312,59.2.314,63.179.314c3.951,0,6.645-1.941,6.645-4.922,0-2.242-1.312-3.473-4.238-4.115l-2.83-.615c-1.395-.314-2.037-.793-2.037-1.559,0-.984,1.053-1.654,2.475-1.654,1.477,0,2.393.615,2.6,1.613h3.678c-.219-2.844-2.475-4.443-6.3-4.443C59.406-15.381,56.89-13.48,56.89-10.664Zm17.665-6.7A2.229,2.229,0,0,0,76.8-19.578a2.232,2.232,0,0,0-2.242-2.229A2.244,2.244,0,0,0,72.3-19.578,2.241,2.241,0,0,0,74.555-17.363ZM72.559,0h3.979V-15.053H72.559ZM80,0h3.979V-8.709c0-2.037,1.135-3.35,2.98-3.35,1.887,0,2.775,1.107,2.775,3.227V0H93.71V-9.734c0-3.6-1.8-5.646-5.154-5.646A4.477,4.477,0,0,0,84.1-12.633h-.246v-2.42H80ZM103.65,5.7c4.553,0,7.438-2.215,7.438-5.729V-15.053h-3.855v2.406h-.246a4.963,4.963,0,0,0-4.58-2.652c-3.828,0-6.18,2.98-6.18,7.643,0,4.512,2.338,7.438,6.1,7.438a4.784,4.784,0,0,0,4.539-2.447h.246v2.8c0,1.736-1.244,2.748-3.377,2.748-1.723,0-2.844-.6-3.049-1.559H96.745C96.992,3.965,99.644,5.7,103.65,5.7Zm.055-8.969c-2.16,0-3.391-1.7-3.391-4.4s1.244-4.4,3.391-4.4,3.445,1.7,3.445,4.4S105.865-3.268,103.7-3.268Z" transform="translate(-8979 9860)"/><path d="M15.066,0h4.471l-6.85-19.729H7.834L.984,0H5.127L6.645-4.785h6.932ZM10.008-15.723h.246L12.7-7.875H7.533ZM34.467-9.8c-.328-3.363-2.721-5.578-6.713-5.578-4.717,0-7.369,2.857-7.369,7.82,0,5.018,2.666,7.875,7.369,7.875,3.924,0,6.385-2.16,6.713-5.469H30.749a2.757,2.757,0,0,1-2.994,2.311c-2.133,0-3.35-1.682-3.35-4.717,0-2.994,1.2-4.648,3.35-4.648A2.81,2.81,0,0,1,30.749-9.8ZM37.011,0h3.979V-8.422a3.328,3.328,0,0,1,3.664-3.418,8.114,8.114,0,0,1,1.887.219v-3.5a6.192,6.192,0,0,0-1.559-.178,3.867,3.867,0,0,0-3.869,2.639h-.246v-2.393H37.011Zm13.7,5.469c3.76,0,5.605-1.34,6.891-5.182l5.2-15.34H58.586L55.414-3.568h-.246L52-15.053H47.607L52.9.082l-.137.574c-.328,1.217-1.176,1.709-2.666,1.709-.164,0-.766-.014-.9-.041v3.1C49.357,5.455,50.56,5.469,50.711,5.469ZM65.135,0h3.979V-20.809H65.135Zm9.571-17.363a2.229,2.229,0,0,0,2.242-2.215,2.232,2.232,0,0,0-2.242-2.229,2.244,2.244,0,0,0-2.256,2.229A2.241,2.241,0,0,0,74.706-17.363ZM72.71,0h3.979V-15.053H72.71ZM93.492-9.8c-.328-3.363-2.721-5.578-6.713-5.578-4.717,0-7.369,2.857-7.369,7.82,0,5.018,2.666,7.875,7.369,7.875,3.924,0,6.385-2.16,6.713-5.469H89.773a2.757,2.757,0,0,1-2.994,2.311c-2.133,0-3.35-1.682-3.35-4.717,0-2.994,1.2-4.648,3.35-4.648A2.81,2.81,0,0,1,89.773-9.8ZM113.344,0l6.576-19.729h-4.443l-4.4,15.217h-.246l-4.484-15.217h-4.662L108.354,0Zm11.006-17.363a2.229,2.229,0,0,0,2.242-2.215,2.232,2.232,0,0,0-2.242-2.229,2.244,2.244,0,0,0-2.256,2.229A2.241,2.241,0,0,0,124.351-17.363ZM122.355,0h3.979V-15.053h-3.979Zm7.1-10.664c0,2.311,1.422,3.691,4.348,4.334l2.734.615c1.326.3,1.9.766,1.9,1.531,0,1-1.066,1.682-2.611,1.682-1.586,0-2.557-.615-2.857-1.654h-3.883c.273,2.844,2.68,4.471,6.658,4.471,3.951,0,6.645-1.941,6.645-4.922,0-2.242-1.312-3.473-4.238-4.115l-2.83-.615c-1.395-.314-2.037-.793-2.037-1.559,0-.984,1.053-1.654,2.475-1.654,1.477,0,2.393.615,2.6,1.613h3.678c-.219-2.844-2.475-4.443-6.3-4.443C131.966-15.381,129.451-13.48,129.451-10.664ZM151.777.314c4.635,0,7.424-2.926,7.424-7.848,0-4.881-2.83-7.848-7.424-7.848s-7.424,2.98-7.424,7.848C144.354-2.625,147.143.314,151.777.314Zm0-3.145c-2.133,0-3.336-1.723-3.336-4.7,0-2.953,1.217-4.689,3.336-4.689s3.336,1.736,3.336,4.689C155.113-4.553,153.9-2.83,151.777-2.83ZM161.882,0h3.979V-8.422a3.328,3.328,0,0,1,3.664-3.418,8.114,8.114,0,0,1,1.887.219v-3.5a6.192,6.192,0,0,0-1.559-.178,3.867,3.867,0,0,0-3.869,2.639h-.246v-2.393h-3.855Z" transform="translate(-8979 10243)"/><path d="M1.5-5.455C1.654-1.8,4.7.506,9.406.506c4.949,0,8-2.434,8-6.371,0-3.049-1.709-4.758-5.674-5.605l-2.379-.506C7.041-12.482,6.1-13.207,6.1-14.451c0-1.545,1.367-2.543,3.432-2.543,2,0,3.445,1.053,3.637,2.666h3.883c-.123-3.486-3.2-5.906-7.547-5.906-4.553,0-7.547,2.434-7.547,6.111,0,2.994,1.764,4.84,5.359,5.605l2.57.561c2.42.533,3.4,1.285,3.4,2.584,0,1.531-1.518,2.611-3.664,2.611C7.3-2.762,5.688-3.814,5.5-5.455ZM20.344,0h3.979V-9.078a2.737,2.737,0,0,1,2.666-2.98,2.3,2.3,0,0,1,2.488,2.543V0h3.828V-9.256a2.6,2.6,0,0,1,2.652-2.8c1.682,0,2.516.9,2.516,2.721V0h3.979V-10.336c0-3.1-1.873-5.045-4.881-5.045a4.77,4.77,0,0,0-4.539,2.775h-.246a4.1,4.1,0,0,0-4.17-2.775,4.225,4.225,0,0,0-4.17,2.775H24.2v-2.447H20.344ZM49.876.232A4.841,4.841,0,0,0,54.251-2H54.5V0h3.855V-10.281c0-3.213-2.256-5.1-6.248-5.1-3.787,0-6.344,1.736-6.6,4.5h3.664c.328-.943,1.285-1.449,2.721-1.449,1.641,0,2.543.752,2.543,2.051v1.244l-3.65.219c-3.746.219-5.838,1.8-5.838,4.525C44.941-1.545,46.978.232,49.876.232ZM51.189-2.68c-1.381,0-2.352-.7-2.352-1.859,0-1.107.834-1.75,2.543-1.859L54.429-6.6v1.121A2.986,2.986,0,0,1,51.189-2.68ZM61.7,0h3.979V-8.422a3.328,3.328,0,0,1,3.664-3.418,8.114,8.114,0,0,1,1.887.219v-3.5a6.192,6.192,0,0,0-1.559-.178A3.867,3.867,0,0,0,65.8-12.66h-.246v-2.393H61.7ZM75.074-18.648v3.732H72.723v3.021h2.352v7.834c0,2.926,1.449,4.115,5.113,4.115a11.109,11.109,0,0,0,2-.178V-3.062a9.4,9.4,0,0,1-1.176.068c-1.354,0-1.955-.629-1.955-1.982v-6.918h3.131v-3.021H79.053v-3.732ZM93.641-15.3a4.936,4.936,0,0,0-4.607,2.721h-.246v-2.475H84.932V4.99h3.979V-2.3h.246A4.726,4.726,0,0,0,93.71.232c3.773,0,6.084-2.926,6.084-7.766S97.456-15.3,93.641-15.3ZM92.288-2.98C90.182-2.98,88.87-4.7,88.87-7.52s1.313-4.553,3.432-4.553,3.4,1.709,3.4,4.539S94.434-2.98,92.288-2.98ZM102.611,0h3.979V-8.668a3.022,3.022,0,0,1,3.145-3.35c1.8,0,2.775,1.094,2.775,3.227V0h3.979V-9.693c0-3.609-1.928-5.646-5.168-5.646a4.6,4.6,0,0,0-4.553,2.748h-.246v-8.217h-3.91Zm23.858.314c4.635,0,7.424-2.926,7.424-7.848,0-4.881-2.83-7.848-7.424-7.848s-7.424,2.98-7.424,7.848C119.045-2.625,121.834.314,126.469.314Zm0-3.145c-2.133,0-3.336-1.723-3.336-4.7,0-2.953,1.217-4.689,3.336-4.689s3.336,1.736,3.336,4.689C129.8-4.553,128.588-2.83,126.469-2.83ZM136.573,0h3.979V-8.709c0-2.037,1.135-3.35,2.98-3.35,1.887,0,2.775,1.107,2.775,3.227V0h3.979V-9.734c0-3.6-1.8-5.646-5.154-5.646a4.477,4.477,0,0,0-4.457,2.748h-.246v-2.42h-3.855Zm26.756-4.252c-.424,1.025-1.5,1.6-3.076,1.6-2.078,0-3.391-1.436-3.445-3.732V-6.59h10.35V-7.779c0-4.758-2.625-7.6-7.068-7.6-4.484,0-7.246,3.035-7.246,7.93,0,4.867,2.707,7.766,7.3,7.766,3.691,0,6.3-1.764,6.891-4.566ZM160.1-12.414c1.859,0,3.063,1.285,3.145,3.35h-6.426A3.271,3.271,0,0,1,160.1-12.414Z" transform="translate(-8979 9498)"/><path class="b" d="M616.676,0H0" transform="translate(-8785.73 9492.008)"/><line class="b" x1="232.419" transform="translate(-8843.918 9853.691)"/><line class="b" x1="581.056" transform="translate(-8759.129 9345.787)"/><path d="M15.066,0h4.471l-6.85-19.729H7.834L.984,0H5.127L6.645-4.785h6.932ZM10.008-15.723h.246L12.7-7.875H7.533ZM34.467-9.8c-.328-3.363-2.721-5.578-6.713-5.578-4.717,0-7.369,2.857-7.369,7.82,0,5.018,2.666,7.875,7.369,7.875,3.924,0,6.385-2.16,6.713-5.469H30.749a2.757,2.757,0,0,1-2.994,2.311c-2.133,0-3.35-1.682-3.35-4.717,0-2.994,1.2-4.648,3.35-4.648A2.81,2.81,0,0,1,30.749-9.8ZM37.011,0h3.979V-8.422a3.328,3.328,0,0,1,3.664-3.418,8.114,8.114,0,0,1,1.887.219v-3.5a6.192,6.192,0,0,0-1.559-.178,3.867,3.867,0,0,0-3.869,2.639h-.246v-2.393H37.011Zm13.7,5.469c3.76,0,5.605-1.34,6.891-5.182l5.2-15.34H58.586L55.414-3.568h-.246L52-15.053H47.607L52.9.082l-.137.574c-.328,1.217-1.176,1.709-2.666,1.709-.164,0-.766-.014-.9-.041v3.1C49.357,5.455,50.56,5.469,50.711,5.469ZM65.135,0h3.979V-20.809H65.135Zm9.571-17.363a2.229,2.229,0,0,0,2.242-2.215,2.232,2.232,0,0,0-2.242-2.229,2.244,2.244,0,0,0-2.256,2.229A2.241,2.241,0,0,0,74.706-17.363ZM72.71,0h3.979V-15.053H72.71ZM93.492-9.8c-.328-3.363-2.721-5.578-6.713-5.578-4.717,0-7.369,2.857-7.369,7.82,0,5.018,2.666,7.875,7.369,7.875,3.924,0,6.385-2.16,6.713-5.469H89.773a2.757,2.757,0,0,1-2.994,2.311c-2.133,0-3.35-1.682-3.35-4.717,0-2.994,1.2-4.648,3.35-4.648A2.81,2.81,0,0,1,89.773-9.8Zm8.71,4.348c.15,3.65,3.2,5.961,7.9,5.961,4.949,0,8-2.434,8-6.371,0-3.049-1.709-4.758-5.674-5.605l-2.379-.506c-2.311-.506-3.254-1.23-3.254-2.475,0-1.545,1.367-2.543,3.432-2.543,2,0,3.445,1.053,3.637,2.666h3.883c-.123-3.486-3.2-5.906-7.547-5.906-4.553,0-7.547,2.434-7.547,6.111,0,2.994,1.764,4.84,5.359,5.605l2.57.561c2.42.533,3.4,1.285,3.4,2.584,0,1.531-1.518,2.611-3.664,2.611-2.324,0-3.937-1.053-4.129-2.693ZM121.179,0h3.979V-8.668a3.022,3.022,0,0,1,3.145-3.35c1.8,0,2.775,1.094,2.775,3.227V0h3.979V-9.693c0-3.609-1.928-5.646-5.168-5.646a4.6,4.6,0,0,0-4.553,2.748h-.246v-8.217h-3.91ZM148.1-4.252c-.424,1.025-1.5,1.6-3.076,1.6-2.078,0-3.391-1.436-3.445-3.732V-6.59h10.35V-7.779c0-4.758-2.625-7.6-7.068-7.6-4.484,0-7.246,3.035-7.246,7.93,0,4.867,2.707,7.766,7.3,7.766,3.691,0,6.3-1.764,6.891-4.566Zm-3.227-8.162c1.859,0,3.063,1.285,3.145,3.35h-6.426A3.271,3.271,0,0,1,144.873-12.414Zm19.5,8.162c-.424,1.025-1.5,1.6-3.076,1.6-2.078,0-3.391-1.436-3.445-3.732V-6.59H168.2V-7.779c0-4.758-2.625-7.6-7.068-7.6-4.484,0-7.246,3.035-7.246,7.93,0,4.867,2.707,7.766,7.3,7.766,3.691,0,6.3-1.764,6.891-4.566Zm-3.227-8.162c1.859,0,3.063,1.285,3.145,3.35h-6.426A3.271,3.271,0,0,1,161.143-12.414Zm10.883-6.234v3.732h-2.352v3.021h2.352v7.834c0,2.926,1.449,4.115,5.113,4.115a11.109,11.109,0,0,0,2-.178V-3.062a9.4,9.4,0,0,1-1.176.068c-1.354,0-1.955-.629-1.955-1.982v-6.918h3.131v-3.021H176v-3.732Z" transform="translate(-8978.5 9355.5)"/><path class="c" d="M5.317.167c2.7,0,4.368-1.863,4.368-4.9s-1.67-4.9-4.368-4.9S.949-7.787.949-4.737,2.619.167,5.317.167Zm0-1.362c-1.793,0-2.8-1.3-2.8-3.542s1.011-3.542,2.8-3.542,2.8,1.292,2.8,3.542S7.11-1.2,5.317-1.2ZM12.511,0h1.512V-8.209h2.171V-9.475H14.023v-1.011c0-1.037.457-1.564,1.547-1.564a4.161,4.161,0,0,1,.712.044v-1.23a5.309,5.309,0,0,0-1.02-.088,2.453,2.453,0,0,0-2.751,2.795v1.055H10.938v1.266h1.573ZM27.726-9.642a3.416,3.416,0,0,0-3.032,1.749h-.141V-9.475H23.111V3.164h1.512V-1.424h.141A3.18,3.18,0,0,0,27.726.167c2.408,0,3.981-1.942,3.981-4.9C31.707-7.717,30.143-9.642,27.726-9.642ZM27.365-1.2c-1.705,0-2.786-1.371-2.786-3.542s1.081-3.542,2.795-3.542c1.731,0,2.769,1.327,2.769,3.542S29.106-1.2,27.365-1.2Zm12.81-1.257a2.454,2.454,0,0,1-2.443,1.283c-1.608,0-2.654-1.187-2.733-3.059V-4.3H41.81v-.58c0-2.944-1.556-4.764-4.113-4.764-2.6,0-4.271,1.934-4.271,4.913,0,3,1.644,4.9,4.271,4.9,2.074,0,3.551-1,3.99-2.619Zm-2.5-5.854a2.55,2.55,0,0,1,2.54,2.786H35A2.7,2.7,0,0,1,37.679-8.306ZM47.9.167c2.7,0,4.368-1.863,4.368-4.9s-1.67-4.9-4.368-4.9-4.368,1.854-4.368,4.9S45.2.167,47.9.167Zm0-1.362c-1.793,0-2.8-1.3-2.8-3.542S46.1-8.279,47.9-8.279s2.8,1.292,2.8,3.542S49.69-1.2,47.9-1.2ZM59.072-9.642A3.416,3.416,0,0,0,56.04-7.893H55.9V-9.475H54.458V3.164H55.97V-1.424h.141A3.18,3.18,0,0,0,59.072.167c2.408,0,3.981-1.942,3.981-4.9C63.054-7.717,61.489-9.642,59.072-9.642ZM58.712-1.2c-1.705,0-2.786-1.371-2.786-3.542s1.081-3.542,2.795-3.542c1.731,0,2.769,1.327,2.769,3.542S60.452-1.2,58.712-1.2ZM65.335,0h1.512V-13.236H65.335ZM75.877-2.452a2.454,2.454,0,0,1-2.443,1.283c-1.608,0-2.654-1.187-2.733-3.059V-4.3h6.812v-.58c0-2.944-1.556-4.764-4.113-4.764-2.6,0-4.271,1.934-4.271,4.913,0,3,1.644,4.9,4.271,4.9,2.074,0,3.551-1,3.99-2.619Zm-2.5-5.854a2.55,2.55,0,0,1,2.54,2.786H70.7A2.7,2.7,0,0,1,73.381-8.306Zm12.015-3a1.058,1.058,0,0,0,1.055-1.055A1.058,1.058,0,0,0,85.4-13.412a1.058,1.058,0,0,0-1.055,1.055A1.058,1.058,0,0,0,85.4-11.3ZM84.64,0h1.512V-9.475H84.64Zm4.215,0h1.512V-5.607a2.4,2.4,0,0,1,2.487-2.672c1.512,0,2.232.809,2.232,2.514V0H96.6V-6.135c0-2.25-1.187-3.507-3.313-3.507A2.848,2.848,0,0,0,90.437-7.98H90.3V-9.475H88.855Zm15.856-11.927v2.452h-1.529v1.266h1.529v5.748c0,1.811.782,2.531,2.733,2.531a5.064,5.064,0,0,0,.888-.088V-1.292a6.384,6.384,0,0,1-.7.035c-.984,0-1.406-.475-1.406-1.591V-8.209h2.109V-9.475h-2.109v-2.452ZM110.525,0h1.512V-5.607a2.445,2.445,0,0,1,2.628-2.672c1.433,0,2.188.835,2.188,2.514V0h1.512V-6.135c0-2.224-1.266-3.507-3.27-3.507a2.949,2.949,0,0,0-2.918,1.661h-.141v-5.256h-1.512ZM127.22-2.452a2.454,2.454,0,0,1-2.443,1.283c-1.608,0-2.654-1.187-2.733-3.059V-4.3h6.812v-.58c0-2.944-1.556-4.764-4.113-4.764-2.6,0-4.271,1.934-4.271,4.913,0,3,1.644,4.9,4.271,4.9,2.074,0,3.551-1,3.99-2.619Zm-2.5-5.854a2.55,2.55,0,0,1,2.54,2.786h-5.221A2.7,2.7,0,0,1,124.724-8.306Zm12.982-4.377h-1.582v8.323c0,2.707,1.89,4.658,5.036,4.658S146.2-1.652,146.2-4.359v-8.323h-1.582v8.218a3.165,3.165,0,0,1-3.454,3.3,3.165,3.165,0,0,1-3.454-3.3Zm10.921,9.369C148.793-1.125,150.648.3,153.337.3c2.9,0,4.737-1.485,4.737-3.814,0-1.863-1.055-2.883-3.683-3.542l-1.327-.352c-1.749-.448-2.443-1.02-2.443-2.013,0-1.283,1.116-2.127,2.8-2.127A2.6,2.6,0,0,1,156.3-9.475h1.591c-.132-2.048-1.96-3.507-4.412-3.507-2.681,0-4.482,1.459-4.482,3.612,0,1.8.993,2.839,3.287,3.419l1.626.422c1.749.439,2.54,1.125,2.54,2.206,0,1.257-1.257,2.18-2.962,2.18-1.8,0-3.067-.844-3.261-2.171Zm20.5,3.48c2.7,0,4.368-1.863,4.368-4.9s-1.67-4.9-4.368-4.9-4.368,1.854-4.368,4.9S166.424.167,169.123.167Zm0-1.362c-1.793,0-2.8-1.3-2.8-3.542s1.011-3.542,2.8-3.542,2.8,1.292,2.8,3.542S170.916-1.2,169.123-1.2ZM187.25-9.475H185.73L183.866-1.9h-.141l-2.118-7.576h-1.45L178.039-1.9H177.9l-1.863-7.576h-1.529L177.16,0h1.529L180.8-7.33h.141L183.058,0H184.6ZM189.092,0H190.6V-5.607a2.4,2.4,0,0,1,2.487-2.672c1.512,0,2.232.809,2.232,2.514V0h1.512V-6.135c0-2.25-1.187-3.507-3.313-3.507a2.848,2.848,0,0,0-2.848,1.661h-.141V-9.475h-1.441Zm19.117.167c2.7,0,4.368-1.863,4.368-4.9s-1.67-4.9-4.368-4.9-4.368,1.854-4.368,4.9S205.51.167,208.208.167Zm0-1.362c-1.793,0-2.8-1.3-2.8-3.542s1.011-3.542,2.8-3.542,2.8,1.292,2.8,3.542S210-1.2,208.208-1.2ZM214.77,0h1.512V-5.607a2.4,2.4,0,0,1,2.487-2.672c1.512,0,2.232.809,2.232,2.514V0h1.512V-6.135c0-2.25-1.187-3.507-3.313-3.507a2.848,2.848,0,0,0-2.848,1.661h-.141V-9.475H214.77Zm16.6-2.452a2.454,2.454,0,0,1-2.443,1.283c-1.608,0-2.654-1.187-2.733-3.059V-4.3H233v-.58c0-2.944-1.556-4.764-4.113-4.764-2.6,0-4.271,1.934-4.271,4.913,0,3,1.644,4.9,4.271,4.9,2.074,0,3.551-1,3.99-2.619Zm-2.5-5.854a2.55,2.55,0,0,1,2.54,2.786h-5.221A2.7,2.7,0,0,1,228.872-8.306ZM236.444.088a1.146,1.146,0,0,0,1.143-1.143A1.14,1.14,0,0,0,236.444-2.2,1.146,1.146,0,0,0,235.3-1.055,1.152,1.152,0,0,0,236.444.088Z" transform="translate(-8978.5 9562.5)"/><path class="c" d="M4.078,11.155H5.651c1.784,0,2.883.914,2.883,2.382,0,1.424-1.187,2.382-2.856,2.382-1.635,0-2.777-.853-2.918-2.188H1.23C1.345,15.884,3.12,17.3,5.7,17.3c2.522,0,4.465-1.591,4.465-3.718a3.018,3.018,0,0,0-2.733-3.146v-.141A2.952,2.952,0,0,0,9.686,7.376C9.694,5.6,8.253,4.019,5.748,4.019c-2.566,0-4.14,1.521-4.3,3.586H2.988A2.368,2.368,0,0,1,5.643,5.4,2.2,2.2,0,0,1,8.077,7.552a2.289,2.289,0,0,1-2.5,2.25h-1.5Zm8.644-6.838V17h4.351c3.771,0,5.985-2.347,5.985-6.346s-2.224-6.337-5.985-6.337ZM14.3,5.741h2.663c2.813,0,4.474,1.828,4.474,4.931s-1.644,4.9-4.474,4.9H14.3ZM30.521,4.317V17H32.1V12.474h3.19a3.907,3.907,0,0,0,4.078-4.052,3.9,3.9,0,0,0-4.061-4.1ZM32.1,5.724H34.9c1.837,0,2.848.958,2.848,2.7,0,1.679-1.046,2.646-2.848,2.646H32.1ZM41.582,17h1.512V11.129a2.32,2.32,0,0,1,2.487-2.3,6.07,6.07,0,0,1,.967.088V7.4a6.492,6.492,0,0,0-.756-.044,2.645,2.645,0,0,0-2.628,1.573h-.141V7.525H41.582ZM49.048,5.7a1.055,1.055,0,1,0-1.055-1.055A1.058,1.058,0,0,0,49.048,5.7ZM48.292,17H49.8V7.525H48.292Zm4.215,0h1.512V11.393a2.4,2.4,0,0,1,2.487-2.672c1.512,0,2.232.809,2.232,2.514V17H60.25V10.865c0-2.25-1.187-3.507-3.313-3.507A2.848,2.848,0,0,0,54.089,9.02h-.141V7.525H52.507ZM63.463,5.073V7.525H61.933V8.791h1.529v5.748c0,1.811.782,2.531,2.733,2.531a5.064,5.064,0,0,0,.888-.088V15.708a6.384,6.384,0,0,1-.7.035c-.984,0-1.406-.475-1.406-1.591V8.791h2.109V7.525H64.974V5.073Zm8.363,12.094A3.273,3.273,0,0,0,74.744,15.6h.141V17h1.441V10.514c0-1.969-1.292-3.155-3.6-3.155-2.021,0-3.516,1-3.718,2.522h1.529c.211-.747,1-1.178,2.136-1.178,1.415,0,2.145.642,2.145,1.811v.861l-2.733.167c-2.206.132-3.454,1.107-3.454,2.8C68.626,16.077,69.989,17.167,71.826,17.167Zm.281-1.327c-1.1,0-1.916-.562-1.916-1.529,0-.949.633-1.45,2.074-1.547l2.549-.167v.87A2.492,2.492,0,0,1,72.107,15.84Zm11.545,1.327c2.4,0,3.973-1.942,3.973-4.9,0-2.979-1.564-4.9-3.973-4.9A3.271,3.271,0,0,0,80.681,9.02H80.54V3.764H79.028V17H80.47V15.488h.141A3.4,3.4,0,0,0,83.651,17.167ZM83.3,8.721c1.731,0,2.76,1.327,2.76,3.542S85.031,15.8,83.3,15.8,80.5,14.451,80.5,12.263,81.577,8.721,83.3,8.721ZM89.905,17h1.512V3.764H89.905Zm10.543-2.452A2.454,2.454,0,0,1,98,15.831c-1.608,0-2.654-1.187-2.733-3.059V12.7h6.812v-.58c0-2.944-1.556-4.764-4.113-4.764-2.6,0-4.271,1.934-4.271,4.913,0,3,1.644,4.9,4.271,4.9,2.074,0,3.551-1,3.99-2.619Zm-2.5-5.854a2.55,2.55,0,0,1,2.54,2.786H95.271A2.7,2.7,0,0,1,97.952,8.694Zm23.142-1.169h-1.521L117.71,15.1h-.141l-2.118-7.576H114L111.883,15.1h-.141l-1.863-7.576h-1.529L111,17h1.529l2.109-7.33h.141L116.9,17h1.538ZM123.726,5.7a1.055,1.055,0,1,0-1.055-1.055A1.058,1.058,0,0,0,123.726,5.7ZM122.97,17h1.512V7.525H122.97Zm4.847-11.927V7.525h-1.529V8.791h1.529v5.748c0,1.811.782,2.531,2.733,2.531a5.064,5.064,0,0,0,.888-.088V15.708a6.384,6.384,0,0,1-.7.035c-.984,0-1.406-.475-1.406-1.591V8.791h2.109V7.525h-2.109V5.073ZM133.632,17h1.512V11.393a2.445,2.445,0,0,1,2.628-2.672c1.433,0,2.188.835,2.188,2.514V17h1.512V10.865c0-2.224-1.266-3.507-3.27-3.507a2.949,2.949,0,0,0-2.918,1.661h-.141V3.764h-1.512Zm15.32,0h1.512V11.129a2.32,2.32,0,0,1,2.487-2.3,6.07,6.07,0,0,1,.967.088V7.4a6.492,6.492,0,0,0-.756-.044,2.645,2.645,0,0,0-2.628,1.573h-.141V7.525h-1.441Zm12.687-2.452a2.454,2.454,0,0,1-2.443,1.283c-1.608,0-2.654-1.187-2.733-3.059V12.7h6.812v-.58c0-2.944-1.556-4.764-4.113-4.764-2.6,0-4.271,1.934-4.271,4.913,0,3,1.644,4.9,4.271,4.9,2.074,0,3.551-1,3.99-2.619Zm-2.5-5.854a2.55,2.55,0,0,1,2.54,2.786h-5.221A2.7,2.7,0,0,1,159.143,8.694Zm8.961,8.473a3.273,3.273,0,0,0,2.918-1.564h.141V17H172.6V10.514c0-1.969-1.292-3.155-3.6-3.155-2.021,0-3.516,1-3.718,2.522h1.529c.211-.747,1-1.178,2.136-1.178,1.415,0,2.145.642,2.145,1.811v.861l-2.733.167c-2.206.132-3.454,1.107-3.454,2.8C164.9,16.077,166.266,17.167,168.1,17.167Zm.281-1.327c-1.1,0-1.916-.562-1.916-1.529,0-.949.633-1.45,2.074-1.547l2.549-.167v.87A2.492,2.492,0,0,1,168.384,15.84Zm10.341,1.327a3.4,3.4,0,0,0,3.032-1.679h.141V17h1.441V3.764h-1.512V9.02H181.7a3.238,3.238,0,0,0-2.971-1.661c-2.408,0-3.981,1.934-3.981,4.9S176.3,17.167,178.725,17.167Zm.352-8.446c1.714,0,2.786,1.371,2.786,3.542,0,2.188-1.063,3.542-2.786,3.542s-2.769-1.327-2.769-3.542S177.354,8.721,179.076,8.721ZM186.9,20.428c1.679,0,2.435-.65,3.243-2.848l3.7-10.055h-1.608l-2.593,7.8H189.5l-2.6-7.8h-1.635l3.507,9.483-.176.563c-.4,1.143-.87,1.556-1.74,1.556a3.639,3.639,0,0,1-.633-.044v1.292A4.475,4.475,0,0,0,186.9,20.428Zm14.313-7.813V11.182h-5.766v1.433ZM2.057,31.073v2.452H.527v1.266H2.057v5.748c0,1.811.782,2.531,2.733,2.531a5.064,5.064,0,0,0,.888-.088V41.708a6.384,6.384,0,0,1-.7.035c-.984,0-1.406-.475-1.406-1.591V34.791H5.678V33.525H3.568V31.073Zm9.488,12.094c2.7,0,4.368-1.863,4.368-4.9s-1.67-4.9-4.368-4.9-4.368,1.854-4.368,4.9S8.846,43.167,11.545,43.167Zm0-1.362c-1.793,0-2.8-1.3-2.8-3.542s1.011-3.542,2.8-3.542,2.8,1.292,2.8,3.542S13.338,41.8,11.545,41.8Zm12.265-3.19V37.182H18.044v1.433Zm2.386-2.5c0,1.371.809,2.136,2.584,2.566l1.626.4c1.011.246,1.5.686,1.5,1.336,0,.87-.914,1.477-2.188,1.477a2.087,2.087,0,0,1-2.224-1.31H25.941c.167,1.573,1.617,2.584,3.727,2.584,2.153,0,3.8-1.169,3.8-2.865,0-1.362-.861-2.136-2.646-2.566l-1.459-.352c-1.116-.272-1.644-.677-1.644-1.327,0-.844.879-1.415,2-1.415A1.931,1.931,0,0,1,31.8,35.9H33.3c-.2-1.556-1.582-2.54-3.568-2.54C27.717,33.358,26.2,34.545,26.2,36.118ZM35.746,43h1.512V37.393a2.445,2.445,0,0,1,2.628-2.672c1.433,0,2.188.835,2.188,2.514V43h1.512V36.865c0-2.224-1.266-3.507-3.27-3.507A2.949,2.949,0,0,0,37.4,35.02h-.141V29.764H35.746ZM46.956,31.7A1.055,1.055,0,1,0,45.9,30.643,1.058,1.058,0,0,0,46.956,31.7ZM46.2,43h1.512V33.525H46.2Zm8.829-9.642A3.416,3.416,0,0,0,52,35.107h-.141V33.525H50.415V46.164h1.512V41.576h.141a3.18,3.18,0,0,0,2.962,1.591c2.408,0,3.981-1.942,3.981-4.9C59.011,35.283,57.446,33.358,55.029,33.358Zm-.36,8.446c-1.705,0-2.786-1.371-2.786-3.542s1.081-3.542,2.795-3.542c1.731,0,2.769,1.327,2.769,3.542S56.409,41.8,54.669,41.8ZM71.4,43.3c2.7,0,4.7-1.5,5.124-3.832H74.919A3.4,3.4,0,0,1,71.4,41.84c-2.443,0-3.973-2-3.973-5.177s1.529-5.186,3.964-5.186a3.485,3.485,0,0,1,3.524,2.663h1.608a4.947,4.947,0,0,0-5.133-4.122c-3.445,0-5.59,2.549-5.59,6.645S67.958,43.3,71.4,43.3ZM86.895,43h1.661L83.88,30.317H82.316L77.64,43H79.3l1.274-3.63H85.62ZM83.027,32.365h.141l1.986,5.66H81.041ZM90.6,30.317V43H94.95c3.771,0,5.985-2.347,5.985-6.346s-2.224-6.337-5.985-6.337Zm1.582,1.424h2.663c2.813,0,4.474,1.828,4.474,4.931s-1.644,4.9-4.474,4.9H92.181ZM108.2,43h1.512V37.129a2.29,2.29,0,0,1,2.2-2.408,1.8,1.8,0,0,1,1.978,1.846V43H115.4V36.909a2.131,2.131,0,0,1,2.2-2.188c1.336,0,2,.686,2,2.083V43h1.512V36.452a2.764,2.764,0,0,0-3.015-3.094,3.172,3.172,0,0,0-2.9,1.661h-.141a2.735,2.735,0,0,0-2.619-1.661,2.681,2.681,0,0,0-2.646,1.661h-.141V33.525H108.2Zm19.376.167c2.7,0,4.368-1.863,4.368-4.9s-1.67-4.9-4.368-4.9-4.368,1.854-4.368,4.9S124.882,43.167,127.58,43.167Zm0-1.362c-1.793,0-2.8-1.3-2.8-3.542s1.011-3.542,2.8-3.542,2.8,1.292,2.8,3.542S129.373,41.8,127.58,41.8Zm10.068,1.362a3.4,3.4,0,0,0,3.032-1.679h.141V43h1.441V29.764h-1.512V35.02h-.132a3.238,3.238,0,0,0-2.971-1.661c-2.408,0-3.981,1.934-3.981,4.9S135.222,43.167,137.648,43.167ZM138,34.721c1.714,0,2.786,1.371,2.786,3.542,0,2.188-1.063,3.542-2.786,3.542s-2.769-1.327-2.769-3.542S136.277,34.721,138,34.721Zm13.294,5.827a2.454,2.454,0,0,1-2.443,1.283c-1.608,0-2.654-1.187-2.733-3.059V38.7h6.812v-.58c0-2.944-1.556-4.764-4.113-4.764-2.6,0-4.271,1.934-4.271,4.913,0,3,1.644,4.9,4.271,4.9,2.074,0,3.551-1,3.99-2.619Zm-2.5-5.854a2.55,2.55,0,0,1,2.54,2.786h-5.221A2.7,2.7,0,0,1,148.8,34.694ZM155.209,43h1.512V29.764h-1.512Zm4.048-6.882c0,1.371.809,2.136,2.584,2.566l1.626.4c1.011.246,1.5.686,1.5,1.336,0,.87-.914,1.477-2.188,1.477a2.087,2.087,0,0,1-2.224-1.31H159c.167,1.573,1.617,2.584,3.727,2.584,2.153,0,3.8-1.169,3.8-2.865,0-1.362-.861-2.136-2.646-2.566l-1.459-.352c-1.116-.272-1.644-.677-1.644-1.327,0-.844.879-1.415,2-1.415a1.931,1.931,0,0,1,2.083,1.257h1.494c-.2-1.556-1.582-2.54-3.568-2.54C160.777,33.358,159.256,34.545,159.256,36.118Zm10.71,6.97a1.143,1.143,0,1,0-1.143-1.143A1.146,1.146,0,0,0,169.966,43.088Z" transform="translate(-8978.5 9915.5)"/><path class="c" d="M9.861,17h1.661L6.847,4.317H5.282L.606,17H2.268l1.274-3.63H8.587ZM5.994,6.365h.141l1.986,5.66H4.008Zm7.484-1.292V7.525H11.949V8.791h1.529v5.748c0,1.811.782,2.531,2.733,2.531a5.064,5.064,0,0,0,.888-.088V15.708a6.384,6.384,0,0,1-.7.035c-.984,0-1.406-.475-1.406-1.591V8.791H17.1V7.525H14.99V5.073Zm6.359,0V7.525H18.308V8.791h1.529v5.748c0,1.811.782,2.531,2.733,2.531a5.064,5.064,0,0,0,.888-.088V15.708a6.384,6.384,0,0,1-.7.035c-.984,0-1.406-.475-1.406-1.591V8.791h2.109V7.525H21.349V5.073ZM28.2,17.167A3.273,3.273,0,0,0,31.118,15.6h.141V17H32.7V10.514c0-1.969-1.292-3.155-3.6-3.155-2.021,0-3.516,1-3.718,2.522h1.529c.211-.747,1-1.178,2.136-1.178,1.415,0,2.145.642,2.145,1.811v.861l-2.733.167c-2.206.132-3.454,1.107-3.454,2.8C25,16.077,26.363,17.167,28.2,17.167Zm.281-1.327c-1.1,0-1.916-.562-1.916-1.529,0-.949.633-1.45,2.074-1.547l2.549-.167v.87A2.492,2.492,0,0,1,28.481,15.84Zm14.674-5.414a3.718,3.718,0,0,0-3.973-3.067c-2.654,0-4.342,1.916-4.342,4.869,0,3.015,1.7,4.939,4.351,4.939a3.66,3.66,0,0,0,3.964-3.023H41.626A2.28,2.28,0,0,1,39.182,15.8c-1.687,0-2.777-1.389-2.777-3.577,0-2.145,1.072-3.507,2.777-3.507a2.348,2.348,0,0,1,2.443,1.705ZM45.3,17h1.512V11.393a2.445,2.445,0,0,1,2.628-2.672c1.433,0,2.188.835,2.188,2.514V17h1.512V10.865c0-2.224-1.266-3.507-3.27-3.507A2.949,2.949,0,0,0,46.948,9.02h-.141V3.764H45.3ZM61.99,14.548a2.454,2.454,0,0,1-2.443,1.283c-1.608,0-2.654-1.187-2.733-3.059V12.7h6.812v-.58c0-2.944-1.556-4.764-4.113-4.764-2.6,0-4.271,1.934-4.271,4.913,0,3,1.644,4.9,4.271,4.9,2.074,0,3.551-1,3.99-2.619Zm-2.5-5.854a2.55,2.55,0,0,1,2.54,2.786H56.814A2.7,2.7,0,0,1,59.494,8.694Zm9.831,8.473a3.4,3.4,0,0,0,3.032-1.679H72.5V17h1.441V3.764H72.427V9.02H72.3a3.238,3.238,0,0,0-2.971-1.661c-2.408,0-3.981,1.934-3.981,4.9S66.9,17.167,69.325,17.167Zm.352-8.446c1.714,0,2.786,1.371,2.786,3.542,0,2.188-1.063,3.542-2.786,3.542s-2.769-1.327-2.769-3.542S67.954,8.721,69.677,8.721Zm23.836-1.2H91.992L90.129,15.1h-.141L87.87,7.525H86.42L84.3,15.1h-.141L82.3,7.525H80.769L83.423,17h1.529l2.109-7.33H87.2L89.32,17h1.538ZM96.145,5.7a1.055,1.055,0,1,0-1.055-1.055A1.058,1.058,0,0,0,96.145,5.7ZM95.389,17H96.9V7.525H95.389Zm4.847-11.927V7.525H98.707V8.791h1.529v5.748c0,1.811.782,2.531,2.733,2.531a5.064,5.064,0,0,0,.888-.088V15.708a6.384,6.384,0,0,1-.7.035c-.984,0-1.406-.475-1.406-1.591V8.791h2.109V7.525h-2.109V5.073ZM106.051,17h1.512V11.393a2.445,2.445,0,0,1,2.628-2.672c1.433,0,2.188.835,2.188,2.514V17h1.512V10.865c0-2.224-1.266-3.507-3.27-3.507A2.949,2.949,0,0,0,107.7,9.02h-.141V3.764h-1.512Zm17.956.167a3.273,3.273,0,0,0,2.918-1.564h.141V17h1.441V10.514c0-1.969-1.292-3.155-3.6-3.155-2.021,0-3.516,1-3.718,2.522h1.529c.211-.747,1-1.178,2.136-1.178,1.415,0,2.145.642,2.145,1.811v.861l-2.733.167c-2.206.132-3.454,1.107-3.454,2.8C120.808,16.077,122.17,17.167,124.007,17.167Zm.281-1.327c-1.1,0-1.916-.562-1.916-1.529,0-.949.633-1.45,2.074-1.547L127,12.6v.87A2.492,2.492,0,0,1,124.289,15.84Zm10.341,1.327a3.4,3.4,0,0,0,3.032-1.679h.141V17h1.441V3.764h-1.512V9.02H137.6a3.238,3.238,0,0,0-2.971-1.661c-2.408,0-3.981,1.934-3.981,4.9S132.2,17.167,134.629,17.167Zm.352-8.446c1.714,0,2.786,1.371,2.786,3.542,0,2.188-1.063,3.542-2.786,3.542s-2.769-1.327-2.769-3.542S133.258,8.721,134.981,8.721ZM142.087,17H143.6V11.393a2.445,2.445,0,0,1,2.628-2.672c1.433,0,2.188.835,2.188,2.514V17h1.512V10.865c0-2.224-1.266-3.507-3.27-3.507a2.949,2.949,0,0,0-2.918,1.661H143.6V3.764h-1.512Zm16.7-2.452a2.454,2.454,0,0,1-2.443,1.283c-1.608,0-2.654-1.187-2.733-3.059V12.7h6.812v-.58c0-2.944-1.556-4.764-4.113-4.764-2.6,0-4.271,1.934-4.271,4.913,0,3,1.644,4.9,4.271,4.9,2.074,0,3.551-1,3.99-2.619Zm-2.5-5.854a2.55,2.55,0,0,1,2.54,2.786h-5.221A2.7,2.7,0,0,1,156.286,8.694Zm6.1,1.424c0,1.371.809,2.136,2.584,2.566l1.626.4c1.011.246,1.5.686,1.5,1.336,0,.87-.914,1.477-2.188,1.477a2.087,2.087,0,0,1-2.224-1.31h-1.556c.167,1.573,1.617,2.584,3.727,2.584,2.153,0,3.8-1.169,3.8-2.865,0-1.362-.861-2.136-2.646-2.566l-1.459-.352c-1.116-.272-1.644-.677-1.644-1.327,0-.844.879-1.415,2-1.415A1.931,1.931,0,0,1,168,9.9h1.494c-.2-1.556-1.582-2.54-3.568-2.54C163.91,7.358,162.39,8.545,162.39,10.118ZM172.643,5.7a1.055,1.055,0,1,0-1.055-1.055A1.058,1.058,0,0,0,172.643,5.7ZM171.887,17H173.4V7.525h-1.512Zm11.949-9.475h-1.617l-2.593,7.8h-.141l-2.593-7.8h-1.617L178.782,17h1.547Zm7.765,7.022a2.454,2.454,0,0,1-2.443,1.283c-1.608,0-2.654-1.187-2.733-3.059V12.7h6.812v-.58c0-2.944-1.556-4.764-4.113-4.764-2.6,0-4.271,1.934-4.271,4.913,0,3,1.644,4.9,4.271,4.9,2.074,0,3.551-1,3.99-2.619Zm-2.5-5.854a2.55,2.55,0,0,1,2.54,2.786h-5.221A2.7,2.7,0,0,1,189.1,8.694ZM9.158,33.525H7.541l-2.593,7.8H4.808l-2.593-7.8H.6L4.1,43H5.651Zm7.765,7.022a2.454,2.454,0,0,1-2.443,1.283c-1.608,0-2.654-1.187-2.733-3.059V38.7h6.812v-.58c0-2.944-1.556-4.764-4.113-4.764-2.6,0-4.271,1.934-4.271,4.913,0,3,1.644,4.9,4.271,4.9,2.074,0,3.551-1,3.99-2.619Zm-2.5-5.854a2.55,2.55,0,0,1,2.54,2.786H11.747A2.7,2.7,0,0,1,14.427,34.694ZM20.839,43h1.512V29.764H20.839Zm12.107-6.574a3.718,3.718,0,0,0-3.973-3.067c-2.654,0-4.342,1.916-4.342,4.869,0,3.015,1.7,4.939,4.351,4.939a3.66,3.66,0,0,0,3.964-3.023H31.417A2.28,2.28,0,0,1,28.974,41.8c-1.687,0-2.777-1.389-2.777-3.577,0-2.145,1.072-3.507,2.777-3.507a2.348,2.348,0,0,1,2.443,1.705ZM35,43H36.51V37.129A2.32,2.32,0,0,1,39,34.826a6.07,6.07,0,0,1,.967.088V33.4a6.492,6.492,0,0,0-.756-.044,2.645,2.645,0,0,0-2.628,1.573H36.44V33.525H35Zm10.305.167c2.7,0,4.368-1.863,4.368-4.9s-1.67-4.9-4.368-4.9-4.368,1.854-4.368,4.9S42.606,43.167,45.3,43.167Zm0-1.362c-1.793,0-2.8-1.3-2.8-3.542s1.011-3.542,2.8-3.542,2.8,1.292,2.8,3.542S47.1,41.8,45.3,41.8Zm11.242-5.687c0,1.371.809,2.136,2.584,2.566l1.626.4c1.011.246,1.5.686,1.5,1.336,0,.87-.914,1.477-2.188,1.477a2.087,2.087,0,0,1-2.224-1.31H56.291c.167,1.573,1.617,2.584,3.727,2.584,2.153,0,3.8-1.169,3.8-2.865,0-1.362-.861-2.136-2.646-2.566l-1.459-.352c-1.116-.272-1.644-.677-1.644-1.327,0-.844.879-1.415,2-1.415A1.931,1.931,0,0,1,62.153,35.9h1.494c-.2-1.556-1.582-2.54-3.568-2.54C58.066,33.358,56.546,34.545,56.546,36.118Zm10.007-5.045v2.452H65.023v1.266h1.529v5.748c0,1.811.782,2.531,2.733,2.531a5.064,5.064,0,0,0,.888-.088V41.708a6.384,6.384,0,0,1-.7.035c-.984,0-1.406-.475-1.406-1.591V34.791h2.109V33.525H68.064V31.073ZM72.278,43H73.79V37.129a2.32,2.32,0,0,1,2.487-2.3,6.07,6.07,0,0,1,.967.088V33.4a6.492,6.492,0,0,0-.756-.044,2.645,2.645,0,0,0-2.628,1.573H73.72V33.525H72.278Zm9.312.167A3.273,3.273,0,0,0,84.509,41.6h.141V43h1.441V36.514c0-1.969-1.292-3.155-3.6-3.155-2.021,0-3.516,1-3.718,2.522H80.3c.211-.747,1-1.178,2.136-1.178,1.415,0,2.145.642,2.145,1.811v.861l-2.733.167c-2.206.132-3.454,1.107-3.454,2.8C78.391,42.077,79.754,43.167,81.591,43.167Zm.281-1.327c-1.1,0-1.916-.562-1.916-1.529,0-.949.633-1.45,2.074-1.547l2.549-.167v.87A2.492,2.492,0,0,1,81.872,41.84ZM93.32,33.358a3.416,3.416,0,0,0-3.032,1.749h-.141V33.525H88.706V46.164h1.512V41.576h.141a3.18,3.18,0,0,0,2.962,1.591c2.408,0,3.981-1.942,3.981-4.9C97.3,35.283,95.737,33.358,93.32,33.358Zm-.36,8.446c-1.705,0-2.786-1.371-2.786-3.542s1.081-3.542,2.795-3.542c1.731,0,2.769,1.327,2.769,3.542S94.7,41.8,92.959,41.8Zm6.315-5.687c0,1.371.809,2.136,2.584,2.566l1.626.4c1.011.246,1.5.686,1.5,1.336,0,.87-.914,1.477-2.188,1.477a2.087,2.087,0,0,1-2.224-1.31H99.02c.167,1.573,1.617,2.584,3.727,2.584,2.153,0,3.8-1.169,3.8-2.865,0-1.362-.861-2.136-2.646-2.566l-1.459-.352c-1.116-.272-1.644-.677-1.644-1.327,0-.844.879-1.415,2-1.415a1.931,1.931,0,0,1,2.083,1.257h1.494c-.2-1.556-1.582-2.54-3.568-2.54C100.8,33.358,99.275,34.545,99.275,36.118Zm10.71,6.97a1.143,1.143,0,1,0-1.143-1.143A1.146,1.146,0,0,0,109.984,43.088Z" transform="translate(-8978.5 10298.5)"/><path d="M8.531,1.969h1.627v-2.3c3.459-.26,6.166-2.146,6.166-5.5,0-2.912-1.955-4.389-5.551-5.223l-.615-.15v-5.715a3.267,3.267,0,0,1,3.117,2.939h2.83c-.109-3.09-2.557-5.141-5.947-5.414v-2.324H8.531v2.324c-3.418.26-5.865,2.27-5.865,5.332,0,2.775,1.873,4.334,5.346,5.141l.52.137v5.961c-2.174-.232-3.2-1.408-3.445-3.008H2.242C2.352-2.557,5.072-.6,8.531-.328ZM5.564-14.287c0-1.244,1.012-2.379,2.967-2.625v5.332C6.371-12.127,5.564-13.043,5.564-14.287Zm7.875,8.736c0,1.463-.984,2.557-3.281,2.748V-8.408C12.66-7.807,13.439-6.973,13.439-5.551ZM27.686.479c4.594,0,7.273-3.787,7.273-10.322s-2.721-10.363-7.273-10.363c-4.58,0-7.3,3.814-7.3,10.322C20.385-3.322,23.078.479,27.686.479Zm0-2.543c-2.68,0-4.211-2.734-4.211-7.82,0-5.018,1.559-7.766,4.211-7.766s4.184,2.721,4.184,7.766C31.869-4.785,30.365-2.064,27.686-2.064ZM39.963.205a1.945,1.945,0,0,0,2.01-1.969,1.945,1.945,0,0,0-2.01-1.969,1.953,1.953,0,0,0-2.01,1.969A1.953,1.953,0,0,0,39.963.205ZM52.514.479a6.61,6.61,0,0,0,7.014-6.9c0-3.937-2.734-6.508-6.07-6.508A5.1,5.1,0,0,0,49.1-11.074h-.232l.574-6.057H58.5v-2.6H47.059L45.951-8.34h2.8a4.177,4.177,0,0,1,3.855-2.187,3.84,3.84,0,0,1,3.924,4.156c0,2.57-1.613,4.293-4.006,4.293a3.717,3.717,0,0,1-3.965-3.268H45.637C45.828-1.914,48.59.479,52.514.479Z" transform="translate(-8978.5 9389.5)"/><path d="M8.531,1.969h1.627v-2.3c3.459-.26,6.166-2.146,6.166-5.5,0-2.912-1.955-4.389-5.551-5.223l-.615-.15v-5.715a3.267,3.267,0,0,1,3.117,2.939h2.83c-.109-3.09-2.557-5.141-5.947-5.414v-2.324H8.531v2.324c-3.418.26-5.865,2.27-5.865,5.332,0,2.775,1.873,4.334,5.346,5.141l.52.137v5.961c-2.174-.232-3.2-1.408-3.445-3.008H2.242C2.352-2.557,5.072-.6,8.531-.328ZM5.564-14.287c0-1.244,1.012-2.379,2.967-2.625v5.332C6.371-12.127,5.564-13.043,5.564-14.287Zm7.875,8.736c0,1.463-.984,2.557-3.281,2.748V-8.408C12.66-7.807,13.439-6.973,13.439-5.551ZM25.443,0h3.063V-19.729H25.457l-5.2,3.691v3.008l4.949-3.541h.232Z" transform="translate(-8978.5 9647.5)"/><path d="M2.967,0H6.18l8.586-17.076v-2.652H1.326v2.584H11.662v.219ZM25.033.479c4.594,0,7.273-3.787,7.273-10.322s-2.721-10.363-7.273-10.363c-4.58,0-7.3,3.814-7.3,10.322C17.732-3.322,20.426.479,25.033.479Zm0-2.543c-2.68,0-4.211-2.734-4.211-7.82,0-5.018,1.559-7.766,4.211-7.766s4.184,2.721,4.184,7.766C29.217-4.785,27.713-2.064,25.033-2.064Zm14.342-8.641c2.775,0,4.43-1.75,4.43-4.7,0-2.9-1.682-4.689-4.43-4.689s-4.43,1.791-4.43,4.689C34.945-12.455,36.6-10.705,39.375-10.705ZM40.674,0,54.113-19.729H51.557L38.1,0Zm-1.3-12.7c-1.244,0-1.955-.984-1.955-2.693,0-1.682.725-2.68,1.955-2.68s1.941,1,1.941,2.68S40.619-12.7,39.375-12.7ZM52.855.205c2.775,0,4.43-1.75,4.43-4.7,0-2.912-1.682-4.689-4.43-4.689S48.426-7.4,48.426-4.5C48.426-1.559,50.094.205,52.855.205Zm0-2.01c-1.23,0-1.941-.971-1.941-2.68,0-1.682.711-2.693,1.941-2.693s1.955,1.012,1.955,2.693S54.1-1.8,52.855-1.8Z" transform="translate(-8978.5 9538.5)"/><path d="M8.531,1.969h1.627v-2.3c3.459-.26,6.166-2.146,6.166-5.5,0-2.912-1.955-4.389-5.551-5.223l-.615-.15v-5.715a3.267,3.267,0,0,1,3.117,2.939h2.83c-.109-3.09-2.557-5.141-5.947-5.414v-2.324H8.531v2.324c-3.418.26-5.865,2.27-5.865,5.332,0,2.775,1.873,4.334,5.346,5.141l.52.137v5.961c-2.174-.232-3.2-1.408-3.445-3.008H2.242C2.352-2.557,5.072-.6,8.531-.328ZM5.564-14.287c0-1.244,1.012-2.379,2.967-2.625v5.332C6.371-12.127,5.564-13.043,5.564-14.287Zm7.875,8.736c0,1.463-.984,2.557-3.281,2.748V-8.408C12.66-7.807,13.439-6.973,13.439-5.551ZM28,.465c4.184,0,7.15-2.857,7.15-6.863a6.325,6.325,0,0,0-6.48-6.576A5.53,5.53,0,0,0,23.488-9.98h-.232c.055-5,1.859-7.643,4.936-7.643A3.392,3.392,0,0,1,31.787-15h3.076c-.492-3.131-3.035-5.209-6.74-5.209-4.8,0-7.807,3.91-7.807,10.609S23.557.465,28,.465Zm-.027-2.557A4.141,4.141,0,0,1,23.83-6.385,4.007,4.007,0,0,1,28-10.527a3.981,3.981,0,0,1,4.115,4.211A4.108,4.108,0,0,1,27.973-2.092Z" transform="translate(-8978.5 9894.5)"/><path d="M8.531,1.969h1.627v-2.3c3.459-.26,6.166-2.146,6.166-5.5,0-2.912-1.955-4.389-5.551-5.223l-.615-.15v-5.715a3.267,3.267,0,0,1,3.117,2.939h2.83c-.109-3.09-2.557-5.141-5.947-5.414v-2.324H8.531v2.324c-3.418.26-5.865,2.27-5.865,5.332,0,2.775,1.873,4.334,5.346,5.141l.52.137v5.961c-2.174-.232-3.2-1.408-3.445-3.008H2.242C2.352-2.557,5.072-.6,8.531-.328ZM5.564-14.287c0-1.244,1.012-2.379,2.967-2.625v5.332C6.371-12.127,5.564-13.043,5.564-14.287Zm7.875,8.736c0,1.463-.984,2.557-3.281,2.748V-8.408C12.66-7.807,13.439-6.973,13.439-5.551ZM25.443,0h3.063V-19.729H25.457l-5.2,3.691v3.008l4.949-3.541h.232Z" transform="translate(-8978.5 10277.5)"/><line class="b" x1="1110.786" transform="translate(-8763.285 10236.722)"/><path class="b" d="M502.445,0H0" transform="translate(-8863.039 9606.122)"/></g></g></svg>