<svg xmlns="http://www.w3.org/2000/svg" xmlns:xlink="http://www.w3.org/1999/xlink" width="2486" height="1585" viewBox="0 0 2486 1585"><defs><style>.a{clip-path:url(#b);}.al,.b,.r{fill:#fcebe7;}.b,.f,.g,.l,.m,.r{stroke:#e34019;}.b,.c,.d,.e,.f,.g{stroke-width:4px;}.c,.h,.i,.j,.k{fill:#edf9f4;}.aa,.c,.h,.i,.j,.k,.z{stroke:#55bf92;}.d,.p{fill:#e7eafb;}.d,.p,.v,.w{stroke:#1733d6;}.e,.t{fill:#f4f4f4;stroke:#292929;}.f{fill:#ffcdc1;stroke-linecap:square;stroke-dasharray:0 6;}.ag,.aj,.an,.g,.n,.s{fill:#e34019;}.aa,.h,.i,.j,.k,.l,.m,.p,.r,.t,.v,.w,.z{stroke-width:2px;}.h{opacity:0.25;}.i{opacity:0.5;}.j{opacity:0.75;}.l,.v,.z{fill:#fff;}.aa,.aq,.m,.w{fill:none;}.ab,.n,.x{font-size:35px;}.ab,.ah,.ai,.aj,.ak,.ao,.n,.q,.s,.u,.x{font-family:Space Grotesk;}.ac,.ad,.ao,.o,.q,.s,.u,.y{font-size:31px;}.ac,.ad,.o,.y{font-family:SpaceGrotesk-Medium, Space Grotesk;font-weight:500;}.af,.ak,.am,.q,.x,.y{fill:#1733d6;}.ah,.ai,.aj,.ak,.ao,.q{font-weight:700;}.ad,.ai,.u{fill:#292929;}.ab,.ac,.ae,.ah,.ao{fill:#55bf92;}.ah,.ai,.aj,.ak{font-size:46px;}.am,.an{fill-rule:evenodd;}.ap{stroke:none;}</style><clipPath id="b"><rect width="2486" height="1585"/></clipPath></defs><g id="a" class="a"><g class="b" transform="translate(1913 939)"><rect class="ap" width="570" height="560"/><rect class="aq" x="2" y="2" width="566" height="556"/></g><g class="c"><rect class="ap" width="533" height="627"/><rect class="aq" x="2" y="2" width="529" height="623"/></g><g class="d" transform="translate(757)"><rect class="ap" width="763" height="490"/><rect class="aq" x="2" y="2" width="759" height="486"/></g><g class="d" transform="translate(757 525)"><rect class="ap" width="763" height="67"/><rect class="aq" x="2" y="2" width="759" height="63"/></g><g class="e" transform="translate(757 939)"><rect class="ap" width="763" height="644"/><rect class="aq" x="2" y="2" width="759" height="640"/></g><g transform="translate(20814 -11213)"><g class="b" transform="translate(-19793 12457)"><rect class="ap" width="236" height="188"/><rect class="aq" x="2" y="2" width="232" height="184"/></g><g class="f" transform="translate(-19764 12481)"><rect class="ap" width="38" height="142"/><rect class="aq" x="2" y="2" width="34" height="138"/></g><g class="f" transform="translate(-19717 12562)"><rect class="ap" width="38" height="61"/><rect class="aq" x="2" y="2" width="34" height="57"/></g><g class="f" transform="translate(-19670 12501)"><rect class="ap" width="38" height="122"/><rect class="aq" x="2" y="2" width="34" height="118"/></g><g class="f" transform="translate(-19623 12599)"><rect class="ap" width="38" height="24"/><rect class="aq" x="2" y="2" width="34" height="20"/></g></g><g class="b" transform="translate(2020 1167)"><rect class="ap" width="357" height="245"/><rect class="aq" x="2" y="2" width="353" height="241"/></g><g transform="translate(20821 -11213)"><g class="g" transform="translate(-18712 12447)"><rect class="ap" width="38" height="142"/><rect class="aq" x="2" y="2" width="34" height="138"/></g><g class="g" transform="translate(-18665 12528)"><rect class="ap" width="38" height="61"/><rect class="aq" x="2" y="2" width="34" height="57"/></g><g class="g" transform="translate(-18618 12467)"><rect class="ap" width="38" height="122"/><rect class="aq" x="2" y="2" width="34" height="118"/></g><g class="g" transform="translate(-18571 12565)"><rect class="ap" width="38" height="24"/><rect class="aq" x="2" y="2" width="34" height="20"/></g></g><g transform="translate(20821 -11213)"><g class="h" transform="translate(-20670 11344)"><rect class="ap" width="305" height="345"/><rect class="aq" x="1" y="1" width="303" height="343"/></g><g class="i" transform="translate(-20690 11324)"><rect class="ap" width="305" height="345"/><rect class="aq" x="1" y="1" width="303" height="343"/></g><g class="j" transform="translate(-20710 11304)"><rect class="ap" width="305" height="345"/><rect class="aq" x="1" y="1" width="303" height="343"/></g><g class="k" transform="translate(-20730 11284)"><rect class="ap" width="305" height="345"/><rect class="aq" x="1" y="1" width="303" height="343"/></g></g><g transform="translate(20821 -11214)"><g class="l" transform="translate(-19005 11517)"><rect class="ap" width="88" height="137"/><rect class="aq" x="1" y="1" width="86" height="135"/></g><g class="m" transform="translate(-19005 11517)"><rect class="ap" width="88" height="47"/><rect class="aq" x="1" y="1" width="86" height="45"/></g><g class="m" transform="translate(-19005 11562)"><rect class="ap" width="88" height="47"/><rect class="aq" x="1" y="1" width="86" height="45"/></g><g class="m" transform="translate(-19005 11517)"><rect class="ap" width="31" height="137"/><rect class="aq" x="1" y="1" width="29" height="135"/></g><g class="m" transform="translate(-18976 11517)"><rect class="ap" width="31" height="137"/><rect class="aq" x="1" y="1" width="29" height="135"/></g><text class="n" transform="translate(-18998 11643)"><tspan x="0" y="0">z</tspan></text><text class="n" transform="translate(-18999 11598)"><tspan x="0" y="0">y</tspan></text><text class="n" transform="translate(-18971 11598)"><tspan x="0" y="0">9</tspan></text><text class="n" transform="translate(-18942 11598)"><tspan x="0" y="0">7</tspan></text><text class="n" transform="translate(-18942 11643)"><tspan x="0" y="0">5</tspan></text><text class="n" transform="translate(-18971 11643)"><tspan x="0" y="0">3</tspan></text><text class="n" transform="translate(-18971 11553)"><tspan x="0" y="0">a</tspan></text><text class="n" transform="translate(-18943 11553)"><tspan x="0" y="0">b</tspan></text><text class="o" transform="translate(-18961 11685)"><tspan x="-113.661" y="0">JSON encoded </tspan><tspan x="-78.089" y="40">Dataframe</tspan></text></g><g transform="translate(20821 -11213)"><g class="p" transform="translate(-19805 12035)"><rect class="ap" width="173" height="49"/><rect class="aq" x="1" y="1" width="171" height="47"/></g><text class="q" transform="translate(-19793 12071)"><tspan x="0" y="0">Config123</tspan></text></g><g transform="translate(20821 -11213)"><g class="r" transform="translate(-19277 12527)"><rect class="ap" width="346" height="49"/><rect class="aq" x="1" y="1" width="344" height="47"/></g><text class="s" transform="translate(-19263 12563)"><tspan x="0" y="0">www.plot.net/myplot</tspan></text><text class="o" transform="translate(-19103.5 12607)"><tspan x="-113.073" y="0">Returns link to </tspan><tspan x="-143.049" y="40">online visualization</tspan></text></g><g transform="translate(21330 -11551)"><g class="r" transform="translate(-19277 12527)"><rect class="ap" width="291" height="49"/><rect class="aq" x="1" y="1" width="289" height="47"/></g><text class="s" transform="translate(-19260 12563)"><tspan x="0" y="0">www.plot.net/API</tspan></text></g><g transform="translate(20141 -11552)"><g class="t" transform="translate(-19277 12527)"><rect class="ap" width="549" height="49"/><rect class="aq" x="1" y="1" width="547" height="47"/></g><text class="u" transform="translate(-19258 12563)"><tspan x="0" y="0">www.micromix.systems/Config123</tspan></text></g><g transform="translate(20821 -11213)"><g class="p" transform="translate(-20064 11840)"><rect class="ap" width="234" height="276"/><rect class="aq" x="1" y="1" width="232" height="274"/></g><g transform="translate(-935 446)"><g class="v" transform="translate(-19005 11517)"><rect class="ap" width="88" height="137"/><rect class="aq" x="1" y="1" width="86" height="135"/></g><g class="w" transform="translate(-19005 11517)"><rect class="ap" width="88" height="47"/><rect class="aq" x="1" y="1" width="86" height="45"/></g><g class="w" transform="translate(-19005 11562)"><rect class="ap" width="88" height="47"/><rect class="aq" x="1" y="1" width="86" height="45"/></g><g class="w" transform="translate(-19005 11517)"><rect class="ap" width="31" height="137"/><rect class="aq" x="1" y="1" width="29" height="135"/></g><g class="w" transform="translate(-18976 11517)"><rect class="ap" width="31" height="137"/><rect class="aq" x="1" y="1" width="29" height="135"/></g><text class="x" transform="translate(-19000 11643)"><tspan x="0" y="0">x</tspan></text><text class="x" transform="translate(-19003 11598)"><tspan x="0" y="0">w</tspan></text><text class="x" transform="translate(-18971 11598)"><tspan x="0" y="0">2</tspan></text><text class="x" transform="translate(-18942 11598)"><tspan x="0" y="0">6</tspan></text><text class="x" transform="translate(-18942 11643)"><tspan x="0" y="0">2</tspan></text><text class="x" transform="translate(-18971 11643)"><tspan x="0" y="0">8</tspan></text><text class="x" transform="translate(-18971 11553)"><tspan x="0" y="0">c</tspan></text><text class="x" transform="translate(-18943 11553)"><tspan x="0" y="0">d</tspan></text></g><g transform="translate(-1037 446)"><g class="v" transform="translate(-19005 11517)"><rect class="ap" width="88" height="137"/><rect class="aq" x="1" y="1" width="86" height="135"/></g><g class="w" transform="translate(-19005 11517)"><rect class="ap" width="88" height="47"/><rect class="aq" x="1" y="1" width="86" height="45"/></g><g class="w" transform="translate(-19005 11562)"><rect class="ap" width="88" height="47"/><rect class="aq" x="1" y="1" width="86" height="45"/></g><g class="w" transform="translate(-19005 11517)"><rect class="ap" width="31" height="137"/><rect class="aq" x="1" y="1" width="29" height="135"/></g><g class="w" transform="translate(-18976 11517)"><rect class="ap" width="31" height="137"/><rect class="aq" x="1" y="1" width="29" height="135"/></g><text class="x" transform="translate(-18998 11643)"><tspan x="0" y="0">z</tspan></text><text class="x" transform="translate(-18999 11598)"><tspan x="0" y="0">y</tspan></text><text class="x" transform="translate(-18971 11598)"><tspan x="0" y="0">9</tspan></text><text class="x" transform="translate(-18942 11598)"><tspan x="0" y="0">7</tspan></text><text class="x" transform="translate(-18942 11643)"><tspan x="0" y="0">5</tspan></text><text class="x" transform="translate(-18971 11643)"><tspan x="0" y="0">3</tspan></text><text class="x" transform="translate(-18971 11553)"><tspan x="0" y="0">a</tspan></text><text class="x" transform="translate(-18943 11553)"><tspan x="0" y="0">b</tspan></text></g><text class="y" transform="translate(-20043 11880)"><tspan x="0" y="0">Filters: {…}</tspan></text><text class="y" transform="translate(-20043 11917)"><tspan x="0" y="0">Plugins: {…}</tspan></text><text class="y" transform="translate(-20043 11954)"><tspan x="0" y="0">Dataframes:</tspan></text><text class="o" transform="translate(-20178 11965)"><tspan x="-113.661" y="0">JSON encoded </tspan><tspan x="-94.829" y="40">session data</tspan></text></g><g transform="translate(19283 -11288)"><g class="z" transform="translate(-19005 11517)"><rect class="ap" width="88" height="137"/><rect class="aq" x="1" y="1" width="86" height="135"/></g><g class="aa" transform="translate(-19005 11517)"><rect class="ap" width="88" height="47"/><rect class="aq" x="1" y="1" width="86" height="45"/></g><g class="aa" transform="translate(-19005 11562)"><rect class="ap" width="88" height="47"/><rect class="aq" x="1" y="1" width="86" height="45"/></g><g class="aa" transform="translate(-19005 11517)"><rect class="ap" width="31" height="137"/><rect class="aq" x="1" y="1" width="29" height="135"/></g><g class="aa" transform="translate(-18976 11517)"><rect class="ap" width="31" height="137"/><rect class="aq" x="1" y="1" width="29" height="135"/></g><text class="ab" transform="translate(-18999 11643)"><tspan x="0" y="0">x</tspan></text><text class="ab" transform="translate(-19003 11598)"><tspan x="0" y="0">w</tspan></text><text class="ab" transform="translate(-18971 11598)"><tspan x="0" y="0">2</tspan></text><text class="ab" transform="translate(-18942 11598)"><tspan x="0" y="0">6</tspan></text><text class="ab" transform="translate(-18942 11643)"><tspan x="0" y="0">2</tspan></text><text class="ab" transform="translate(-18971 11643)"><tspan x="0" y="0">8</tspan></text><text class="ab" transform="translate(-18971 11553)"><tspan x="0" y="0">c</tspan></text><text class="ab" transform="translate(-18943 11553)"><tspan x="0" y="0">d</tspan></text></g><g transform="translate(19181 -11288)"><g class="z" transform="translate(-19005 11517)"><rect class="ap" width="88" height="137"/><rect class="aq" x="1" y="1" width="86" height="135"/></g><g class="z" transform="translate(-19005 11517)"><rect class="ap" width="88" height="47"/><rect class="aq" x="1" y="1" width="86" height="45"/></g><g class="z" transform="translate(-19005 11562)"><rect class="ap" width="88" height="47"/><rect class="aq" x="1" y="1" width="86" height="45"/></g><g class="aa" transform="translate(-19005 11517)"><rect class="ap" width="31" height="137"/><rect class="aq" x="1" y="1" width="29" height="135"/></g><g class="aa" transform="translate(-18976 11517)"><rect class="ap" width="31" height="137"/><rect class="aq" x="1" y="1" width="29" height="135"/></g><text class="ab" transform="translate(-18998 11643)"><tspan x="0" y="0">z</tspan></text><text class="ab" transform="translate(-18999 11598)"><tspan x="0" y="0">y</tspan></text><text class="ab" transform="translate(-18971 11598)"><tspan x="0" y="0">9</tspan></text><text class="ab" transform="translate(-18942 11598)"><tspan x="0" y="0">7</tspan></text><text class="ab" transform="translate(-18942 11643)"><tspan x="0" y="0">5</tspan></text><text class="ab" transform="translate(-18971 11643)"><tspan x="0" y="0">3</tspan></text><text class="ab" transform="translate(-18971 11553)"><tspan x="0" y="0">a</tspan></text><text class="ab" transform="translate(-18943 11553)"><tspan x="0" y="0">b</tspan></text></g><text class="ac" transform="translate(175 146)"><tspan x="0" y="0">Filters: {…}</tspan></text><text class="ac" transform="translate(107 109)"><tspan x="0" y="0" xml:space="preserve">CONFIG123:   {</tspan></text><text class="ac" transform="translate(107 400)"><tspan x="0" y="0">}</tspan></text><text class="ac" transform="translate(175 183)"><tspan x="0" y="0">Plugins: {…}</tspan></text><text class="ac" transform="translate(175 220)"><tspan x="0" y="0">Dataframes:</tspan></text><text class="ac" transform="translate(264.5 517)"><tspan x="-136.695" y="0">MongoDB session </tspan><tspan x="-188.945" y="40">documents with Parquet </tspan><tspan x="-156.023" y="80">encoded dataframes</tspan></text><text class="ad" transform="translate(1146.5 1463)"><tspan x="-150.784" y="0">Display remote web </tspan><tspan x="-174.329" y="40">content in HTML iframe</tspan></text><text class="s" transform="translate(2040 1207)"><tspan x="0" y="0">www.plot.net/myplot</tspan></text><g class="p" transform="translate(1257 663)"><rect class="ap" width="263" height="122"/><rect class="aq" x="1" y="1" width="261" height="120"/></g><text class="o" transform="translate(1641 715)"><tspan x="-113.661" y="0">JSON encoded </tspan><tspan x="-82.615" y="40">Commands</tspan></text><text class="y" transform="translate(1268 698)"><tspan x="0" y="0">Filter: {…}</tspan></text><text class="y" transform="translate(1268 735)"><tspan x="0" y="0">Transform: {…}</tspan></text><text class="y" transform="translate(1268 772)"><tspan x="0" y="0">File: data.xls</tspan></text><rect class="ae" width="340" height="10" transform="translate(417 135)"/><rect class="af" width="482" height="10" transform="translate(396 367)"/><rect class="af" width="158" height="10" transform="translate(878 367) rotate(90)"/><rect class="af" width="35" height="10" transform="translate(878 592) rotate(90)"/><rect class="af" width="15" height="10" transform="translate(878 903) rotate(90)"/><rect class="af" width="83" height="10" transform="translate(1108 871) rotate(90)"/><rect class="af" width="230" height="10" transform="translate(1108 592) rotate(90)"/><rect class="af" width="14" height="10" transform="translate(1108 511) rotate(90)"/><rect class="af" width="14" height="10" transform="translate(1393.5 511) rotate(90)"/><rect class="af" width="71" height="10" transform="translate(1393.5 592) rotate(90)"/><rect class="af" width="154" height="10" transform="translate(1393.5 785) rotate(90)"/><rect class="ag" width="265.787" height="10" transform="translate(1544 1343.5) rotate(180)"/><rect class="ag" width="588.287" height="10" transform="translate(2193 954.787) rotate(-90)"/><rect class="ag" width="120.787" height="10" transform="translate(2193 1145.787) rotate(-90)"/><rect class="ag" width="299" height="10" transform="translate(1904 366.5)"/><rect class="ag" width="296" height="10" transform="translate(1520 366.5)"/><rect class="ag" width="23" height="10" transform="translate(1913 1343.5) rotate(180)"/><path class="ae" d="M0,0,30,30H0Z" transform="translate(417 118.287) rotate(45)"/><text class="ah" transform="translate(267 51)"><tspan x="-199.18" y="0">MONGO DATABASE</tspan></text><text class="ai" transform="translate(1139 1570)"><tspan x="-94.944" y="0">WEBSITE</tspan></text><text class="aj" transform="translate(2198 1486)"><tspan x="-241.27" y="0">PLOTTING WEBSERVER</tspan></text><text class="ak" transform="translate(1139 575)"><tspan x="-155.94" y="0">FLASK SERVER</tspan></text><text class="ak" transform="translate(1139 50)"><tspan x="-195.73" y="0">PYTHON BACKEND</tspan></text><path class="af" d="M0,0,30,30H0Z" transform="translate(851.787 917.787) rotate(-45)"/><path class="af" d="M0,0,30,30H0Z" transform="translate(1081.287 953.787) rotate(-45)"/><path class="af" d="M0,0,30,30H0Z" transform="translate(1124.213 511.213) rotate(135)"/><path class="af" d="M0,0,30,30H0Z" transform="translate(1409.713 511.213) rotate(135)"/><text class="ad" transform="translate(996 1075)"><tspan x="0" y="0">VUE.JS/HTMLC/CSS</tspan></text><text class="y" transform="translate(1081 136)"><tspan x="0" y="0">PANDAS</tspan></text><text class="y" transform="translate(1086 181)"><tspan x="0" y="0">NUMPY</tspan></text><text class="y" transform="translate(1065 226)"><tspan x="0" y="0">PYMONGO</tspan></text><text class="ad" transform="translate(1040 1120)"><tspan x="0" y="0">UPLOAD DATA</tspan></text><text class="ad" transform="translate(1049 1165)"><tspan x="0" y="0">ADD FILTERS</tspan></text><text class="ad" transform="translate(963 1210)"><tspan x="0" y="0">ADD TRANSFORMATIONS</tspan></text><path class="ag" d="M0,0,30,30H0Z" transform="translate(1278.213 1316.787) rotate(45)"/><path class="ag" d="M0,0,30,30H0Z" transform="translate(2176.787 954.787) rotate(-45)"/><path class="ag" d="M0,0,30,30H0Z" transform="translate(2176.787 1145.787) rotate(-45)"/><rect class="al" width="80" height="75" transform="translate(2158 1050)"/><g transform="translate(20794.787 -10729.254)"><g transform="translate(-19696.789 11027.999)"><path class="am" d="M19.883,3.658a1.963,1.963,0,0,0-3.766,0l-.211.718A4.214,4.214,0,0,1,9.848,6.885l-.657-.36A1.965,1.965,0,0,0,6.527,9.191l.358.657a4.214,4.214,0,0,1-2.509,6.057l-.718.211a1.963,1.963,0,0,0,0,3.766l.718.211a4.214,4.214,0,0,1,2.509,6.059l-.36.655a1.965,1.965,0,0,0,2.666,2.664l.657-.358a4.214,4.214,0,0,1,6.057,2.511l.211.716a1.963,1.963,0,0,0,3.766,0l.211-.718a4.214,4.214,0,0,1,6.059-2.509l.655.36a1.965,1.965,0,0,0,2.664-2.666l-.358-.655a4.214,4.214,0,0,1,2.511-6.059l.716-.211a1.963,1.963,0,0,0,0-3.766l-.718-.211a4.214,4.214,0,0,1-2.509-6.057l.36-.657a1.965,1.965,0,0,0-2.666-2.664l-.655.358a4.214,4.214,0,0,1-6.059-2.509l-.211-.718Zm-5.924-.637a4.213,4.213,0,0,1,8.082,0l.211.718a1.964,1.964,0,0,0,2.824,1.17l.657-.36a4.214,4.214,0,0,1,5.715,5.717l-.358.657a1.964,1.964,0,0,0,1.17,2.824l.718.211a4.213,4.213,0,0,1,0,8.082l-.718.211a1.964,1.964,0,0,0-1.17,2.824l.36.657a4.214,4.214,0,0,1-5.717,5.715l-.657-.358a1.964,1.964,0,0,0-2.824,1.17l-.211.718a4.213,4.213,0,0,1-8.082,0l-.211-.718a1.964,1.964,0,0,0-2.824-1.17l-.657.36a4.214,4.214,0,0,1-5.715-5.717l.358-.657a1.964,1.964,0,0,0-1.17-2.824l-.718-.211a4.213,4.213,0,0,1,0-8.082l.718-.211a1.964,1.964,0,0,0,1.17-2.824l-.36-.657a4.214,4.214,0,0,1,5.717-5.715l.657.358a1.964,1.964,0,0,0,2.824-1.17l.211-.718Z"/><path class="am" d="M18,12.946A5.054,5.054,0,1,0,23.053,18,5.053,5.053,0,0,0,18,12.946ZM10.7,18A7.3,7.3,0,1,1,18,25.3,7.3,7.3,0,0,1,10.7,18Z"/></g><g transform="translate(-19663.684 11041.996) rotate(17)"><path class="am" d="M26.654,4.9a2.631,2.631,0,0,0-5.049,0l-.283.963A5.649,5.649,0,0,1,13.2,9.23l-.881-.483a2.634,2.634,0,0,0-3.571,3.574l.48.881a5.649,5.649,0,0,1-3.364,8.12L4.9,21.6a2.631,2.631,0,0,0,0,5.049l.963.283a5.649,5.649,0,0,1,3.364,8.123l-.483.878a2.634,2.634,0,0,0,3.574,3.571l.881-.48a5.649,5.649,0,0,1,8.12,3.366l.283.96a2.631,2.631,0,0,0,5.049,0l.283-.963a5.649,5.649,0,0,1,8.123-3.364l.878.483a2.634,2.634,0,0,0,3.571-3.574l-.48-.878a5.649,5.649,0,0,1,3.366-8.123l.96-.283a2.631,2.631,0,0,0,0-5.049l-.963-.283a5.649,5.649,0,0,1-3.364-8.12l.483-.881A2.634,2.634,0,0,0,35.936,8.75l-.878.48a5.649,5.649,0,0,1-8.123-3.364L26.653,4.9ZM18.713,4.05a5.649,5.649,0,0,1,10.835,0l.283.963a2.633,2.633,0,0,0,3.786,1.568L34.5,6.1a5.649,5.649,0,0,1,7.661,7.664l-.48.881a2.633,2.633,0,0,0,1.568,3.786l.963.283a5.649,5.649,0,0,1,0,10.835l-.963.283a2.633,2.633,0,0,0-1.568,3.786l.483.881A5.649,5.649,0,0,1,34.5,42.157l-.881-.48a2.633,2.633,0,0,0-3.786,1.568l-.283.963a5.649,5.649,0,0,1-10.835,0l-.283-.963a2.633,2.633,0,0,0-3.786-1.568l-.881.483A5.649,5.649,0,0,1,6.1,34.5l.48-.881a2.633,2.633,0,0,0-1.568-3.786l-.963-.283a5.649,5.649,0,0,1,0-10.835l.963-.283a2.633,2.633,0,0,0,1.568-3.786L6.1,13.762A5.65,5.65,0,0,1,13.763,6.1l.881.48A2.633,2.633,0,0,0,18.43,5.012l.283-.963Z"/><path class="am" d="M20.488,13.712a6.775,6.775,0,1,0,6.775,6.775,6.775,6.775,0,0,0-6.775-6.775ZM10.7,20.487a9.791,9.791,0,1,1,9.791,9.791A9.791,9.791,0,0,1,10.7,20.487Z" transform="translate(3.642 3.643)"/></g></g><g transform="translate(21855.16 -9977.68)"><g transform="translate(-19696.789 11027.999)"><path class="an" d="M19.883,3.658a1.963,1.963,0,0,0-3.766,0l-.211.718A4.214,4.214,0,0,1,9.848,6.885l-.657-.36A1.965,1.965,0,0,0,6.527,9.191l.358.657a4.214,4.214,0,0,1-2.509,6.057l-.718.211a1.963,1.963,0,0,0,0,3.766l.718.211a4.214,4.214,0,0,1,2.509,6.059l-.36.655a1.965,1.965,0,0,0,2.666,2.664l.657-.358a4.214,4.214,0,0,1,6.057,2.511l.211.716a1.963,1.963,0,0,0,3.766,0l.211-.718a4.214,4.214,0,0,1,6.059-2.509l.655.36a1.965,1.965,0,0,0,2.664-2.666l-.358-.655a4.214,4.214,0,0,1,2.511-6.059l.716-.211a1.963,1.963,0,0,0,0-3.766l-.718-.211a4.214,4.214,0,0,1-2.509-6.057l.36-.657a1.965,1.965,0,0,0-2.666-2.664l-.655.358a4.214,4.214,0,0,1-6.059-2.509l-.211-.718Zm-5.924-.637a4.213,4.213,0,0,1,8.082,0l.211.718a1.964,1.964,0,0,0,2.824,1.17l.657-.36a4.214,4.214,0,0,1,5.715,5.717l-.358.657a1.964,1.964,0,0,0,1.17,2.824l.718.211a4.213,4.213,0,0,1,0,8.082l-.718.211a1.964,1.964,0,0,0-1.17,2.824l.36.657a4.214,4.214,0,0,1-5.717,5.715l-.657-.358a1.964,1.964,0,0,0-2.824,1.17l-.211.718a4.213,4.213,0,0,1-8.082,0l-.211-.718a1.964,1.964,0,0,0-2.824-1.17l-.657.36a4.214,4.214,0,0,1-5.715-5.717l.358-.657a1.964,1.964,0,0,0-1.17-2.824l-.718-.211a4.213,4.213,0,0,1,0-8.082l.718-.211a1.964,1.964,0,0,0,1.17-2.824l-.36-.657a4.214,4.214,0,0,1,5.717-5.715l.657.358a1.964,1.964,0,0,0,2.824-1.17l.211-.718Z"/><path class="an" d="M18,12.946A5.054,5.054,0,1,0,23.053,18,5.053,5.053,0,0,0,18,12.946ZM10.7,18A7.3,7.3,0,1,1,18,25.3,7.3,7.3,0,0,1,10.7,18Z"/></g><g transform="translate(-19663.684 11041.996) rotate(17)"><path class="an" d="M26.654,4.9a2.631,2.631,0,0,0-5.049,0l-.283.963A5.649,5.649,0,0,1,13.2,9.23l-.881-.483a2.634,2.634,0,0,0-3.571,3.574l.48.881a5.649,5.649,0,0,1-3.364,8.12L4.9,21.6a2.631,2.631,0,0,0,0,5.049l.963.283a5.649,5.649,0,0,1,3.364,8.123l-.483.878a2.634,2.634,0,0,0,3.574,3.571l.881-.48a5.649,5.649,0,0,1,8.12,3.366l.283.96a2.631,2.631,0,0,0,5.049,0l.283-.963a5.649,5.649,0,0,1,8.123-3.364l.878.483a2.634,2.634,0,0,0,3.571-3.574l-.48-.878a5.649,5.649,0,0,1,3.366-8.123l.96-.283a2.631,2.631,0,0,0,0-5.049l-.963-.283a5.649,5.649,0,0,1-3.364-8.12l.483-.881A2.634,2.634,0,0,0,35.936,8.75l-.878.48a5.649,5.649,0,0,1-8.123-3.364L26.653,4.9ZM18.713,4.05a5.649,5.649,0,0,1,10.835,0l.283.963a2.633,2.633,0,0,0,3.786,1.568L34.5,6.1a5.649,5.649,0,0,1,7.661,7.664l-.48.881a2.633,2.633,0,0,0,1.568,3.786l.963.283a5.649,5.649,0,0,1,0,10.835l-.963.283a2.633,2.633,0,0,0-1.568,3.786l.483.881A5.649,5.649,0,0,1,34.5,42.157l-.881-.48a2.633,2.633,0,0,0-3.786,1.568l-.283.963a5.649,5.649,0,0,1-10.835,0l-.283-.963a2.633,2.633,0,0,0-3.786-1.568l-.881.483A5.649,5.649,0,0,1,6.1,34.5l.48-.881a2.633,2.633,0,0,0-1.568-3.786l-.963-.283a5.649,5.649,0,0,1,0-10.835l.963-.283a2.633,2.633,0,0,0,1.568-3.786L6.1,13.762A5.65,5.65,0,0,1,13.763,6.1l.881.48A2.633,2.633,0,0,0,18.43,5.012l.283-.963Z"/><path class="an" d="M20.488,13.712a6.775,6.775,0,1,0,6.775,6.775,6.775,6.775,0,0,0-6.775-6.775ZM10.7,20.487a9.791,9.791,0,1,1,9.791,9.791A9.791,9.791,0,0,1,10.7,20.487Z" transform="translate(3.642 3.643)"/></g></g><g transform="translate(20363 -11920)"><g class="k" transform="translate(-19805 12035)"><rect class="ap" width="173" height="49"/><rect class="aq" x="1" y="1" width="171" height="47"/></g><text class="ao" transform="translate(-19793 12071)"><tspan x="0" y="0">Config123</tspan></text><text class="o" transform="translate(-19718 12115)"><tspan x="-72.292" y="0">MongoDB</tspan></text></g></g></svg>