<svg xmlns="http://www.w3.org/2000/svg" width="733" height="56.865" viewBox="0 0 733 56.865"><defs><style>.a{fill:#005aa0;}</style></defs><path class="a" d="M30.054,22.754V0H40.768V56.19H30.054V33.5H10.777V56.19H0V0H10.808V22.754Z"/><path class="a" d="M180.708,56.19H169.9V0h10.808Z" transform="translate(-116.207)"/><path class="a" d="M286.011,56.19H273.686L264.71,40.009h-9.7V56.19H244.2V0h25.693a9.021,9.021,0,0,1,6.352,2.623l5.531,5.531a8.889,8.889,0,0,1,2.623,6.352V25.282a9.021,9.021,0,0,1-2.623,6.352L275.8,37.608,286.011,56.19ZM254.945,29.17H268.44a1.745,1.745,0,0,0,1.233-.506l3.413-3.413a1.745,1.745,0,0,0,.506-1.233V16.054a1.745,1.745,0,0,0-.506-1.233l-3.413-3.445a1.745,1.745,0,0,0-1.233-.506H255.008V29.2Z" transform="translate(-167.025)"/><path class="a" d="M424.013,56.19H413.3V0h10.713Z" transform="translate(-282.685)"/><path class="a" d="M570.862,9.765V0h4.582V24.081h-4.582v-9.7h-8.248v9.7H558V0h4.582V9.765Z" transform="translate(-381.655)"/><path class="a" d="M644.893,0V4.582H634.306V9.7h9.2v4.582h-9.2V19.4h10.587v4.677H631.968a.547.547,0,0,1-.506-.221l-1.454-1.454a.746.746,0,0,1-.221-.506V2.275a.547.547,0,0,1,.221-.506L631.462.316a.746.746,0,0,1,.506-.221h12.926Z" transform="translate(-430.751)"/><path class="a" d="M695.481,24.081a.547.547,0,0,1-.506-.221l-1.454-1.454a.746.746,0,0,1-.221-.506V0h4.582V19.5h10.081v4.582Z" transform="translate(-474.196)"/><path class="a" d="M772.658,0V24.081h-4.582V10.808l-3.792,7.869a.831.831,0,0,1-.664.442h-2.686a.771.771,0,0,1-.727-.442l-3.792-7.869V24.081H751.8V0h4.582l5.847,12.2L768.044,0Z" transform="translate(-514.209)"/><path class="a" d="M845.962,9.765V0h4.677V24.081h-4.677v-9.7h-8.248v9.7H833.1V0h4.582V9.765Z" transform="translate(-569.815)"/><path class="a" d="M916.179,1.234l2.4,2.4a3.751,3.751,0,0,1,1.106,2.686v11.6a4.032,4.032,0,0,1-1.106,2.686l-2.4,2.4a3.751,3.751,0,0,1-2.686,1.106h-5.4a3.972,3.972,0,0,1-2.781-1.106l-2.4-2.4a3.751,3.751,0,0,1-1.106-2.686V6.354a4.032,4.032,0,0,1,1.106-2.686l2.4-2.4A3.976,3.976,0,0,1,908.089.1h5.4A3.657,3.657,0,0,1,916.179,1.234Zm-1.106,16.054V6.986a.547.547,0,0,0-.221-.506L913.4,5.027a.811.811,0,0,0-.569-.221h-4.172a.629.629,0,0,0-.506.221L906.7,6.48a.746.746,0,0,0-.221.506v10.3a.629.629,0,0,0,.221.506l1.454,1.454a.746.746,0,0,0,.506.221h4.172a.762.762,0,0,0,.569-.221l1.454-1.454a1.038,1.038,0,0,0,.221-.506Z" transform="translate(-616.804 -0.065)"/><path class="a" d="M973.681,24.081a.547.547,0,0,1-.506-.221l-1.454-1.454a.746.746,0,0,1-.221-.506V0h4.582V19.5h10.081v4.582Z" transform="translate(-664.477)"/><path class="a" d="M1016.8,4.677V0h17.35V4.677h-6.415v19.4h-4.583V4.677Z" transform="translate(-695.461)"/><path class="a" d="M1096.838.284l1.454,1.454a.746.746,0,0,1,.221.506V3.413L1088.368,19.4h9.986v4.677h-13.716a.547.547,0,0,1-.506-.221l-1.454-1.454a.746.746,0,0,1-.221-.506V20.447l9.986-15.77H1082.3V0H1096.4a1.326,1.326,0,0,1,.443.284Z" transform="translate(-740.261)"/><path class="a" d="M560.5,130.408V108.6H558v21.806Zm4.74-15.485a15.491,15.491,0,0,1,.348,5.246v10.208h2.275v-8.659a6.542,6.542,0,0,1,.664-3.287,3.856,3.856,0,0,1,3.413-1.9,2.9,2.9,0,0,1,2.686,1.454,7.642,7.642,0,0,1,.442,3.666v8.754h2.275V121.5a9.588,9.588,0,0,0-.506-4.519,4.471,4.471,0,0,0-4.456-2.5,4.963,4.963,0,0,0-4.677,2.686,7.034,7.034,0,0,0-.284-2.275Zm27.147,4.235c-.158-3.065-2.054-4.677-5.4-4.677-3.129,0-5.341,1.77-5.341,4.393,0,2.181,1.169,3.35,4.172,4.235a12.967,12.967,0,0,1,3.413,1.233,2.055,2.055,0,0,1,1.011,1.833c0,1.675-1.233,2.686-3.287,2.686a3.109,3.109,0,0,1-3.54-2.623h0a4.666,4.666,0,0,1-.032-.664h-2.212c0,3.35,2.054,5.183,5.846,5.183,3.508,0,5.625-1.9,5.625-4.8a4.108,4.108,0,0,0-.885-2.686,7.994,7.994,0,0,0-4.172-1.959c-2.908-.885-3.571-1.327-3.571-2.623,0-1.391,1.233-2.339,3-2.339a2.878,2.878,0,0,1,3.192,2.528h0a.7.7,0,0,0,.032.253h2.117Zm7.237-4.235.063-4.456h-2.275l-.063,4.456h-2.339v1.9h2.339l-.221,7.806c-.063,1.549-.063,1.9-.063,2.5a3.7,3.7,0,0,0,.379,2.181,3.415,3.415,0,0,0,3.224,1.454,7.788,7.788,0,0,0,2.686-.506V128.2a8.068,8.068,0,0,1-2.275.6c-1.169,0-1.675-.6-1.675-1.833v-2.275l.158-7.869h3.729v-1.9Zm7.142,0v15.454h2.4V114.923ZM608,108.286a1.613,1.613,0,0,0-1.675,1.612h0v.063a1.585,1.585,0,0,0,1.549,1.612H608a1.653,1.653,0,0,0,1.675-1.612V109.9A1.7,1.7,0,0,0,608,108.286Zm9.133,6.637.063-4.456h-2.275l-.063,4.456h-2.339v1.9h2.339l-.221,7.806c-.063,1.549-.063,1.9-.063,2.5a3.7,3.7,0,0,0,.379,2.181,3.415,3.415,0,0,0,3.224,1.454,7.115,7.115,0,0,0,2.686-.506V128.2a8.068,8.068,0,0,1-2.275.6c-1.169,0-1.675-.6-1.675-1.833v-2.275l.158-7.869H620.8v-1.9Zm7.079,0V124.4a8.486,8.486,0,0,0,.569,3.95,5.112,5.112,0,0,0,4.582,2.5,4.221,4.221,0,0,0,4.172-2.5,5.676,5.676,0,0,0,.284,2.054h2.275a13.342,13.342,0,0,1-.379-4.74V114.923h-2.275v8.817a6.3,6.3,0,0,1-.569,3.224,3.472,3.472,0,0,1-3.224,1.833,2.817,2.817,0,0,1-2.56-1.169,5.413,5.413,0,0,1-.569-3.224v-9.481Zm19.467,0,.063-4.456h-2.275l-.063,4.456h-2.339v1.9H641.4l-.221,7.806c-.063,1.549-.063,1.9-.063,2.5a3.7,3.7,0,0,0,.379,2.181,3.415,3.415,0,0,0,3.224,1.454,7.115,7.115,0,0,0,2.686-.506V128.2a8.068,8.068,0,0,1-2.275.6c-1.169,0-1.675-.6-1.675-1.833v-2.275l.158-7.869h3.729v-1.9Zm18.677,8.122v-.664c0-4.8-2.465-7.869-6.257-7.869-4.077,0-6.637,3.287-6.637,8.312,0,4.9,2.623,7.964,6.795,7.964a5.69,5.69,0,0,0,5.752-4.077l-2.117-.284a3.563,3.563,0,0,1-3.571,2.339c-2.844,0-4.393-1.959-4.456-5.752l10.492.032Zm-10.492-1.77c.442-3.224,1.9-4.8,4.172-4.8,2.339,0,3.729,1.675,4.014,4.8Zm25.251-6.352v-1.011a8.283,8.283,0,0,1,.221-2.339,1.87,1.87,0,0,1,1.9-1.327,4.766,4.766,0,0,1,2.181.569V108.7a8.356,8.356,0,0,0-2.465-.506,3.739,3.739,0,0,0-3.413,1.833,7.319,7.319,0,0,0-.664,4.014v.948h-2.181v1.9h2.181v13.652h2.4V116.756h3.792v-1.9H677.08Zm12.325-.442c-3.95,0-6.795,3.35-6.795,8.027,0,4.962,2.686,8.248,6.795,8.248,4.014,0,6.795-3.35,6.795-8.185S693.45,114.48,689.437,114.48Zm0,1.991c2.623,0,4.456,2.5,4.456,6.194s-1.738,6.194-4.456,6.194-4.456-2.5-4.456-6.289c.063-3.634,1.833-6.1,4.456-6.1Zm10.429-1.549a25.137,25.137,0,0,1,.284,5.341v10.145h2.339v-6.921a11.839,11.839,0,0,1,.664-4.456,3.425,3.425,0,0,1,3-2.4,4.056,4.056,0,0,1,2.054.664v-2.275a3.63,3.63,0,0,0-1.9-.506c-1.675,0-2.907,1.169-4.014,3.792v-.948a10.193,10.193,0,0,0-.284-2.4Zm19.468-6.352v21.806H721.8v-9.323h3.792l5.467,9.354h2.907l-5.688-9.7a5.938,5.938,0,0,0,4.456-5.91,5.569,5.569,0,0,0-3.508-5.467,15.17,15.17,0,0,0-6.068-.664H719.3Zm2.5,10.366v-8.248h1.454a11.71,11.71,0,0,1,4.9.506,3.767,3.767,0,0,1,2.054,3.508,3.884,3.884,0,0,1-2.465,3.792,11.786,11.786,0,0,1-4.456.442Zm15.9-10.366v21.806h2.339V112.3l10.429,18.109h2.686V108.6h-2.339v18.172L740.318,108.6Zm26.357-.126-7.521,21.964h2.56l1.959-5.752h8.248l1.9,5.752h2.56l-7.616-21.964Zm4.456,14.063h-6.89l3.413-10.871,3.476,10.871Zm6.921-1.233v1.833H784.4v-1.833Zm11.314-12.768v17.508a14.714,14.714,0,0,1-.284,4.393h2.181a5.687,5.687,0,0,0,.284-2.181,4.526,4.526,0,0,0,4.3,2.56c3.792,0,6.289-3.287,6.289-8.248,0-4.8-2.4-8.09-5.973-8.09a4.921,4.921,0,0,0-4.456,2.686v-8.628Zm6.479,7.964c2.339,0,3.855,2.4,3.855,6.131,0,3.792-1.612,6.194-4.077,6.194s-4.077-2.4-4.077-6.068c.063-3.792,1.738-6.257,4.3-6.257Zm12.041,2.465c.285-1.77,1.391-2.56,3.413-2.56,2.339,0,3.129.885,3.129,3.224v.664a30.873,30.873,0,0,0-5.847,1.391,4.9,4.9,0,0,0-3.571,4.677c0,2.686,1.959,4.456,5.025,4.456a4.637,4.637,0,0,0,4.519-2.5,8.057,8.057,0,0,0,.379,2.117h2.181a10.527,10.527,0,0,1-.442-4.077v-5.847a9.446,9.446,0,0,0-.379-3.508c-.569-1.612-2.4-2.56-4.962-2.56-3.508,0-5.467,1.549-5.752,4.456h2.275Zm6.637,4.614a8.078,8.078,0,0,1-.569,3.445,3.7,3.7,0,0,1-3.508,1.9,2.707,2.707,0,0,1-2.971-2.465h0v-.253c0-2.117,1.9-3.224,7.079-4.172l-.032,1.549Zm17.287-4.393c-.158-3.065-2.054-4.677-5.4-4.677-3.224,0-5.341,1.77-5.341,4.393,0,2.181,1.169,3.35,4.172,4.235a12.966,12.966,0,0,1,3.413,1.233,2.055,2.055,0,0,1,1.011,1.833c0,1.675-1.233,2.686-3.287,2.686a3.109,3.109,0,0,1-3.54-2.623,4.666,4.666,0,0,1-.032-.664h-2.181c0,3.35,2.054,5.183,5.847,5.183,3.508,0,5.625-1.9,5.625-4.8a4.108,4.108,0,0,0-.885-2.686,8.244,8.244,0,0,0-4.172-1.959c-2.907-.885-3.571-1.3-3.571-2.623,0-1.391,1.233-2.339,3-2.339a2.774,2.774,0,0,1,3.1,2.4h0a1.538,1.538,0,0,1,.032.379h2.181Zm16.054,3.856v-.664c0-4.8-2.465-7.869-6.257-7.869-4.077,0-6.637,3.287-6.637,8.312,0,4.9,2.623,7.964,6.795,7.964a5.631,5.631,0,0,0,5.752-4.077l-2.117-.284a3.563,3.563,0,0,1-3.571,2.339c-2.844,0-4.393-1.959-4.456-5.752l10.492.032Zm-10.492-1.738c.443-3.224,1.9-4.8,4.172-4.8,2.339,0,3.729,1.675,4.014,4.8Zm26.262-12.768h-2.275v8.6a4.505,4.505,0,0,0-4.393-2.623c-3.634,0-6.068,3.35-6.068,8.312,0,4.9,2.465,8.027,6.257,8.027a4.633,4.633,0,0,0,4.393-2.623v.6a5.95,5.95,0,0,0,.221,1.675h2.275a18.639,18.639,0,0,1-.284-4.582v-17.35Zm-6.289,7.964c2.465,0,4.014,2.4,4.014,6.194s-1.612,6.131-4.077,6.131A3.253,3.253,0,0,1,852,127.564a8.132,8.132,0,0,1-1.391-4.8c-.032-3.887,1.517-6.289,4.14-6.289Zm22.122,13.937V108.6h-2.465v21.806Zm4.8-15.485a16.3,16.3,0,0,1,.379,5.246v10.208h2.275v-8.659a6.543,6.543,0,0,1,.664-3.287,3.856,3.856,0,0,1,3.413-1.9,2.757,2.757,0,0,1,2.686,1.454,7.6,7.6,0,0,1,.443,3.666v8.754h2.275V121.5a9.588,9.588,0,0,0-.506-4.519,4.471,4.471,0,0,0-4.456-2.5,4.963,4.963,0,0,0-4.677,2.686,7.034,7.034,0,0,0-.284-2.275Zm19.5,0v-1.011a8.283,8.283,0,0,1,.221-2.339,1.871,1.871,0,0,1,1.9-1.327,4.767,4.767,0,0,1,2.181.569V108.7a8.357,8.357,0,0,0-2.465-.506,3.925,3.925,0,0,0-3.508,1.833,7.319,7.319,0,0,0-.664,4.014v.948h-2.181v1.9h2.181v13.652h2.37V116.756H905v-1.9h-3.856Zm18.519,8.09v-.664c0-4.8-2.465-7.869-6.289-7.869-4.077,0-6.637,3.287-6.637,8.312,0,4.9,2.623,7.964,6.795,7.964a5.631,5.631,0,0,0,5.752-4.077l-2.117-.284a3.563,3.563,0,0,1-3.571,2.339c-2.844,0-4.393-1.959-4.456-5.752h10.492ZM909.2,121.275c.443-3.224,1.9-4.8,4.172-4.8,2.339,0,3.729,1.675,4.014,4.8Zm25.6-1.327c-.285-3.571-2.276-5.467-5.562-5.467-4.014,0-6.573,3.129-6.573,8.248,0,4.9,2.56,8.09,6.573,8.09,3.413,0,5.4-1.959,5.688-5.689h-2.275c-.284,2.623-1.327,3.792-3.413,3.792a3.488,3.488,0,0,1-2.465-.885,7.459,7.459,0,0,1-1.77-5.341c0-3.856,1.612-6.194,4.172-6.194,1.959,0,2.907.948,3.35,3.508H934.8Zm7.142-5.025.063-4.456h-2.275l-.063,4.456h-2.339v1.9h2.339l-.221,7.806c-.063,1.549-.063,1.9-.063,2.5a3.7,3.7,0,0,0,.379,2.181,3.415,3.415,0,0,0,3.224,1.454,7.115,7.115,0,0,0,2.686-.506v-2.023a8.068,8.068,0,0,1-2.275.6c-1.169,0-1.675-.6-1.675-1.833V124.72l.158-7.869h3.729v-1.9l-3.666-.032Zm7.142,0v15.454h2.4V114.923Zm1.264-6.637a1.613,1.613,0,0,0-1.675,1.612h0v.063a1.606,1.606,0,0,0,1.549,1.612h.126a1.613,1.613,0,0,0,1.675-1.612h0V109.9a1.7,1.7,0,0,0-1.675-1.612Zm11.82,6.194c-3.95,0-6.795,3.35-6.795,8.027,0,4.962,2.686,8.248,6.795,8.248,4.014,0,6.795-3.35,6.795-8.185s-2.781-8.09-6.795-8.09Zm0,1.991c2.623,0,4.456,2.5,4.456,6.194s-1.77,6.194-4.456,6.194-4.456-2.5-4.456-6.289c0-3.634,1.8-6.131,4.456-6.1Zm10.208-1.549a16.3,16.3,0,0,1,.379,5.246v10.208h2.275v-8.659a6.543,6.543,0,0,1,.664-3.287,3.857,3.857,0,0,1,3.413-1.9,2.9,2.9,0,0,1,2.686,1.454,7.6,7.6,0,0,1,.442,3.666v8.754h2.275V121.5a9.543,9.543,0,0,0-.506-4.519,4.471,4.471,0,0,0-4.456-2.5,4.963,4.963,0,0,0-4.677,2.686,7.037,7.037,0,0,0-.284-2.275Zm25.535-6.352v21.806h2.465v-9.323h3.792l5.467,9.354h2.907l-5.688-9.7a5.938,5.938,0,0,0,4.456-5.91,5.569,5.569,0,0,0-3.508-5.467,15.17,15.17,0,0,0-6.068-.664h-3.824Zm2.4,10.366v-8.248h1.454a11.217,11.217,0,0,1,4.9.506,3.633,3.633,0,0,1,2.054,3.508,3.841,3.841,0,0,1-2.465,3.792,11.786,11.786,0,0,1-4.456.442Zm27.084,4.077v-.664c0-4.8-2.465-7.869-6.289-7.869-4.077,0-6.637,3.287-6.637,8.312,0,4.9,2.623,7.964,6.795,7.964a5.631,5.631,0,0,0,5.752-4.077l-2.117-.284a3.563,3.563,0,0,1-3.571,2.339c-2.844,0-4.393-1.959-4.456-5.752h10.492Zm-10.524-1.738c.442-3.224,1.9-4.8,4.172-4.8,2.339,0,3.729,1.675,4.014,4.8Zm24.65-2.117c-.158-3.065-2.054-4.677-5.4-4.677-3.129,0-5.341,1.77-5.341,4.393,0,2.181,1.169,3.35,4.172,4.235a13.6,13.6,0,0,1,3.445,1.233,2.055,2.055,0,0,1,1.011,1.833c0,1.675-1.233,2.686-3.287,2.686a3.109,3.109,0,0,1-3.54-2.623,4.666,4.666,0,0,1-.032-.664h-2.181c0,3.35,2.054,5.183,5.847,5.183,3.508,0,5.625-1.9,5.625-4.8a4.108,4.108,0,0,0-.885-2.686,8.266,8.266,0,0,0-4.14-1.959c-2.907-.885-3.571-1.327-3.571-2.623,0-1.391,1.233-2.339,3-2.339a2.878,2.878,0,0,1,3.192,2.528h0c0,.063.032.158.032.253h2.117v.032Zm16.054,3.856v-.664c0-4.8-2.5-7.869-6.289-7.869-4.077,0-6.637,3.287-6.637,8.312,0,4.9,2.623,7.964,6.795,7.964a5.631,5.631,0,0,0,5.752-4.077l-2.117-.284a3.563,3.563,0,0,1-3.571,2.339c-2.844,0-4.393-1.959-4.456-5.752h10.492Zm-10.492-1.738c.443-3.224,1.9-4.8,4.172-4.8,2.339,0,3.729,1.675,4.014,4.8Zm16.339-2.339c.284-1.77,1.391-2.56,3.445-2.56,2.339,0,3.224.885,3.224,3.224v.664a30.872,30.872,0,0,0-5.847,1.391,4.9,4.9,0,0,0-3.571,4.677c0,2.686,1.959,4.456,5.025,4.456a4.587,4.587,0,0,0,4.519-2.5,8.057,8.057,0,0,0,.379,2.117h2.181a10.522,10.522,0,0,1-.442-4.077v-5.815a9.448,9.448,0,0,0-.379-3.508c-.6-1.612-2.4-2.56-4.962-2.56-3.508,0-5.467,1.549-5.752,4.456l2.181.032Zm6.573,4.582a7.645,7.645,0,0,1-.6,3.445,3.7,3.7,0,0,1-3.508,1.9,2.707,2.707,0,0,1-2.971-2.465v-.253c0-2.117,1.9-3.223,7.079-4.172v1.549Zm6.858-8.6a25.137,25.137,0,0,1,.284,5.341v10.145h2.339v-6.921a11.844,11.844,0,0,1,.664-4.456,3.425,3.425,0,0,1,3-2.4,4.055,4.055,0,0,1,2.054.664v-2.275a3.63,3.63,0,0,0-1.9-.506c-1.675,0-2.907,1.169-4.014,3.792v-.948a10.193,10.193,0,0,0-.284-2.4Zm22.248,5.025c-.284-3.571-2.275-5.467-5.562-5.467-4.014,0-6.573,3.129-6.573,8.248,0,4.9,2.56,8.09,6.573,8.09,3.445,0,5.4-1.959,5.689-5.689h-2.276c-.284,2.623-1.327,3.792-3.445,3.792a3.344,3.344,0,0,1-2.5-.885,7.459,7.459,0,0,1-1.77-5.341c0-3.856,1.612-6.194,4.172-6.194,1.959,0,2.907.948,3.35,3.508h2.275Zm3.856-11.44v21.9h2.275v-8.533a7.222,7.222,0,0,1,.664-3.445,3.623,3.623,0,0,1,3.287-1.9,2.9,2.9,0,0,1,2.686,1.454,7.142,7.142,0,0,1,.506,3.634v8.754h2.275v-8.912c0-3.065-.158-3.95-.664-4.9a4.865,4.865,0,0,0-4.3-2.117,5.055,5.055,0,0,0-4.456,2.275v-8.248Z" transform="translate(-381.655 -73.997)"/></svg>