<svg xmlns="http://www.w3.org/2000/svg" xmlns:xlink="http://www.w3.org/1999/xlink" width="752.313" height="292.969" viewBox="0 0 752.313 292.969"><defs><style>.a{fill:none;stroke:#fff;stroke-linecap:round;stroke-width:2px;}.b{fill:#fff;}.c{fill:#ccc;}.d{filter:url(#e);}.e{filter:url(#c);}.f{filter:url(#a);}</style><filter id="a" x="285.398" y="137.805" width="184.172" height="51.219" filterUnits="userSpaceOnUse"><feOffset dy="4" input="SourceAlpha"/><feGaussianBlur stdDeviation="4" result="b"/><feFlood/><feComposite operator="in" in2="b"/><feComposite in="SourceGraphic"/></filter><filter id="c" x="0" y="0" width="752.313" height="54.367" filterUnits="userSpaceOnUse"><feOffset dy="2" input="SourceAlpha"/><feGaussianBlur stdDeviation="3" result="d"/><feFlood/><feComposite operator="in" in2="d"/><feComposite in="SourceGraphic"/></filter><filter id="e" x="21.084" y="48" width="715.76" height="54.445" filterUnits="userSpaceOnUse"><feOffset dy="2" input="SourceAlpha"/><feGaussianBlur stdDeviation="3" result="f"/><feFlood/><feComposite operator="in" in2="f"/><feComposite in="SourceGraphic"/></filter></defs><g transform="translate(-604.274 1331.711)"><path class="a" d="M0,0V100.52" transform="translate(983.5 -1140.262)"/><g class="f" transform="matrix(1, 0, 0, 1, 604.27, -1331.71)"><path class="b" d="M.672,0H3.109L9.734-9.531h.078L16.375,0h2.563l-7.8-11.2v-.062l7.906-11.281H16.609L9.969-12.969H9.891L3.313-22.547H.75L8.516-11.359v.078ZM28.078-16.219h2.063a4.944,4.944,0,0,1,5.25-4.812,4.5,4.5,0,0,1,4.8,4.453c0,1.984-.8,3.328-4.031,6.7L28.188-1.5V0h14.7V-1.906H31.156v-.062l6.031-6.3c4.016-4.141,5.125-5.984,5.125-8.422,0-3.437-2.875-6.219-6.922-6.219C31.219-22.906,28.109-20.078,28.078-16.219ZM53.828.359c5.125,0,8.156-4.531,8.156-11.656,0-7.078-3.047-11.609-8.156-11.609-5.094,0-8.172,4.547-8.172,11.625C45.656-4.156,48.7.359,53.828.359Zm0-1.875c-3.812,0-6.016-3.8-6.016-9.781,0-5.875,2.25-9.719,6.016-9.719,3.781,0,6.016,3.813,6.016,9.734C59.844-5.312,57.641-1.516,53.828-1.516ZM65.891,0h2.266L78.484-20.547v-2H63.8v1.906H76.344v.063ZM79.531,4.313,81.5-3.219H79.3L77.8,4.313ZM99.25,0V-9.75l8.078-12.8h-2.437l-6.672,10.7h-.078l-6.672-10.7H89.031l8.078,12.8V0Zm27.609,0h2.078V-5.094H132.3V-6.984h-3.359V-22.578h-3.125c-4.984,6.984-7.937,11.406-10.391,15.531v1.953h11.438Zm-9.281-7.047c2.25-3.656,5.094-7.906,9.25-13.656h.031V-6.984h-9.281ZM135-16.219h2.063a4.944,4.944,0,0,1,5.25-4.812,4.5,4.5,0,0,1,4.8,4.453c0,1.984-.8,3.328-4.031,6.7L135.109-1.5V0h14.7V-1.906H138.078v-.062l6.031-6.3c4.016-4.141,5.125-5.984,5.125-8.422,0-3.437-2.875-6.219-6.922-6.219C138.141-22.906,135.031-20.078,135-16.219ZM158.781,0h2.063V-22.547H158.75l-6.078,4.172V-16.2l6.047-4.062h.063Z" transform="translate(296.73 168.71)"/></g><g class="e" transform="matrix(1, 0, 0, 1, 604.27, -1331.71)"><path class="c" d="M13.965,0V-24.414h8.613v-3.77H.957v3.77H9.59V0ZM25.381,0H29.6V-11.875c0-3.242,1.914-5.391,5.039-5.391,2.969,0,4.492,1.816,4.492,4.844V0H43.37V-13.242c0-4.648-2.7-7.656-7.207-7.656-3.125,0-5.371,1.387-6.5,3.789h-.1V-28.184h-4.18ZM60.645-6.035c-.566,1.8-2.344,3.008-4.746,3.008-3.379,0-5.527-2.363-5.527-5.937v-.254H64.884v-1.445c0-6.23-3.555-10.254-9.258-10.254-5.8,0-9.512,4.3-9.512,10.742C46.114-3.691,49.766.391,55.8.391c4.707,0,8.262-2.676,8.848-6.426ZM55.626-17.52c2.949,0,4.941,2.207,5.039,5.352H50.391C50.606-15.273,52.677-17.52,55.626-17.52ZM75.451,0H79.67V-12.3c0-2.91,1.68-4.727,4.395-4.727a6.039,6.039,0,0,1,1.895.234v-3.926a7.7,7.7,0,0,0-1.445-.156,4.95,4.95,0,0,0-4.941,3.828h-.1v-3.5H75.451ZM96.125.391c5.879,0,9.746-4.043,9.746-10.664,0-6.6-3.887-10.645-9.746-10.645s-9.746,4.043-9.746,10.645C86.379-3.652,90.246.391,96.125.391Zm0-3.477c-3.3,0-5.449-2.617-5.449-7.187,0-4.551,2.148-7.168,5.449-7.168s5.449,2.617,5.449,7.168C101.574-5.7,99.445-3.086,96.125-3.086ZM119.67.352c5.215,0,8.574-4.1,8.574-10.625,0-6.5-3.379-10.605-8.555-10.605a7.046,7.046,0,0,0-6.484,3.828h-.1V-28.184h-4.219V0h4.1V-3.5h.078A7.178,7.178,0,0,0,119.67.352Zm-1.133-17.676c3.32,0,5.371,2.734,5.371,7.051,0,4.355-2.051,7.051-5.371,7.051-3.2,0-5.449-2.773-5.449-7.051C113.088-14.512,115.334-17.324,118.537-17.324ZM139.954.391c5.879,0,9.746-4.043,9.746-10.664,0-6.6-3.887-10.645-9.746-10.645s-9.746,4.043-9.746,10.645C130.208-3.652,134.075.391,139.954.391Zm0-3.477c-3.3,0-5.449-2.617-5.449-7.187,0-4.551,2.148-7.168,5.449-7.168s5.449,2.617,5.449,7.168C145.4-5.7,143.274-3.086,139.954-3.086ZM153.792-25.41v4.863H150.8v3.34h2.988v11.8c0,3.965,1.621,5.547,5.781,5.547a11.62,11.62,0,0,0,2.344-.2V-3.4a9.23,9.23,0,0,1-1.387.1c-1.719,0-2.5-.8-2.5-2.578V-17.207h3.906v-3.34H158.03V-25.41ZM172.7,0h4.219V-12.7a4.3,4.3,0,0,1,4.277-4.59,3.615,3.615,0,0,1,3.887,3.867V0h4.141V-12.832a4.172,4.172,0,0,1,4.238-4.453c2.5,0,3.926,1.523,3.926,4.18V0h4.238V-14.121c0-4.082-2.656-6.777-6.719-6.777a6.706,6.706,0,0,0-6.406,4.023h-.1A5.635,5.635,0,0,0,182.66-20.9a6.079,6.079,0,0,0-5.84,3.809h-.1v-3.457H172.7Zm41.416.391c5.879,0,9.746-4.043,9.746-10.664,0-6.6-3.887-10.645-9.746-10.645s-9.746,4.043-9.746,10.645C204.37-3.652,208.237.391,214.116.391Zm0-3.477c-3.3,0-5.449-2.617-5.449-7.187,0-4.551,2.148-7.168,5.449-7.168s5.449,2.617,5.449,7.168C219.565-5.7,217.436-3.086,214.116-3.086Zm29.6-17.461H239.3L234.145-4.121h-.078l-5.156-16.426h-4.492L231.821,0h4.531ZM258.765-6.035c-.566,1.8-2.344,3.008-4.746,3.008-3.379,0-5.527-2.363-5.527-5.937v-.254H263v-1.445c0-6.23-3.555-10.254-9.258-10.254-5.8,0-9.512,4.3-9.512,10.742,0,6.484,3.652,10.566,9.688,10.566,4.707,0,8.262-2.676,8.848-6.426Zm-5.02-11.484c2.949,0,4.941,2.207,5.039,5.352H248.511C248.726-15.273,250.8-17.52,253.745-17.52Zm11.748,2.793c0,2.988,1.934,4.863,5.84,5.762l3.34.781c2.246.508,3.008,1.289,3.008,2.617,0,1.68-1.562,2.734-4.1,2.734-2.578,0-4.043-1.055-4.434-3.2h-4.18c.391,3.906,3.477,6.426,8.613,6.426,4.844,0,8.34-2.578,8.34-6.328,0-2.969-1.6-4.609-5.8-5.586l-3.34-.762c-2.227-.508-3.164-1.387-3.164-2.676,0-1.641,1.523-2.754,3.809-2.754,2.363,0,3.828,1.25,4.063,3.242h3.965c-.137-3.789-3.242-6.445-8.027-6.445C268.7-20.918,265.494-18.4,265.494-14.727ZM293.717-25.41v4.863h-2.988v3.34h2.988v11.8c0,3.965,1.621,5.547,5.781,5.547a11.62,11.62,0,0,0,2.344-.2V-3.4a9.23,9.23,0,0,1-1.387.1c-1.719,0-2.5-.8-2.5-2.578V-17.207h3.906v-3.34h-3.906V-25.41ZM313.259.391C319.138.391,323-3.652,323-10.273c0-6.6-3.887-10.645-9.746-10.645s-9.746,4.043-9.746,10.645C303.513-3.652,307.38.391,313.259.391Zm0-3.477c-3.3,0-5.449-2.617-5.449-7.187,0-4.551,2.148-7.168,5.449-7.168s5.449,2.617,5.449,7.168C318.708-5.7,316.579-3.086,313.259-3.086ZM334.8-25.41v4.863h-2.988v3.34H334.8v11.8c0,3.965,1.621,5.547,5.781,5.547a11.62,11.62,0,0,0,2.344-.2V-3.4a9.23,9.23,0,0,1-1.387.1c-1.719,0-2.5-.8-2.5-2.578V-17.207h3.906v-3.34h-3.906V-25.41ZM346.16,0h4.219V-11.875c0-3.242,1.914-5.391,5.039-5.391,2.969,0,4.492,1.816,4.492,4.844V0h4.238V-13.242c0-4.648-2.7-7.656-7.207-7.656-3.125,0-5.371,1.387-6.5,3.789h-.1V-28.184h-4.18Zm35.264-6.035c-.566,1.8-2.344,3.008-4.746,3.008-3.379,0-5.527-2.363-5.527-5.937v-.254h14.512v-1.445c0-6.23-3.555-10.254-9.258-10.254-5.8,0-9.512,4.3-9.512,10.742,0,6.484,3.652,10.566,9.688,10.566,4.707,0,8.262-2.676,8.848-6.426ZM376.4-17.52c2.949,0,4.941,2.207,5.039,5.352H371.17C371.385-15.273,373.455-17.52,376.4-17.52Zm37.462,4.043c-.371-4.043-3.594-7.441-8.887-7.441-5.84,0-9.668,4.121-9.668,10.645,0,6.641,3.828,10.664,9.707,10.664,4.941,0,8.438-2.969,8.887-7.344h-4.062a4.518,4.518,0,0,1-4.785,3.809c-3.281,0-5.449-2.617-5.449-7.129,0-4.414,2.148-7.129,5.41-7.129a4.661,4.661,0,0,1,4.824,3.926ZM425.322.391c5.879,0,9.746-4.043,9.746-10.664,0-6.6-3.887-10.645-9.746-10.645s-9.746,4.043-9.746,10.645C415.576-3.652,419.443.391,425.322.391Zm0-3.477c-3.3,0-5.449-2.617-5.449-7.187,0-4.551,2.148-7.168,5.449-7.168s5.449,2.617,5.449,7.168C430.771-5.7,428.642-3.086,425.322-3.086ZM446.758.391c5.879,0,9.746-4.043,9.746-10.664,0-6.6-3.887-10.645-9.746-10.645s-9.746,4.043-9.746,10.645C437.012-3.652,440.879.391,446.758.391Zm0-3.477c-3.3,0-5.449-2.617-5.449-7.187,0-4.551,2.148-7.168,5.449-7.168s5.449,2.617,5.449,7.168C452.207-5.7,450.078-3.086,446.758-3.086ZM459.366,0h4.219V-12.3c0-2.91,1.68-4.727,4.395-4.727a6.039,6.039,0,0,1,1.895.234v-3.926a7.7,7.7,0,0,0-1.445-.156,4.95,4.95,0,0,0-4.941,3.828h-.1v-3.5h-4.023Zm19.561.352A7.116,7.116,0,0,0,485.47-3.5h.078V0h4.1V-28.184h-4.238v11.055h-.078a7,7,0,0,0-6.445-3.75c-5.156,0-8.594,4.121-8.594,10.605S473.731.352,478.927.352Zm1.113-17.676c3.242,0,5.41,2.793,5.41,7.051,0,4.3-2.168,7.051-5.41,7.051-3.34,0-5.43-2.715-5.43-7.051C474.61-14.59,476.7-17.324,480.04-17.324Zm15.772-6.543a2.421,2.421,0,0,0,2.422-2.422,2.409,2.409,0,0,0-2.422-2.422,2.426,2.426,0,0,0-2.441,2.422A2.438,2.438,0,0,0,495.812-23.867ZM493.7,0h4.219V-20.547H493.7Zm8.135,0h4.219V-11.973c0-3.184,1.914-5.293,4.883-5.293,2.93,0,4.375,1.7,4.375,4.785V0h4.238V-13.3c0-4.707-2.6-7.6-7.129-7.6a6.675,6.675,0,0,0-6.465,3.789h-.1v-3.437h-4.023ZM529.23.352a7.342,7.342,0,0,0,6.484-3.73h.1V0h4.043V-14.16c0-4.121-3.184-6.758-8.164-6.758-5.078,0-8.242,2.734-8.477,6.445H527.2c.371-1.836,1.895-3.008,4.336-3.008,2.578,0,4.121,1.367,4.121,3.652v1.582l-5.625.332c-4.883.273-7.637,2.48-7.637,6.074C522.395-2.148,525.207.352,529.23.352Zm1.172-3.34c-2.266,0-3.75-1.172-3.75-2.969,0-1.758,1.426-2.871,3.945-3.047l5.059-.312V-7.7C535.656-5.02,533.352-2.988,530.4-2.988ZM544.768-25.41v4.863H541.78v3.34h2.988v11.8c0,3.965,1.621,5.547,5.781,5.547a11.62,11.62,0,0,0,2.344-.2V-3.4a9.23,9.23,0,0,1-1.387.1c-1.719,0-2.5-.8-2.5-2.578V-17.207h3.906v-3.34h-3.906V-25.41ZM569.095-6.035c-.566,1.8-2.344,3.008-4.746,3.008-3.379,0-5.527-2.363-5.527-5.937v-.254h14.512v-1.445c0-6.23-3.555-10.254-9.258-10.254-5.8,0-9.512,4.3-9.512,10.742,0,6.484,3.652,10.566,9.688,10.566,4.707,0,8.262-2.676,8.848-6.426Zm-5.02-11.484c2.949,0,4.941,2.207,5.039,5.352H558.841C559.055-15.273,561.126-17.52,564.075-17.52Zm11.748,2.793c0,2.988,1.934,4.863,5.84,5.762l3.34.781c2.246.508,3.008,1.289,3.008,2.617,0,1.68-1.562,2.734-4.1,2.734-2.578,0-4.043-1.055-4.434-3.2H575.3c.391,3.906,3.477,6.426,8.613,6.426,4.844,0,8.34-2.578,8.34-6.328,0-2.969-1.6-4.609-5.8-5.586l-3.34-.762c-2.227-.508-3.164-1.387-3.164-2.676,0-1.641,1.523-2.754,3.809-2.754,2.363,0,3.828,1.25,4.063,3.242h3.965c-.137-3.789-3.242-6.445-8.027-6.445C579.027-20.918,575.823-18.4,575.823-14.727ZM611.645.391c5.879,0,9.746-4.043,9.746-10.664,0-6.6-3.887-10.645-9.746-10.645S601.9-16.875,601.9-10.273C601.9-3.652,605.766.391,611.645.391Zm0-3.477c-3.3,0-5.449-2.617-5.449-7.187,0-4.551,2.148-7.168,5.449-7.168s5.449,2.617,5.449,7.168C617.094-5.7,614.965-3.086,611.645-3.086ZM625.483,0h4.238V-17.207h4.1v-3.3h-4.16v-1.934c0-1.816.859-2.734,2.7-2.734a8.865,8.865,0,0,1,1.543.117v-3.125a15.115,15.115,0,0,0-2.363-.2c-4.18,0-6.055,1.875-6.055,5.859v2.012h-2.832v3.3h2.832Zm32.579-6.035c-.566,1.8-2.344,3.008-4.746,3.008-3.379,0-5.527-2.363-5.527-5.937v-.254H662.3v-1.445c0-6.23-3.555-10.254-9.258-10.254-5.8,0-9.512,4.3-9.512,10.742,0,6.484,3.652,10.566,9.688,10.566,4.707,0,8.262-2.676,8.848-6.426Zm-5.02-11.484c2.949,0,4.941,2.207,5.039,5.352H647.808C648.023-15.273,650.093-17.52,653.042-17.52ZM682.6-20.547h-4.414L673.033-4.121h-.078L667.8-20.547h-4.492L670.709,0h4.531ZM697.652-6.035c-.566,1.8-2.344,3.008-4.746,3.008-3.379,0-5.527-2.363-5.527-5.937v-.254h14.512v-1.445c0-6.23-3.555-10.254-9.258-10.254-5.8,0-9.512,4.3-9.512,10.742,0,6.484,3.652,10.566,9.688,10.566,4.707,0,8.262-2.676,8.848-6.426Zm-5.02-11.484c2.949,0,4.941,2.207,5.039,5.352H687.4C687.613-15.273,689.684-17.52,692.633-17.52ZM704.752,0h4.219V-12.3c0-2.91,1.68-4.727,4.395-4.727a6.039,6.039,0,0,1,1.895.234v-3.926a7.7,7.7,0,0,0-1.445-.156,4.95,4.95,0,0,0-4.941,3.828h-.1v-3.5h-4.023Zm14.776,7.656c4.258,0,6.289-1.6,8.047-6.582l7.7-21.621h-4.453l-5.2,16.719h-.078l-5.2-16.719h-4.57L723.2.02c0,.02-.371,1.23-.371,1.27-.645,2.109-1.7,2.93-3.652,2.93a7.8,7.8,0,0,1-1.367-.078V7.559A16.278,16.278,0,0,0,719.528,7.656Z" transform="translate(8.04 35.71)"/></g><g class="d" transform="matrix(1, 0, 0, 1, 604.27, -1331.71)"><path class="c" d="M19.727-13.477c-.371-4.043-3.594-7.441-8.887-7.441C5-20.918,1.172-16.8,1.172-10.273,1.172-3.633,5,.391,10.879.391c4.941,0,8.438-2.969,8.887-7.344H15.7a4.518,4.518,0,0,1-4.785,3.809c-3.281,0-5.449-2.617-5.449-7.129,0-4.414,2.148-7.129,5.41-7.129A4.661,4.661,0,0,1,15.7-13.477ZM31.182.391c5.879,0,9.746-4.043,9.746-10.664,0-6.6-3.887-10.645-9.746-10.645s-9.746,4.043-9.746,10.645C21.436-3.652,25.3.391,31.182.391Zm0-3.477c-3.3,0-5.449-2.617-5.449-7.187,0-4.551,2.148-7.168,5.449-7.168s5.449,2.617,5.449,7.168C36.631-5.7,34.5-3.086,31.182-3.086ZM43.79,0h4.219V-11.973c0-3.184,1.914-5.293,4.883-5.293,2.93,0,4.375,1.7,4.375,4.785V0H61.5V-13.3c0-4.707-2.6-7.6-7.129-7.6a6.675,6.675,0,0,0-6.465,3.789h-.1v-3.437H43.79ZM66.4-25.41v4.863H63.409v3.34H66.4v11.8c0,3.965,1.621,5.547,5.781,5.547a11.62,11.62,0,0,0,2.344-.2V-3.4a9.23,9.23,0,0,1-1.387.1c-1.719,0-2.5-.8-2.5-2.578V-17.207h3.906v-3.34H70.636V-25.41ZM85.939.391c5.879,0,9.746-4.043,9.746-10.664,0-6.6-3.887-10.645-9.746-10.645s-9.746,4.043-9.746,10.645C76.193-3.652,80.06.391,85.939.391Zm0-3.477c-3.3,0-5.449-2.617-5.449-7.187,0-4.551,2.148-7.168,5.449-7.168s5.449,2.617,5.449,7.168C91.388-5.7,89.259-3.086,85.939-3.086Zm30.225-17.461h-4.219V-8.574c0,3.2-1.836,5.313-4.883,5.313-2.91,0-4.395-1.68-4.395-4.8v-12.48H98.449v13.3c0,4.707,2.734,7.617,7.207,7.617a6.443,6.443,0,0,0,6.367-3.848h.1V0h4.043ZM119.924,0h4.219V-12.3c0-2.91,1.68-4.727,4.395-4.727a6.039,6.039,0,0,1,1.895.234v-3.926a7.7,7.7,0,0,0-1.445-.156,4.95,4.95,0,0,0-4.941,3.828h-.1v-3.5h-4.023Zm38.067-13.477c-.371-4.043-3.594-7.441-8.887-7.441-5.84,0-9.668,4.121-9.668,10.645,0,6.641,3.828,10.664,9.707,10.664,4.941,0,8.438-2.969,8.887-7.344h-4.062a4.518,4.518,0,0,1-4.785,3.809c-3.281,0-5.449-2.617-5.449-7.129,0-4.414,2.148-7.129,5.41-7.129a4.661,4.661,0,0,1,4.824,3.926ZM160.619,0h4.219V-12.3c0-2.91,1.68-4.727,4.395-4.727a6.039,6.039,0,0,1,1.895.234v-3.926a7.7,7.7,0,0,0-1.445-.156,4.95,4.95,0,0,0-4.941,3.828h-.1v-3.5h-4.023Zm25.459-6.035c-.566,1.8-2.344,3.008-4.746,3.008-3.379,0-5.527-2.363-5.527-5.937v-.254h14.512v-1.445c0-6.23-3.555-10.254-9.258-10.254-5.8,0-9.512,4.3-9.512,10.742,0,6.484,3.652,10.566,9.688,10.566,4.707,0,8.262-2.676,8.848-6.426Zm-5.02-11.484c2.949,0,4.941,2.207,5.039,5.352H175.824C176.039-15.273,178.109-17.52,181.059-17.52ZM199.194.352a7.342,7.342,0,0,0,6.484-3.73h.1V0h4.043V-14.16c0-4.121-3.184-6.758-8.164-6.758-5.078,0-8.242,2.734-8.477,6.445h3.984c.371-1.836,1.895-3.008,4.336-3.008,2.578,0,4.121,1.367,4.121,3.652v1.582l-5.625.332c-4.883.273-7.637,2.48-7.637,6.074C192.358-2.148,195.17.352,199.194.352Zm1.172-3.34c-2.266,0-3.75-1.172-3.75-2.969,0-1.758,1.426-2.871,3.945-3.047l5.059-.312V-7.7C205.62-5.02,203.315-2.988,200.366-2.988ZM214.731-25.41v4.863h-2.988v3.34h2.988v11.8c0,3.965,1.621,5.547,5.781,5.547a11.62,11.62,0,0,0,2.344-.2V-3.4a9.23,9.23,0,0,1-1.387.1c-1.719,0-2.5-.8-2.5-2.578V-17.207h3.906v-3.34H218.97V-25.41ZM239.058-6.035c-.566,1.8-2.344,3.008-4.746,3.008-3.379,0-5.527-2.363-5.527-5.937v-.254H243.3v-1.445c0-6.23-3.555-10.254-9.258-10.254-5.8,0-9.512,4.3-9.512,10.742,0,6.484,3.652,10.566,9.688,10.566,4.707,0,8.262-2.676,8.848-6.426Zm-5.02-11.484c2.949,0,4.941,2.207,5.039,5.352H228.8C229.019-15.273,231.089-17.52,234.038-17.52ZM253.873.352A7.116,7.116,0,0,0,260.416-3.5h.078V0h4.1V-28.184h-4.238v11.055h-.078a7,7,0,0,0-6.445-3.75c-5.156,0-8.594,4.121-8.594,10.605S248.677.352,253.873.352Zm1.113-17.676c3.242,0,5.41,2.793,5.41,7.051,0,4.3-2.168,7.051-5.41,7.051-3.34,0-5.43-2.715-5.43-7.051C249.556-14.59,251.646-17.324,254.986-17.324ZM287.155.352c5.215,0,8.574-4.1,8.574-10.625,0-6.5-3.379-10.605-8.555-10.605a7.046,7.046,0,0,0-6.484,3.828h-.1V-28.184h-4.219V0h4.1V-3.5h.078A7.178,7.178,0,0,0,287.155.352Zm-1.133-17.676c3.32,0,5.371,2.734,5.371,7.051,0,4.355-2.051,7.051-5.371,7.051-3.2,0-5.449-2.773-5.449-7.051C280.573-14.512,282.819-17.324,286.022-17.324Zm14.092,24.98c4.258,0,6.289-1.6,8.047-6.582l7.7-21.621H311.4l-5.2,16.719h-.078l-5.2-16.719h-4.57L303.786.02c0,.02-.371,1.23-.371,1.27-.645,2.109-1.7,2.93-3.652,2.93a7.8,7.8,0,0,1-1.367-.078V7.559A16.278,16.278,0,0,0,300.114,7.656ZM326.873-25.41v4.863h-2.988v3.34h2.988v11.8c0,3.965,1.621,5.547,5.781,5.547A11.62,11.62,0,0,0,335-.059V-3.4a9.23,9.23,0,0,1-1.387.1c-1.719,0-2.5-.8-2.5-2.578V-17.207h3.906v-3.34h-3.906V-25.41ZM338.23,0h4.219V-11.875c0-3.242,1.914-5.391,5.039-5.391,2.969,0,4.492,1.816,4.492,4.844V0h4.238V-13.242c0-4.648-2.7-7.656-7.207-7.656-3.125,0-5.371,1.387-6.5,3.789h-.1V-28.184h-4.18Zm35.264-6.035c-.566,1.8-2.344,3.008-4.746,3.008-3.379,0-5.527-2.363-5.527-5.937v-.254h14.512v-1.445c0-6.23-3.555-10.254-9.258-10.254-5.8,0-9.512,4.3-9.512,10.742,0,6.484,3.652,10.566,9.688,10.566,4.707,0,8.262-2.676,8.848-6.426Zm-5.02-11.484c2.949,0,4.941,2.207,5.039,5.352H363.241C363.455-15.273,365.526-17.52,368.475-17.52ZM389.53-25.41v4.863h-2.988v3.34h2.988v11.8c0,3.965,1.621,5.547,5.781,5.547a11.62,11.62,0,0,0,2.344-.2V-3.4a9.23,9.23,0,0,1-1.387.1c-1.719,0-2.5-.8-2.5-2.578V-17.207h3.906v-3.34h-3.906V-25.41ZM400.888,0h4.219V-11.875c0-3.242,1.914-5.391,5.039-5.391,2.969,0,4.492,1.816,4.492,4.844V0h4.238V-13.242c0-4.648-2.7-7.656-7.207-7.656-3.125,0-5.371,1.387-6.5,3.789h-.1V-28.184h-4.18Zm23.9-23.867a2.421,2.421,0,0,0,2.422-2.422,2.409,2.409,0,0,0-2.422-2.422,2.426,2.426,0,0,0-2.441,2.422A2.438,2.438,0,0,0,424.785-23.867ZM422.676,0h4.219V-20.547h-4.219Zm8.135,0h4.219V-11.973c0-3.184,1.914-5.293,4.883-5.293,2.93,0,4.375,1.7,4.375,4.785V0h4.238V-13.3c0-4.707-2.6-7.6-7.129-7.6a6.675,6.675,0,0,0-6.465,3.789h-.1v-3.437h-4.023Zm21.377,0h4.219V-11.973c0-3.184,1.914-5.293,4.883-5.293,2.93,0,4.375,1.7,4.375,4.785V0H469.9V-13.3c0-4.707-2.6-7.6-7.129-7.6a6.675,6.675,0,0,0-6.465,3.789h-.1v-3.437h-4.023Zm23.623-23.867a2.421,2.421,0,0,0,2.422-2.422,2.409,2.409,0,0,0-2.422-2.422,2.426,2.426,0,0,0-2.441,2.422A2.438,2.438,0,0,0,475.812-23.867ZM473.7,0h4.219V-20.547H473.7Zm8.135,0h4.219V-11.973c0-3.184,1.914-5.293,4.883-5.293,2.93,0,4.375,1.7,4.375,4.785V0h4.238V-13.3c0-4.707-2.6-7.6-7.129-7.6a6.675,6.675,0,0,0-6.465,3.789h-.1v-3.437h-4.023ZM512,7.734c5.859,0,9.648-3.2,9.648-8.105V-20.547h-4.1v3.516h-.078a7.173,7.173,0,0,0-6.543-3.848c-5.273,0-8.633,4.063-8.633,10.527,0,6.406,3.379,10.43,8.535,10.43a7.142,7.142,0,0,0,6.5-3.691h.078V-.234c0,2.813-1.953,4.688-5.254,4.688-2.4,0-4.277-1.133-4.883-2.852h-4.238C503.566,5.156,507.16,7.734,512,7.734Zm-.039-11.152c-3.242,0-5.352-2.617-5.352-6.914,0-4.277,2.109-6.992,5.352-6.992,3.3,0,5.469,2.773,5.469,6.992C517.434-6.094,515.266-3.418,511.965-3.418ZM539.134.352a7.342,7.342,0,0,0,6.484-3.73h.1V0h4.043V-14.16c0-4.121-3.184-6.758-8.164-6.758-5.078,0-8.242,2.734-8.477,6.445H537.1c.371-1.836,1.895-3.008,4.336-3.008,2.578,0,4.121,1.367,4.121,3.652v1.582l-5.625.332c-4.883.273-7.637,2.48-7.637,6.074C532.3-2.148,535.11.352,539.134.352Zm1.172-3.34c-2.266,0-3.75-1.172-3.75-2.969,0-1.758,1.426-2.871,3.945-3.047l5.059-.312V-7.7C545.559-5.02,543.255-2.988,540.305-2.988ZM553.6,0h4.219V-28.184H553.6Zm16.944,7.734c5.859,0,9.648-3.2,9.648-8.105V-20.547h-4.1v3.516h-.078a7.173,7.173,0,0,0-6.543-3.848c-5.273,0-8.633,4.063-8.633,10.527,0,6.406,3.379,10.43,8.535,10.43a7.142,7.142,0,0,0,6.5-3.691h.078V-.234c0,2.813-1.953,4.688-5.254,4.688-2.4,0-4.277-1.133-4.883-2.852h-4.238C562.1,5.156,565.7,7.734,570.541,7.734ZM570.5-3.418c-3.242,0-5.352-2.617-5.352-6.914,0-4.277,2.109-6.992,5.352-6.992,3.3,0,5.469,2.773,5.469,6.992C575.97-6.094,573.8-3.418,570.5-3.418ZM592.777.391c5.879,0,9.746-4.043,9.746-10.664,0-6.6-3.887-10.645-9.746-10.645s-9.746,4.043-9.746,10.645C583.031-3.652,586.9.391,592.777.391Zm0-3.477c-3.3,0-5.449-2.617-5.449-7.187,0-4.551,2.148-7.168,5.449-7.168s5.449,2.617,5.449,7.168C598.227-5.7,596.1-3.086,592.777-3.086ZM605.385,0H609.6V-12.3c0-2.91,1.68-4.727,4.395-4.727a6.039,6.039,0,0,1,1.895.234v-3.926a7.7,7.7,0,0,0-1.445-.156,4.95,4.95,0,0,0-4.941,3.828h-.1v-3.5h-4.023Zm14.971-23.867a2.421,2.421,0,0,0,2.422-2.422,2.409,2.409,0,0,0-2.422-2.422,2.426,2.426,0,0,0-2.441,2.422A2.438,2.438,0,0,0,620.356-23.867ZM618.247,0h4.219V-20.547h-4.219Zm9.366-25.41v4.863h-2.988v3.34h2.988v11.8c0,3.965,1.621,5.547,5.781,5.547a11.62,11.62,0,0,0,2.344-.2V-3.4a9.23,9.23,0,0,1-1.387.1c-1.719,0-2.5-.8-2.5-2.578V-17.207h3.906v-3.34h-3.906V-25.41ZM638.97,0h4.219V-11.875c0-3.242,1.914-5.391,5.039-5.391,2.969,0,4.492,1.816,4.492,4.844V0h4.238V-13.242c0-4.648-2.7-7.656-7.207-7.656-3.125,0-5.371,1.387-6.5,3.789h-.1V-28.184h-4.18Zm21.651,0h4.219V-12.7a4.3,4.3,0,0,1,4.277-4.59A3.615,3.615,0,0,1,673-13.418V0h4.141V-12.832a4.172,4.172,0,0,1,4.238-4.453c2.5,0,3.926,1.523,3.926,4.18V0h4.238V-14.121c0-4.082-2.656-6.777-6.719-6.777a6.706,6.706,0,0,0-6.406,4.023h-.1a5.635,5.635,0,0,0-5.742-4.023,6.079,6.079,0,0,0-5.84,3.809h-.1v-3.457h-4.023Zm35.752.215a2.542,2.542,0,0,0,2.559-2.559A2.542,2.542,0,0,0,696.373-4.9a2.542,2.542,0,0,0-2.559,2.559A2.542,2.542,0,0,0,696.373.215Z" transform="translate(28.91 83.71)"/></g></g></svg>