<svg xmlns="http://www.w3.org/2000/svg" xmlns:xlink="http://www.w3.org/1999/xlink" width="1440" height="699" viewBox="0 0 1440 699"><defs><style>.a,.h{fill:#fff;}.a{stroke:#707070;}.b{clip-path:url(#a);}.c{fill:url(#b);}.d{opacity:0.8;}.e,.g,.k{fill:none;}.e,.g{stroke:#fff;stroke-width:2px;}.f{fill:url(#d);}.g{stroke-linecap:round;}.h{font-size:32px;font-family:SFProDisplay-Light, SF Pro Display;font-weight:300;}.i{fill:#ccc;font-size:40px;font-family:SFProDisplay-Medium, SF Pro Display;font-weight:500;letter-spacing:-0.01em;}.j{stroke:none;}.l{filter:url(#g);}.m{filter:url(#e);}</style><clipPath id="a"><rect class="a" width="1440" height="699" transform="translate(0 7822)"/></clipPath><linearGradient id="b" x1="0.5" x2="0.5" y2="1" gradientUnits="objectBoundingBox"><stop offset="0" stop-opacity="0"/><stop offset="1"/></linearGradient><linearGradient id="d" y1="0.539" x2="0.656" y2="0.58" gradientUnits="objectBoundingBox"><stop offset="0"/><stop offset="1" stop-opacity="0"/></linearGradient><filter id="e" x="626" y="338" width="189" height="62" filterUnits="userSpaceOnUse"><feOffset dy="4" input="SourceAlpha"/><feGaussianBlur stdDeviation="4" result="f"/><feFlood/><feComposite operator="in" in2="f"/><feComposite in="SourceGraphic"/></filter><filter id="g" x="346" y="198" width="749" height="114" filterUnits="userSpaceOnUse"><feOffset dy="2" input="SourceAlpha"/><feGaussianBlur stdDeviation="3" result="h"/><feFlood/><feComposite operator="in" in2="h"/><feComposite in="SourceGraphic"/></filter></defs><g class="b" transform="translate(0 -7822)"><rect class="c" width="1440" height="391" transform="translate(0 8132)"/><rect width="1440" height="422" transform="translate(0 8521)"/><g class="d" transform="matrix(1, -0.017, 0.017, 1, -273.031, 5724.674)"><g class="e" transform="translate(6.941 1948) rotate(13)"><ellipse class="j" cx="1171.058" cy="505.96" rx="1171.058" ry="505.96"/><ellipse class="k" cx="1171.058" cy="505.96" rx="1170.058" ry="504.96"/></g><g class="e" transform="translate(6.941 2056.42) rotate(13)"><ellipse class="j" cx="1003.764" cy="433.68" rx="1003.764" ry="433.68"/><ellipse class="k" cx="1003.764" cy="433.68" rx="1002.764" ry="432.68"/></g><g class="e" transform="translate(6.941 2163.394) rotate(13)"><ellipse class="j" cx="836.47" cy="361.4" rx="836.47" ry="361.4"/><ellipse class="k" cx="836.47" cy="361.4" rx="835.47" ry="360.4"/></g><g class="e" transform="translate(6.941 2271.814) rotate(13)"><ellipse class="j" cx="669.176" cy="289.12" rx="669.176" ry="289.12"/><ellipse class="k" cx="669.176" cy="289.12" rx="668.176" ry="288.12"/></g><g class="e" transform="translate(6.941 2380.234) rotate(13)"><ellipse class="j" cx="501.882" cy="216.84" rx="501.882" ry="216.84"/><ellipse class="k" cx="501.882" cy="216.84" rx="500.882" ry="215.84"/></g><g class="e" transform="translate(6.941 2488.654) rotate(13)"><ellipse class="j" cx="334.588" cy="144.56" rx="334.588" ry="144.56"/><ellipse class="k" cx="334.588" cy="144.56" rx="333.588" ry="143.56"/></g><g class="e" transform="translate(6.941 2595.628) rotate(13)"><ellipse class="j" cx="167.294" cy="72.28" rx="167.294" ry="72.28"/><ellipse class="k" cx="167.294" cy="72.28" rx="166.294" ry="71.28"/></g><g class="e" transform="translate(6.941 2001.487) rotate(13)"><ellipse class="j" cx="1087.411" cy="469.82" rx="1087.411" ry="469.82"/><ellipse class="k" cx="1087.411" cy="469.82" rx="1086.411" ry="468.82"/></g><g class="e" transform="translate(6.941 2109.907) rotate(13)"><ellipse class="j" cx="920.117" cy="397.54" rx="920.117" ry="397.54"/><ellipse class="k" cx="920.117" cy="397.54" rx="919.117" ry="396.54"/></g><g class="e" transform="translate(6.941 2218.327) rotate(13)"><ellipse class="j" cx="752.823" cy="325.26" rx="752.823" ry="325.26"/><ellipse class="k" cx="752.823" cy="325.26" rx="751.823" ry="324.26"/></g><g class="e" transform="translate(6.941 2325.302) rotate(13)"><ellipse class="j" cx="585.529" cy="252.98" rx="585.529" ry="252.98"/><ellipse class="k" cx="585.529" cy="252.98" rx="584.529" ry="251.98"/></g><g class="e" transform="translate(6.941 2433.721) rotate(13)"><ellipse class="j" cx="418.235" cy="180.7" rx="418.235" ry="180.7"/><ellipse class="k" cx="418.235" cy="180.7" rx="417.235" ry="179.7"/></g><g class="e" transform="translate(6.941 2542.141) rotate(13)"><ellipse class="j" cx="250.941" cy="108.42" rx="250.941" ry="108.42"/><ellipse class="k" cx="250.941" cy="108.42" rx="249.941" ry="107.42"/></g><g class="e" transform="translate(6.941 2650.561) rotate(13)"><ellipse class="j" cx="83.647" cy="36.14" rx="83.647" ry="36.14"/><ellipse class="k" cx="83.647" cy="36.14" rx="82.647" ry="35.14"/></g></g><rect class="c" width="1440" height="408" transform="translate(0 8167)"/><rect class="f" width="1113" height="723" transform="translate(0 7822)"/><path class="g" d="M0,0V100.52" transform="translate(720.5 8220.738)"/><g class="m" transform="matrix(1, 0, 0, 1, 0, 7822)"><text class="h" transform="translate(638 376)"><tspan x="0" y="0">X 207, Y 421</tspan></text></g><g class="l" transform="matrix(1, 0, 0, 1, 0, 7822)"><text class="i" transform="translate(355 205)"><tspan x="0" y="38">The robot moves to the coordinate of every </tspan><tspan x="0" y="86">contour created by the thinning algorithm.</tspan></text></g></g></svg>