<svg xmlns="http://www.w3.org/2000/svg" width="545.865" height="313.301" viewBox="0 0 545.865 313.301">
  <g id="Gruppe_37" data-name="Gruppe 37" transform="translate(-921.142 -1141.537)">
    <g id="Rechteck_63" data-name="Rechteck 63" transform="translate(988.856 1209.946)" fill="#fff" stroke="#000" stroke-width="1">
      <rect width="410.436" height="163.337" stroke="none"/>
      <rect x="0.5" y="0.5" width="409.436" height="162.337" fill="none"/>
    </g>
    <line id="Linie_68" data-name="Linie 68" y1="68.406" x2="67.708" transform="translate(1398.943 1141.889)" fill="none" stroke="#000" stroke-width="1"/>
    <line id="Linie_69" data-name="Linie 69" x1="67.708" y1="68.406" transform="translate(921.497 1141.889)" fill="none" stroke="#000" stroke-width="1"/>
    <g id="Rechteck_64" data-name="Rechteck 64" transform="translate(921.148 1372.585)" fill="#fff" stroke="#000" stroke-linecap="round" stroke-width="1">
      <rect width="545.852" height="34.203" stroke="none"/>
      <rect x="0.5" y="0.5" width="544.852" height="33.203" fill="none"/>
    </g>
    <g id="Rechteck_65" data-name="Rechteck 65" transform="translate(954.653 1406.09)" fill="#fff" stroke="#000" stroke-width="1">
      <rect width="26.055" height="48.749" stroke="none"/>
      <rect x="0.5" y="0.5" width="25.055" height="47.749" fill="none"/>
    </g>
    <g id="Rechteck_67" data-name="Rechteck 67" transform="translate(1005.083 1406.09)" fill="#fff" stroke="#000" stroke-width="1">
      <rect width="18.491" height="34.46" stroke="none"/>
      <rect x="0.5" y="0.5" width="17.491" height="33.46" fill="none"/>
    </g>
    <g id="Rechteck_68" data-name="Rechteck 68" transform="translate(1365.625 1406.09)" fill="#fff" stroke="#000" stroke-width="1">
      <rect width="18.491" height="34.46" stroke="none"/>
      <rect x="0.5" y="0.5" width="17.491" height="33.46" fill="none"/>
    </g>
    <g id="Rechteck_66" data-name="Rechteck 66" transform="translate(1406.809 1406.09)" fill="#fff" stroke="#000" stroke-width="1">
      <rect width="26.055" height="48.749" stroke="none"/>
      <rect x="0.5" y="0.5" width="25.055" height="47.749" fill="none"/>
    </g>
    <g id="Rechteck_62" data-name="Rechteck 62" transform="translate(921.148 1141.54)" fill="rgba(255,255,255,0)" stroke="#000" stroke-width="1">
      <rect width="545.852" height="231.743" stroke="none"/>
      <rect x="0.5" y="0.5" width="544.852" height="230.743" fill="none"/>
    </g>
  </g>
</svg>
